<svg width="425" height="275" viewBox="0 0 425 275" fill="none" xmlns="http://www.w3.org/2000/svg">
<rect x="90" y="90" width="335" height="185" rx="20" fill="url(#paint0_linear_283_9032)"/>
<g filter="url(#filter0_b_283_9032)">
<rect x="90" y="90" width="335" height="185" rx="20" fill="white" fill-opacity="0.03"/>
</g>
<path fill-rule="evenodd" clip-rule="evenodd" d="M110 90C98.9543 90 90 98.9543 90 110V255C90 266.046 98.9543 275 110 275H211.618C209.889 272.011 206.657 270 202.956 270H150.567C147.805 270 145.567 267.761 145.567 265C145.567 262.239 147.805 260 150.567 260H178.128C183.651 260 188.128 255.523 188.128 250C188.128 244.477 183.651 240 178.128 240H150.566C147.805 240 145.567 237.761 145.567 235C145.567 232.239 147.805 230 150.566 230H282.167C287.69 230 292.167 225.523 292.167 220C292.167 214.477 287.69 210 282.167 210H150.567C147.805 210 145.567 207.761 145.567 205C145.567 202.239 147.805 200 150.567 200H320C325.523 200 330 195.523 330 190C330 184.477 325.523 180 320 180H150.567C147.805 180 145.567 177.761 145.567 175C145.567 172.239 147.805 170 150.567 170H219.507C225.03 170 229.507 165.523 229.507 160C229.507 154.477 225.03 150 219.507 150H150.566C147.805 150 145.567 147.761 145.567 145C145.567 142.239 147.805 140 150.567 140H258.522C264.045 140 268.522 135.523 268.522 130C268.522 124.477 264.045 120 258.522 120H150.567C147.805 120 145.567 117.761 145.567 115C145.567 112.239 147.805 110 150.567 110H182.857C188.38 110 192.857 105.523 192.857 100C192.857 94.4772 188.38 90 182.857 90H110Z" fill="white" fill-opacity="0.04"/>
<path d="M122.592 245H115.136V243.624L118.864 240.264C119.408 239.773 119.856 239.272 120.208 238.76C120.56 238.237 120.736 237.688 120.736 237.112V236.92C120.736 236.248 120.56 235.731 120.208 235.368C119.856 234.995 119.333 234.808 118.64 234.808C117.957 234.808 117.429 234.984 117.056 235.336C116.693 235.677 116.421 236.136 116.24 236.712L115.04 236.264C115.147 235.933 115.291 235.613 115.472 235.304C115.664 234.984 115.904 234.701 116.192 234.456C116.48 234.211 116.827 234.013 117.232 233.864C117.648 233.715 118.128 233.64 118.672 233.64C119.227 233.64 119.717 233.72 120.144 233.88C120.581 234.04 120.944 234.264 121.232 234.552C121.531 234.84 121.755 235.181 121.904 235.576C122.064 235.971 122.144 236.403 122.144 236.872C122.144 237.299 122.08 237.699 121.952 238.072C121.835 238.445 121.664 238.803 121.44 239.144C121.227 239.485 120.965 239.821 120.656 240.152C120.357 240.472 120.021 240.792 119.648 241.112L116.528 243.832H122.592V245ZM132.186 245H124.73V243.624L128.458 240.264C129.002 239.773 129.45 239.272 129.802 238.76C130.154 238.237 130.33 237.688 130.33 237.112V236.92C130.33 236.248 130.154 235.731 129.802 235.368C129.45 234.995 128.927 234.808 128.234 234.808C127.551 234.808 127.023 234.984 126.65 235.336C126.287 235.677 126.015 236.136 125.834 236.712L124.634 236.264C124.74 235.933 124.884 235.613 125.066 235.304C125.258 234.984 125.498 234.701 125.786 234.456C126.074 234.211 126.42 234.013 126.826 233.864C127.242 233.715 127.722 233.64 128.266 233.64C128.82 233.64 129.311 233.72 129.738 233.88C130.175 234.04 130.538 234.264 130.826 234.552C131.124 234.84 131.348 235.181 131.498 235.576C131.658 235.971 131.738 236.403 131.738 236.872C131.738 237.299 131.674 237.699 131.546 238.072C131.428 238.445 131.258 238.803 131.034 239.144C130.82 239.485 130.559 239.821 130.25 240.152C129.951 240.472 129.615 240.792 129.242 241.112L126.122 243.832H132.186V245ZM141.78 245H134.324V243.624L138.052 240.264C138.596 239.773 139.044 239.272 139.396 238.76C139.748 238.237 139.924 237.688 139.924 237.112V236.92C139.924 236.248 139.748 235.731 139.396 235.368C139.044 234.995 138.521 234.808 137.828 234.808C137.145 234.808 136.617 234.984 136.244 235.336C135.881 235.677 135.609 236.136 135.428 236.712L134.228 236.264C134.334 235.933 134.478 235.613 134.66 235.304C134.852 234.984 135.092 234.701 135.38 234.456C135.668 234.211 136.014 234.013 136.42 233.864C136.836 233.715 137.316 233.64 137.86 233.64C138.414 233.64 138.905 233.72 139.332 233.88C139.769 234.04 140.132 234.264 140.42 234.552C140.718 234.84 140.942 235.181 141.092 235.576C141.252 235.971 141.332 236.403 141.332 236.872C141.332 237.299 141.268 237.699 141.14 238.072C141.022 238.445 140.852 238.803 140.628 239.144C140.414 239.485 140.153 239.821 139.844 240.152C139.545 240.472 139.209 240.792 138.836 241.112L135.716 243.832H141.78V245ZM144.141 245V243.832H147.341V234.824H147.229L144.413 237.448L143.629 236.6L146.589 233.832H148.685V243.832H151.629V245H144.141ZM164.449 240.808V239.464H169.089V240.808H164.449ZM185.956 245.192C185.274 245.192 184.687 245.064 184.196 244.808C183.706 244.541 183.3 244.163 182.98 243.672C182.66 243.181 182.426 242.579 182.276 241.864C182.127 241.149 182.052 240.333 182.052 239.416C182.052 238.509 182.127 237.699 182.276 236.984C182.426 236.259 182.66 235.651 182.98 235.16C183.3 234.669 183.706 234.296 184.196 234.04C184.687 233.773 185.274 233.64 185.956 233.64C186.639 233.64 187.226 233.773 187.716 234.04C188.207 234.296 188.612 234.669 188.932 235.16C189.252 235.651 189.487 236.259 189.636 236.984C189.786 237.699 189.86 238.509 189.86 239.416C189.86 240.333 189.786 241.149 189.636 241.864C189.487 242.579 189.252 243.181 188.932 243.672C188.612 244.163 188.207 244.541 187.716 244.808C187.226 245.064 186.639 245.192 185.956 245.192ZM185.956 244.024C186.404 244.024 186.788 243.939 187.108 243.768C187.428 243.587 187.684 243.336 187.876 243.016C188.079 242.696 188.228 242.312 188.324 241.864C188.42 241.405 188.468 240.893 188.468 240.328V238.504C188.468 237.949 188.42 237.443 188.324 236.984C188.228 236.525 188.079 236.136 187.876 235.816C187.684 235.496 187.428 235.251 187.108 235.08C186.788 234.899 186.404 234.808 185.956 234.808C185.508 234.808 185.124 234.899 184.804 235.08C184.484 235.251 184.223 235.496 184.02 235.816C183.828 236.136 183.684 236.525 183.588 236.984C183.492 237.443 183.444 237.949 183.444 238.504V240.328C183.444 240.893 183.492 241.405 183.588 241.864C183.684 242.312 183.828 242.696 184.02 243.016C184.223 243.336 184.484 243.587 184.804 243.768C185.124 243.939 185.508 244.024 185.956 244.024ZM185.956 240.36C185.583 240.36 185.322 240.285 185.172 240.136C185.034 239.987 184.964 239.805 184.964 239.592V239.24C184.964 239.027 185.034 238.845 185.172 238.696C185.322 238.547 185.583 238.472 185.956 238.472C186.33 238.472 186.586 238.547 186.724 238.696C186.874 238.845 186.948 239.027 186.948 239.24V239.592C186.948 239.805 186.874 239.987 186.724 240.136C186.586 240.285 186.33 240.36 185.956 240.36ZM195.55 245.192C194.867 245.192 194.281 245.064 193.79 244.808C193.299 244.541 192.894 244.163 192.574 243.672C192.254 243.181 192.019 242.579 191.87 241.864C191.721 241.149 191.646 240.333 191.646 239.416C191.646 238.509 191.721 237.699 191.87 236.984C192.019 236.259 192.254 235.651 192.574 235.16C192.894 234.669 193.299 234.296 193.79 234.04C194.281 233.773 194.867 233.64 195.55 233.64C196.233 233.64 196.819 233.773 197.31 234.04C197.801 234.296 198.206 234.669 198.526 235.16C198.846 235.651 199.081 236.259 199.23 236.984C199.379 237.699 199.454 238.509 199.454 239.416C199.454 240.333 199.379 241.149 199.23 241.864C199.081 242.579 198.846 243.181 198.526 243.672C198.206 244.163 197.801 244.541 197.31 244.808C196.819 245.064 196.233 245.192 195.55 245.192ZM195.55 244.024C195.998 244.024 196.382 243.939 196.702 243.768C197.022 243.587 197.278 243.336 197.47 243.016C197.673 242.696 197.822 242.312 197.918 241.864C198.014 241.405 198.062 240.893 198.062 240.328V238.504C198.062 237.949 198.014 237.443 197.918 236.984C197.822 236.525 197.673 236.136 197.47 235.816C197.278 235.496 197.022 235.251 196.702 235.08C196.382 234.899 195.998 234.808 195.55 234.808C195.102 234.808 194.718 234.899 194.398 235.08C194.078 235.251 193.817 235.496 193.614 235.816C193.422 236.136 193.278 236.525 193.182 236.984C193.086 237.443 193.038 237.949 193.038 238.504V240.328C193.038 240.893 193.086 241.405 193.182 241.864C193.278 242.312 193.422 242.696 193.614 243.016C193.817 243.336 194.078 243.587 194.398 243.768C194.718 243.939 195.102 244.024 195.55 244.024ZM195.55 240.36C195.177 240.36 194.915 240.285 194.766 240.136C194.627 239.987 194.558 239.805 194.558 239.592V239.24C194.558 239.027 194.627 238.845 194.766 238.696C194.915 238.547 195.177 238.472 195.55 238.472C195.923 238.472 196.179 238.547 196.318 238.696C196.467 238.845 196.542 239.027 196.542 239.24V239.592C196.542 239.805 196.467 239.987 196.318 240.136C196.179 240.285 195.923 240.36 195.55 240.36ZM208.36 235H203.368L203.048 239.272H203.16C203.437 238.899 203.746 238.605 204.088 238.392C204.429 238.168 204.898 238.056 205.496 238.056C205.986 238.056 206.434 238.136 206.84 238.296C207.256 238.445 207.613 238.669 207.912 238.968C208.21 239.267 208.445 239.629 208.616 240.056C208.786 240.472 208.872 240.952 208.872 241.496C208.872 242.04 208.786 242.541 208.616 243C208.445 243.448 208.194 243.837 207.864 244.168C207.533 244.488 207.133 244.739 206.664 244.92C206.194 245.101 205.661 245.192 205.064 245.192C204.594 245.192 204.173 245.139 203.8 245.032C203.437 244.925 203.112 244.781 202.824 244.6C202.546 244.419 202.301 244.216 202.088 243.992C201.874 243.768 201.682 243.533 201.512 243.288L202.52 242.52C202.669 242.744 202.818 242.947 202.968 243.128C203.128 243.309 203.309 243.469 203.512 243.608C203.714 243.736 203.944 243.837 204.2 243.912C204.456 243.987 204.754 244.024 205.096 244.024C205.864 244.024 206.45 243.816 206.856 243.4C207.272 242.984 207.48 242.408 207.48 241.672V241.544C207.48 240.808 207.272 240.232 206.856 239.816C206.44 239.4 205.842 239.192 205.064 239.192C204.53 239.192 204.114 239.283 203.816 239.464C203.528 239.645 203.261 239.869 203.016 240.136L201.88 239.976L202.28 233.832H208.36V235ZM212.706 245L217.074 234.984H212.178V237.064H210.978V233.832H218.434V235.016L214.146 245H212.706ZM231.605 240.808V239.464H236.245V240.808H231.605ZM254.361 245V242.808H248.857V241.624L253.689 233.832H255.641V241.704H257.305V242.808H255.641V245H254.361ZM250.057 241.704H254.361V234.872H254.297L250.057 241.704ZM262.722 245.192C262.136 245.192 261.608 245.096 261.138 244.904C260.669 244.701 260.269 244.419 259.938 244.056C259.618 243.683 259.368 243.229 259.186 242.696C259.016 242.163 258.93 241.565 258.93 240.904C258.93 240.072 259.053 239.293 259.298 238.568C259.554 237.832 259.874 237.165 260.258 236.568C260.653 235.96 261.09 235.427 261.57 234.968C262.05 234.499 262.52 234.12 262.978 233.832H264.706C264.098 234.269 263.554 234.696 263.074 235.112C262.605 235.528 262.189 235.965 261.826 236.424C261.464 236.872 261.16 237.357 260.914 237.88C260.669 238.392 260.466 238.973 260.306 239.624L260.386 239.656C260.653 239.197 261.005 238.819 261.442 238.52C261.88 238.211 262.445 238.056 263.138 238.056C263.629 238.056 264.077 238.136 264.482 238.296C264.888 238.456 265.24 238.685 265.538 238.984C265.837 239.283 266.066 239.645 266.226 240.072C266.397 240.499 266.482 240.973 266.482 241.496C266.482 242.04 266.392 242.541 266.21 243C266.029 243.448 265.773 243.837 265.442 244.168C265.122 244.488 264.728 244.739 264.258 244.92C263.8 245.101 263.288 245.192 262.722 245.192ZM262.706 244.056C263.474 244.056 264.066 243.848 264.482 243.432C264.909 243.016 265.122 242.429 265.122 241.672V241.544C265.122 240.787 264.909 240.2 264.482 239.784C264.066 239.368 263.474 239.16 262.706 239.16C261.938 239.16 261.341 239.368 260.914 239.784C260.498 240.2 260.29 240.787 260.29 241.544V241.672C260.29 242.429 260.498 243.016 260.914 243.432C261.341 243.848 261.938 244.056 262.706 244.056ZM272.3 245.192C271.649 245.192 271.079 245.112 270.588 244.952C270.097 244.781 269.687 244.552 269.356 244.264C269.036 243.976 268.791 243.635 268.62 243.24C268.46 242.845 268.38 242.419 268.38 241.96C268.38 241.192 268.588 240.584 269.004 240.136C269.42 239.688 269.969 239.373 270.652 239.192V239.064C270.055 238.861 269.58 238.536 269.228 238.088C268.887 237.629 268.716 237.08 268.716 236.44C268.716 235.587 269.031 234.909 269.66 234.408C270.289 233.896 271.169 233.64 272.3 233.64C273.431 233.64 274.311 233.896 274.94 234.408C275.569 234.909 275.884 235.587 275.884 236.44C275.884 237.08 275.708 237.629 275.356 238.088C275.015 238.536 274.545 238.861 273.948 239.064V239.192C274.631 239.373 275.18 239.688 275.596 240.136C276.012 240.584 276.22 241.192 276.22 241.96C276.22 242.419 276.135 242.845 275.964 243.24C275.804 243.635 275.559 243.976 275.228 244.264C274.897 244.552 274.487 244.781 273.996 244.952C273.516 245.112 272.951 245.192 272.3 245.192ZM272.3 244.056C273.089 244.056 273.708 243.88 274.156 243.528C274.604 243.176 274.828 242.68 274.828 242.04V241.688C274.828 241.048 274.604 240.552 274.156 240.2C273.719 239.848 273.1 239.672 272.3 239.672C271.5 239.672 270.876 239.848 270.428 240.2C269.991 240.552 269.772 241.048 269.772 241.688V242.04C269.772 242.68 269.996 243.176 270.444 243.528C270.892 243.88 271.511 244.056 272.3 244.056ZM272.3 238.584C273.025 238.584 273.575 238.429 273.948 238.12C274.332 237.811 274.524 237.368 274.524 236.792V236.568C274.524 235.992 274.327 235.549 273.932 235.24C273.548 234.931 273.004 234.776 272.3 234.776C271.596 234.776 271.047 234.931 270.652 235.24C270.268 235.549 270.076 235.992 270.076 236.568V236.792C270.076 237.368 270.263 237.811 270.636 238.12C271.02 238.429 271.575 238.584 272.3 238.584ZM281.894 245.192C281.211 245.192 280.624 245.064 280.134 244.808C279.643 244.541 279.238 244.163 278.918 243.672C278.598 243.181 278.363 242.579 278.214 241.864C278.064 241.149 277.99 240.333 277.99 239.416C277.99 238.509 278.064 237.699 278.214 236.984C278.363 236.259 278.598 235.651 278.918 235.16C279.238 234.669 279.643 234.296 280.134 234.04C280.624 233.773 281.211 233.64 281.894 233.64C282.576 233.64 283.163 233.773 283.654 234.04C284.144 234.296 284.55 234.669 284.87 235.16C285.19 235.651 285.424 236.259 285.574 236.984C285.723 237.699 285.798 238.509 285.798 239.416C285.798 240.333 285.723 241.149 285.574 241.864C285.424 242.579 285.19 243.181 284.87 243.672C284.55 244.163 284.144 244.541 283.654 244.808C283.163 245.064 282.576 245.192 281.894 245.192ZM281.894 244.024C282.342 244.024 282.726 243.939 283.046 243.768C283.366 243.587 283.622 243.336 283.814 243.016C284.016 242.696 284.166 242.312 284.262 241.864C284.358 241.405 284.406 240.893 284.406 240.328V238.504C284.406 237.949 284.358 237.443 284.262 236.984C284.166 236.525 284.016 236.136 283.814 235.816C283.622 235.496 283.366 235.251 283.046 235.08C282.726 234.899 282.342 234.808 281.894 234.808C281.446 234.808 281.062 234.899 280.742 235.08C280.422 235.251 280.16 235.496 279.958 235.816C279.766 236.136 279.622 236.525 279.526 236.984C279.43 237.443 279.382 237.949 279.382 238.504V240.328C279.382 240.893 279.43 241.405 279.526 241.864C279.622 242.312 279.766 242.696 279.958 243.016C280.16 243.336 280.422 243.587 280.742 243.768C281.062 243.939 281.446 244.024 281.894 244.024ZM281.894 240.36C281.52 240.36 281.259 240.285 281.11 240.136C280.971 239.987 280.902 239.805 280.902 239.592V239.24C280.902 239.027 280.971 238.845 281.11 238.696C281.259 238.547 281.52 238.472 281.894 238.472C282.267 238.472 282.523 238.547 282.662 238.696C282.811 238.845 282.886 239.027 282.886 239.24V239.592C282.886 239.805 282.811 239.987 282.662 240.136C282.523 240.285 282.267 240.36 281.894 240.36ZM298.761 240.808V239.464H303.401V240.808H298.761ZM324.061 245H316.605V243.624L320.333 240.264C320.877 239.773 321.325 239.272 321.677 238.76C322.029 238.237 322.205 237.688 322.205 237.112V236.92C322.205 236.248 322.029 235.731 321.677 235.368C321.325 234.995 320.802 234.808 320.109 234.808C319.426 234.808 318.898 234.984 318.525 235.336C318.162 235.677 317.89 236.136 317.709 236.712L316.509 236.264C316.615 235.933 316.759 235.613 316.941 235.304C317.133 234.984 317.373 234.701 317.661 234.456C317.949 234.211 318.295 234.013 318.701 233.864C319.117 233.715 319.597 233.64 320.141 233.64C320.695 233.64 321.186 233.72 321.613 233.88C322.05 234.04 322.413 234.264 322.701 234.552C322.999 234.84 323.223 235.181 323.373 235.576C323.533 235.971 323.613 236.403 323.613 236.872C323.613 237.299 323.549 237.699 323.421 238.072C323.303 238.445 323.133 238.803 322.909 239.144C322.695 239.485 322.434 239.821 322.125 240.152C321.826 240.472 321.49 240.792 321.117 241.112L317.997 243.832H324.061V245ZM329.863 245.192C329.18 245.192 328.593 245.064 328.103 244.808C327.612 244.541 327.207 244.163 326.887 243.672C326.567 243.181 326.332 242.579 326.183 241.864C326.033 241.149 325.959 240.333 325.959 239.416C325.959 238.509 326.033 237.699 326.183 236.984C326.332 236.259 326.567 235.651 326.887 235.16C327.207 234.669 327.612 234.296 328.103 234.04C328.593 233.773 329.18 233.64 329.863 233.64C330.545 233.64 331.132 233.773 331.623 234.04C332.113 234.296 332.519 234.669 332.839 235.16C333.159 235.651 333.393 236.259 333.543 236.984C333.692 237.699 333.767 238.509 333.767 239.416C333.767 240.333 333.692 241.149 333.543 241.864C333.393 242.579 333.159 243.181 332.839 243.672C332.519 244.163 332.113 244.541 331.623 244.808C331.132 245.064 330.545 245.192 329.863 245.192ZM329.863 244.024C330.311 244.024 330.695 243.939 331.015 243.768C331.335 243.587 331.591 243.336 331.783 243.016C331.985 242.696 332.135 242.312 332.231 241.864C332.327 241.405 332.375 240.893 332.375 240.328V238.504C332.375 237.949 332.327 237.443 332.231 236.984C332.135 236.525 331.985 236.136 331.783 235.816C331.591 235.496 331.335 235.251 331.015 235.08C330.695 234.899 330.311 234.808 329.863 234.808C329.415 234.808 329.031 234.899 328.711 235.08C328.391 235.251 328.129 235.496 327.927 235.816C327.735 236.136 327.591 236.525 327.495 236.984C327.399 237.443 327.351 237.949 327.351 238.504V240.328C327.351 240.893 327.399 241.405 327.495 241.864C327.591 242.312 327.735 242.696 327.927 243.016C328.129 243.336 328.391 243.587 328.711 243.768C329.031 243.939 329.415 244.024 329.863 244.024ZM329.863 240.36C329.489 240.36 329.228 240.285 329.079 240.136C328.94 239.987 328.871 239.805 328.871 239.592V239.24C328.871 239.027 328.94 238.845 329.079 238.696C329.228 238.547 329.489 238.472 329.863 238.472C330.236 238.472 330.492 238.547 330.631 238.696C330.78 238.845 330.855 239.027 330.855 239.24V239.592C330.855 239.805 330.78 239.987 330.631 240.136C330.492 240.285 330.236 240.36 329.863 240.36ZM339.456 245.192C338.806 245.192 338.235 245.112 337.744 244.952C337.254 244.781 336.843 244.552 336.512 244.264C336.192 243.976 335.947 243.635 335.776 243.24C335.616 242.845 335.536 242.419 335.536 241.96C335.536 241.192 335.744 240.584 336.16 240.136C336.576 239.688 337.126 239.373 337.808 239.192V239.064C337.211 238.861 336.736 238.536 336.384 238.088C336.043 237.629 335.872 237.08 335.872 236.44C335.872 235.587 336.187 234.909 336.816 234.408C337.446 233.896 338.326 233.64 339.456 233.64C340.587 233.64 341.467 233.896 342.096 234.408C342.726 234.909 343.04 235.587 343.04 236.44C343.04 237.08 342.864 237.629 342.512 238.088C342.171 238.536 341.702 238.861 341.104 239.064V239.192C341.787 239.373 342.336 239.688 342.752 240.136C343.168 240.584 343.376 241.192 343.376 241.96C343.376 242.419 343.291 242.845 343.12 243.24C342.96 243.635 342.715 243.976 342.384 244.264C342.054 244.552 341.643 244.781 341.152 244.952C340.672 245.112 340.107 245.192 339.456 245.192ZM339.456 244.056C340.246 244.056 340.864 243.88 341.312 243.528C341.76 243.176 341.984 242.68 341.984 242.04V241.688C341.984 241.048 341.76 240.552 341.312 240.2C340.875 239.848 340.256 239.672 339.456 239.672C338.656 239.672 338.032 239.848 337.584 240.2C337.147 240.552 336.928 241.048 336.928 241.688V242.04C336.928 242.68 337.152 243.176 337.6 243.528C338.048 243.88 338.667 244.056 339.456 244.056ZM339.456 238.584C340.182 238.584 340.731 238.429 341.104 238.12C341.488 237.811 341.68 237.368 341.68 236.792V236.568C341.68 235.992 341.483 235.549 341.088 235.24C340.704 234.931 340.16 234.776 339.456 234.776C338.752 234.776 338.203 234.931 337.808 235.24C337.424 235.549 337.232 235.992 337.232 236.568V236.792C337.232 237.368 337.419 237.811 337.792 238.12C338.176 238.429 338.731 238.584 339.456 238.584ZM352.826 237.928C352.826 238.76 352.698 239.544 352.442 240.28C352.197 241.005 351.877 241.672 351.482 242.28C351.087 242.877 350.65 243.411 350.17 243.88C349.701 244.339 349.237 244.712 348.778 245H347.05C347.658 244.563 348.197 244.136 348.666 243.72C349.146 243.304 349.567 242.872 349.93 242.424C350.293 241.965 350.597 241.48 350.842 240.968C351.087 240.445 351.29 239.859 351.45 239.208L351.37 239.176C351.093 239.635 350.735 240.019 350.298 240.328C349.871 240.627 349.311 240.776 348.618 240.776C348.127 240.776 347.674 240.696 347.258 240.536C346.853 240.376 346.501 240.147 346.202 239.848C345.914 239.549 345.685 239.192 345.514 238.776C345.354 238.349 345.274 237.869 345.274 237.336C345.274 236.792 345.359 236.296 345.53 235.848C345.711 235.389 345.967 235 346.298 234.68C346.629 234.349 347.023 234.093 347.482 233.912C347.951 233.731 348.469 233.64 349.034 233.64C349.621 233.64 350.149 233.741 350.618 233.944C351.087 234.136 351.482 234.419 351.802 234.792C352.133 235.155 352.383 235.603 352.554 236.136C352.735 236.669 352.826 237.267 352.826 237.928ZM349.05 239.672C349.818 239.672 350.41 239.464 350.826 239.048C351.253 238.632 351.466 238.045 351.466 237.288V237.16C351.466 236.403 351.253 235.816 350.826 235.4C350.41 234.984 349.818 234.776 349.05 234.776C348.282 234.776 347.685 234.984 347.258 235.4C346.842 235.816 346.634 236.403 346.634 237.16V237.288C346.634 238.045 346.842 238.632 347.258 239.048C347.685 239.464 348.282 239.672 349.05 239.672Z" fill="white"/>
<path d="M115.44 221V209.832H122.32V211H116.784V214.76H122.128V215.928H116.784V219.832H122.32V221H115.44ZM124.458 221V212.744H125.642V213.704H125.706C125.834 213.384 126.015 213.112 126.25 212.888C126.484 212.664 126.831 212.552 127.29 212.552C127.77 212.552 128.127 212.675 128.362 212.92C128.596 213.155 128.74 213.464 128.794 213.848H128.842C128.991 213.475 129.204 213.165 129.482 212.92C129.759 212.675 130.143 212.552 130.634 212.552C131.306 212.552 131.754 212.787 131.978 213.256C132.212 213.725 132.33 214.397 132.33 215.272V221H131.146V215.48C131.146 214.776 131.071 214.291 130.922 214.024C130.783 213.747 130.522 213.608 130.138 213.608C129.796 213.608 129.519 213.72 129.306 213.944C129.092 214.157 128.986 214.488 128.986 214.936V221H127.802V215.48C127.802 214.776 127.727 214.291 127.578 214.024C127.439 213.747 127.183 213.608 126.81 213.608C126.468 213.608 126.186 213.72 125.962 213.944C125.748 214.157 125.642 214.488 125.642 214.936V221H124.458ZM138.5 210.92C138.126 210.92 137.865 210.845 137.716 210.696C137.566 210.536 137.492 210.339 137.492 210.104V209.848C137.492 209.613 137.566 209.421 137.716 209.272C137.865 209.112 138.126 209.032 138.5 209.032C138.873 209.032 139.134 209.112 139.284 209.272C139.433 209.421 139.508 209.613 139.508 209.848V210.104C139.508 210.339 139.433 210.536 139.284 210.696C139.134 210.845 138.873 210.92 138.5 210.92ZM134.884 219.912H137.86V213.832H134.884V212.744H139.14V219.912H141.924V221H134.884V219.912ZM143.261 212.744H144.397L145.341 219.88H145.485L146.893 212.744H148.301L149.709 219.88H149.853L150.797 212.744H151.901L150.637 221H148.973L147.661 214.088H147.533L146.189 221H144.525L143.261 212.744ZM160.295 221C159.794 221 159.436 220.872 159.223 220.616C159.01 220.36 158.876 220.04 158.823 219.656H158.743C158.562 220.136 158.268 220.515 157.863 220.792C157.468 221.059 156.935 221.192 156.263 221.192C155.399 221.192 154.711 220.968 154.199 220.52C153.687 220.072 153.431 219.459 153.431 218.68C153.431 217.912 153.708 217.32 154.263 216.904C154.828 216.488 155.735 216.28 156.983 216.28H158.743V215.464C158.743 214.856 158.572 214.403 158.231 214.104C157.89 213.795 157.404 213.64 156.775 213.64C156.22 213.64 155.767 213.752 155.415 213.976C155.063 214.189 154.78 214.483 154.567 214.856L153.703 214.216C153.81 214.003 153.954 213.795 154.135 213.592C154.316 213.389 154.54 213.213 154.807 213.064C155.074 212.904 155.378 212.781 155.719 212.696C156.06 212.6 156.439 212.552 156.855 212.552C157.826 212.552 158.594 212.797 159.159 213.288C159.735 213.779 160.023 214.461 160.023 215.336V219.88H161.175V221H160.295ZM156.487 220.12C156.818 220.12 157.116 220.083 157.383 220.008C157.66 219.923 157.9 219.816 158.103 219.688C158.306 219.549 158.46 219.389 158.567 219.208C158.684 219.016 158.743 218.813 158.743 218.6V217.24H156.983C156.215 217.24 155.655 217.347 155.303 217.56C154.951 217.773 154.775 218.083 154.775 218.488V218.824C154.775 219.251 154.924 219.576 155.223 219.8C155.532 220.013 155.954 220.12 156.487 220.12ZM169.441 212.744H170.721L166.625 222.808C166.529 223.043 166.422 223.245 166.305 223.416C166.187 223.597 166.049 223.741 165.889 223.848C165.729 223.965 165.537 224.051 165.313 224.104C165.089 224.168 164.822 224.2 164.513 224.2H163.297V223.112H165.217L166.145 220.84L162.817 212.744H164.129L165.521 216.2L166.753 219.336H166.817L168.049 216.2L169.441 212.744ZM182.564 209.832H186.356C187.316 209.832 188.068 210.093 188.612 210.616C189.156 211.139 189.428 211.837 189.428 212.712C189.428 213.384 189.263 213.912 188.932 214.296C188.612 214.68 188.196 214.952 187.684 215.112V215.16C188.314 215.309 188.831 215.592 189.236 216.008C189.642 216.413 189.844 217.005 189.844 217.784C189.844 218.232 189.77 218.653 189.62 219.048C189.471 219.443 189.258 219.784 188.98 220.072C188.714 220.36 188.394 220.589 188.02 220.76C187.658 220.92 187.263 221 186.836 221H182.564V209.832ZM186.436 219.832C187.055 219.832 187.54 219.693 187.892 219.416C188.244 219.139 188.42 218.712 188.42 218.136V217.48C188.42 216.915 188.244 216.493 187.892 216.216C187.54 215.928 187.055 215.784 186.436 215.784H183.908V219.832H186.436ZM186.212 214.68C186.778 214.68 187.22 214.557 187.54 214.312C187.86 214.056 188.02 213.672 188.02 213.16V212.536C188.02 212.024 187.86 211.64 187.54 211.384C187.22 211.128 186.778 211 186.212 211H183.908V214.68H186.212ZM198.67 221C198.169 221 197.811 220.872 197.598 220.616C197.385 220.36 197.251 220.04 197.198 219.656H197.118C196.937 220.136 196.643 220.515 196.238 220.792C195.843 221.059 195.31 221.192 194.638 221.192C193.774 221.192 193.086 220.968 192.574 220.52C192.062 220.072 191.806 219.459 191.806 218.68C191.806 217.912 192.083 217.32 192.638 216.904C193.203 216.488 194.11 216.28 195.358 216.28H197.118V215.464C197.118 214.856 196.947 214.403 196.606 214.104C196.265 213.795 195.779 213.64 195.15 213.64C194.595 213.64 194.142 213.752 193.79 213.976C193.438 214.189 193.155 214.483 192.942 214.856L192.078 214.216C192.185 214.003 192.329 213.795 192.51 213.592C192.691 213.389 192.915 213.213 193.182 213.064C193.449 212.904 193.753 212.781 194.094 212.696C194.435 212.6 194.814 212.552 195.23 212.552C196.201 212.552 196.969 212.797 197.534 213.288C198.11 213.779 198.398 214.461 198.398 215.336V219.88H199.55V221H198.67ZM194.862 220.12C195.193 220.12 195.491 220.083 195.758 220.008C196.035 219.923 196.275 219.816 196.478 219.688C196.681 219.549 196.835 219.389 196.942 219.208C197.059 219.016 197.118 218.813 197.118 218.6V217.24H195.358C194.59 217.24 194.03 217.347 193.678 217.56C193.326 217.773 193.15 218.083 193.15 218.488V218.824C193.15 219.251 193.299 219.576 193.598 219.8C193.907 220.013 194.329 220.12 194.862 220.12ZM201.912 221V212.744H203.192V214.088H203.256C203.341 213.885 203.448 213.693 203.576 213.512C203.704 213.32 203.858 213.155 204.04 213.016C204.232 212.877 204.456 212.765 204.712 212.68C204.968 212.595 205.266 212.552 205.608 212.552C206.472 212.552 207.165 212.829 207.688 213.384C208.21 213.928 208.472 214.701 208.472 215.704V221H207.192V215.928C207.192 215.171 207.026 214.611 206.696 214.248C206.365 213.875 205.88 213.688 205.24 213.688C204.984 213.688 204.733 213.72 204.488 213.784C204.242 213.848 204.024 213.944 203.832 214.072C203.64 214.2 203.485 214.365 203.368 214.568C203.25 214.771 203.192 215.005 203.192 215.272V221H201.912ZM215.138 221C214.508 221 214.044 220.824 213.746 220.472C213.458 220.12 213.314 219.667 213.314 219.112V213.832H210.562V212.744H212.61C212.887 212.744 213.079 212.691 213.186 212.584C213.303 212.467 213.362 212.269 213.362 211.992V209.832H214.594V212.744H218.354V213.832H214.594V219.912H218.354V221H215.138ZM227.451 221C226.95 221 226.593 220.872 226.379 220.616C226.166 220.36 226.033 220.04 225.979 219.656H225.899C225.718 220.136 225.425 220.515 225.019 220.792C224.625 221.059 224.091 221.192 223.419 221.192C222.555 221.192 221.867 220.968 221.355 220.52C220.843 220.072 220.587 219.459 220.587 218.68C220.587 217.912 220.865 217.32 221.419 216.904C221.985 216.488 222.891 216.28 224.139 216.28H225.899V215.464C225.899 214.856 225.729 214.403 225.387 214.104C225.046 213.795 224.561 213.64 223.931 213.64C223.377 213.64 222.923 213.752 222.571 213.976C222.219 214.189 221.937 214.483 221.723 214.856L220.859 214.216C220.966 214.003 221.11 213.795 221.291 213.592C221.473 213.389 221.697 213.213 221.963 213.064C222.23 212.904 222.534 212.781 222.875 212.696C223.217 212.6 223.595 212.552 224.011 212.552C224.982 212.552 225.75 212.797 226.315 213.288C226.891 213.779 227.179 214.461 227.179 215.336V219.88H228.331V221H227.451ZM223.643 220.12C223.974 220.12 224.273 220.083 224.539 220.008C224.817 219.923 225.057 219.816 225.259 219.688C225.462 219.549 225.617 219.389 225.723 219.208C225.841 219.016 225.899 218.813 225.899 218.6V217.24H224.139C223.371 217.24 222.811 217.347 222.459 217.56C222.107 217.773 221.931 218.083 221.931 218.488V218.824C221.931 219.251 222.081 219.576 222.379 219.8C222.689 220.013 223.11 220.12 223.643 220.12ZM234.437 210.92C234.064 210.92 233.802 210.845 233.653 210.696C233.504 210.536 233.429 210.339 233.429 210.104V209.848C233.429 209.613 233.504 209.421 233.653 209.272C233.802 209.112 234.064 209.032 234.437 209.032C234.81 209.032 235.072 209.112 235.221 209.272C235.37 209.421 235.445 209.613 235.445 209.848V210.104C235.445 210.339 235.37 210.536 235.221 210.696C235.072 210.845 234.81 210.92 234.437 210.92ZM230.821 219.912H233.797V213.832H230.821V212.744H235.077V219.912H237.861V221H230.821V219.912Z" fill="white"/>
<path opacity="0.9" d="M120.144 136.24C119.365 136.24 118.656 136.112 118.016 135.856C117.376 135.6 116.827 135.227 116.368 134.736C115.909 134.245 115.552 133.643 115.296 132.928C115.051 132.203 114.928 131.376 114.928 130.448C114.928 129.52 115.067 128.699 115.344 127.984C115.632 127.259 116.016 126.651 116.496 126.16C116.976 125.669 117.536 125.296 118.176 125.04C118.816 124.784 119.499 124.656 120.224 124.656C120.683 124.656 121.093 124.688 121.456 124.752C121.829 124.816 122.149 124.891 122.416 124.976C122.693 125.061 122.917 125.147 123.088 125.232C123.259 125.317 123.376 125.381 123.44 125.424L122.992 126.704C122.896 126.64 122.757 126.571 122.576 126.496C122.395 126.421 122.187 126.347 121.952 126.272C121.728 126.197 121.477 126.139 121.2 126.096C120.933 126.043 120.661 126.016 120.384 126.016C119.797 126.016 119.269 126.117 118.8 126.32C118.331 126.523 117.931 126.816 117.6 127.2C117.269 127.584 117.013 128.053 116.832 128.608C116.661 129.152 116.576 129.765 116.576 130.448C116.576 131.109 116.651 131.712 116.8 132.256C116.96 132.8 117.195 133.269 117.504 133.664C117.813 134.048 118.197 134.347 118.656 134.56C119.125 134.773 119.669 134.88 120.288 134.88C121.003 134.88 121.595 134.805 122.064 134.656C122.533 134.507 122.885 134.373 123.12 134.256L123.52 135.536C123.445 135.589 123.312 135.659 123.12 135.744C122.928 135.819 122.688 135.893 122.4 135.968C122.112 136.043 121.776 136.107 121.392 136.16C121.008 136.213 120.592 136.24 120.144 136.24ZM128.274 127.504C128.402 127.504 128.546 127.515 128.706 127.536C128.877 127.547 129.042 127.568 129.202 127.6C129.362 127.621 129.506 127.648 129.634 127.68C129.773 127.701 129.874 127.723 129.938 127.744L129.682 129.04C129.565 128.997 129.367 128.949 129.09 128.896C128.823 128.832 128.477 128.8 128.05 128.8C127.773 128.8 127.495 128.832 127.218 128.896C126.951 128.949 126.775 128.987 126.69 129.008V136H125.202V128.032C125.554 127.904 125.991 127.787 126.514 127.68C127.037 127.563 127.623 127.504 128.274 127.504ZM130.91 131.856C130.91 131.12 131.016 130.48 131.23 129.936C131.443 129.381 131.726 128.923 132.078 128.56C132.43 128.197 132.835 127.925 133.294 127.744C133.752 127.563 134.222 127.472 134.702 127.472C135.822 127.472 136.68 127.824 137.278 128.528C137.875 129.221 138.174 130.283 138.174 131.712C138.174 131.776 138.174 131.861 138.174 131.968C138.174 132.064 138.168 132.155 138.158 132.24H132.462C132.526 133.104 132.776 133.76 133.214 134.208C133.651 134.656 134.334 134.88 135.262 134.88C135.784 134.88 136.222 134.837 136.574 134.752C136.936 134.656 137.208 134.565 137.39 134.48L137.598 135.728C137.416 135.824 137.096 135.925 136.638 136.032C136.19 136.139 135.678 136.192 135.102 136.192C134.376 136.192 133.747 136.085 133.214 135.872C132.691 135.648 132.259 135.344 131.918 134.96C131.576 134.576 131.32 134.123 131.15 133.6C130.99 133.067 130.91 132.485 130.91 131.856ZM136.622 131.04C136.632 130.368 136.462 129.819 136.11 129.392C135.768 128.955 135.294 128.736 134.686 128.736C134.344 128.736 134.04 128.805 133.774 128.944C133.518 129.072 133.299 129.243 133.118 129.456C132.936 129.669 132.792 129.915 132.686 130.192C132.59 130.469 132.526 130.752 132.494 131.04H136.622ZM145.687 129.44C145.506 129.291 145.245 129.147 144.903 129.008C144.562 128.869 144.189 128.8 143.783 128.8C143.357 128.8 142.989 128.88 142.679 129.04C142.381 129.189 142.135 129.403 141.943 129.68C141.751 129.947 141.613 130.267 141.527 130.64C141.442 131.013 141.399 131.413 141.399 131.84C141.399 132.811 141.639 133.563 142.119 134.096C142.599 134.619 143.239 134.88 144.039 134.88C144.445 134.88 144.781 134.864 145.047 134.832C145.325 134.789 145.538 134.747 145.687 134.704V129.44ZM145.687 123.84L147.175 123.584V135.76C146.834 135.856 146.397 135.952 145.863 136.048C145.33 136.144 144.717 136.192 144.023 136.192C143.383 136.192 142.807 136.091 142.295 135.888C141.783 135.685 141.346 135.397 140.983 135.024C140.621 134.651 140.338 134.197 140.135 133.664C139.943 133.12 139.847 132.512 139.847 131.84C139.847 131.2 139.927 130.613 140.087 130.08C140.258 129.547 140.503 129.088 140.823 128.704C141.143 128.32 141.533 128.021 141.991 127.808C142.461 127.595 142.994 127.488 143.591 127.488C144.071 127.488 144.493 127.552 144.855 127.68C145.229 127.808 145.506 127.931 145.687 128.048V123.84ZM151.221 136H149.733V127.68H151.221V136ZM150.469 126.176C150.202 126.176 149.973 126.091 149.781 125.92C149.6 125.739 149.509 125.499 149.509 125.2C149.509 124.901 149.6 124.667 149.781 124.496C149.973 124.315 150.202 124.224 150.469 124.224C150.736 124.224 150.96 124.315 151.141 124.496C151.333 124.667 151.429 124.901 151.429 125.2C151.429 125.499 151.333 125.739 151.141 125.92C150.96 126.091 150.736 126.176 150.469 126.176ZM155.172 127.68H158.324V128.928H155.172V132.768C155.172 133.184 155.204 133.531 155.268 133.808C155.332 134.075 155.428 134.288 155.556 134.448C155.684 134.597 155.844 134.704 156.036 134.768C156.228 134.832 156.452 134.864 156.708 134.864C157.156 134.864 157.513 134.816 157.78 134.72C158.057 134.613 158.249 134.539 158.356 134.496L158.644 135.728C158.495 135.803 158.233 135.893 157.86 136C157.487 136.117 157.06 136.176 156.58 136.176C156.015 136.176 155.545 136.107 155.172 135.968C154.809 135.819 154.516 135.6 154.292 135.312C154.068 135.024 153.908 134.672 153.812 134.256C153.727 133.829 153.684 133.339 153.684 132.784V125.36L155.172 125.104V127.68Z" fill="white"/>
<circle cx="368" cy="137.941" r="15" fill="#EB001B"/>
<circle cx="386" cy="137.941" r="15" fill="#F79E1B"/>
<path fill-rule="evenodd" clip-rule="evenodd" d="M377 149.941C381.141 147.546 383.927 143.069 383.927 137.941C383.927 132.813 381.141 128.336 377 125.941C372.859 128.336 370.073 132.813 370.073 137.941C370.073 143.069 372.859 147.546 377 149.941Z" fill="#FF5F00"/>
<rect x="45" y="45" width="335" height="185" rx="20" fill="url(#paint1_linear_283_9032)"/>
<g filter="url(#filter1_b_283_9032)">
<rect x="45" y="45" width="335" height="185" rx="20" fill="white" fill-opacity="0.03"/>
</g>
<path fill-rule="evenodd" clip-rule="evenodd" d="M281.139 45H263.081L154.367 230H360C371.046 230 380 221.046 380 210V126.159L281.139 45Z" fill="white" fill-opacity="0.08"/>
<path fill-rule="evenodd" clip-rule="evenodd" d="M366.476 228.928C364.445 229.623 362.267 230 360 230H65C59.1359 230 53.8612 227.476 50.2029 223.455L150.957 52L366.476 228.928Z" fill="white" fill-opacity="0.08"/>
<path fill-rule="evenodd" clip-rule="evenodd" d="M204.041 230H65C53.9543 230 45 221.046 45 210V163.96L63.9575 115L204.041 230Z" fill="white" fill-opacity="0.08"/>
<path d="M73.816 200.192C73.2293 200.192 72.7013 200.096 72.232 199.904C71.7627 199.701 71.3627 199.419 71.032 199.056C70.712 198.683 70.4613 198.229 70.28 197.696C70.1093 197.163 70.024 196.565 70.024 195.904C70.024 195.072 70.1467 194.293 70.392 193.568C70.648 192.832 70.968 192.165 71.352 191.568C71.7467 190.96 72.184 190.427 72.664 189.968C73.144 189.499 73.6133 189.12 74.072 188.832H75.8C75.192 189.269 74.648 189.696 74.168 190.112C73.6987 190.528 73.2827 190.965 72.92 191.424C72.5573 191.872 72.2533 192.357 72.008 192.88C71.7627 193.392 71.56 193.973 71.4 194.624L71.48 194.656C71.7467 194.197 72.0987 193.819 72.536 193.52C72.9733 193.211 73.5387 193.056 74.232 193.056C74.7227 193.056 75.1707 193.136 75.576 193.296C75.9813 193.456 76.3333 193.685 76.632 193.984C76.9307 194.283 77.16 194.645 77.32 195.072C77.4907 195.499 77.576 195.973 77.576 196.496C77.576 197.04 77.4853 197.541 77.304 198C77.1227 198.448 76.8667 198.837 76.536 199.168C76.216 199.488 75.8213 199.739 75.352 199.92C74.8933 200.101 74.3813 200.192 73.816 200.192ZM73.8 199.056C74.568 199.056 75.16 198.848 75.576 198.432C76.0027 198.016 76.216 197.429 76.216 196.672V196.544C76.216 195.787 76.0027 195.2 75.576 194.784C75.16 194.368 74.568 194.16 73.8 194.16C73.032 194.16 72.4347 194.368 72.008 194.784C71.592 195.2 71.384 195.787 71.384 196.544V196.672C71.384 197.429 71.592 198.016 72.008 198.432C72.4347 198.848 73.032 199.056 73.8 199.056ZM83.3938 200.192C82.7111 200.192 82.1244 200.064 81.6338 199.808C81.1431 199.541 80.7378 199.163 80.4178 198.672C80.0978 198.181 79.8631 197.579 79.7138 196.864C79.5644 196.149 79.4898 195.333 79.4898 194.416C79.4898 193.509 79.5644 192.699 79.7138 191.984C79.8631 191.259 80.0978 190.651 80.4178 190.16C80.7378 189.669 81.1431 189.296 81.6338 189.04C82.1244 188.773 82.7111 188.64 83.3938 188.64C84.0764 188.64 84.6631 188.773 85.1538 189.04C85.6444 189.296 86.0498 189.669 86.3698 190.16C86.6898 190.651 86.9244 191.259 87.0738 191.984C87.2231 192.699 87.2978 193.509 87.2978 194.416C87.2978 195.333 87.2231 196.149 87.0738 196.864C86.9244 197.579 86.6898 198.181 86.3698 198.672C86.0498 199.163 85.6444 199.541 85.1538 199.808C84.6631 200.064 84.0764 200.192 83.3938 200.192ZM83.3938 199.024C83.8418 199.024 84.2258 198.939 84.5458 198.768C84.8658 198.587 85.1218 198.336 85.3138 198.016C85.5164 197.696 85.6658 197.312 85.7618 196.864C85.8578 196.405 85.9058 195.893 85.9058 195.328V193.504C85.9058 192.949 85.8578 192.443 85.7618 191.984C85.6658 191.525 85.5164 191.136 85.3138 190.816C85.1218 190.496 84.8658 190.251 84.5458 190.08C84.2258 189.899 83.8418 189.808 83.3938 189.808C82.9458 189.808 82.5618 189.899 82.2418 190.08C81.9218 190.251 81.6604 190.496 81.4578 190.816C81.2658 191.136 81.1218 191.525 81.0258 191.984C80.9298 192.443 80.8818 192.949 80.8818 193.504V195.328C80.8818 195.893 80.9298 196.405 81.0258 196.864C81.1218 197.312 81.2658 197.696 81.4578 198.016C81.6604 198.336 81.9218 198.587 82.2418 198.768C82.5618 198.939 82.9458 199.024 83.3938 199.024ZM83.3938 195.36C83.0204 195.36 82.7591 195.285 82.6098 195.136C82.4711 194.987 82.4018 194.805 82.4018 194.592V194.24C82.4018 194.027 82.4711 193.845 82.6098 193.696C82.7591 193.547 83.0204 193.472 83.3938 193.472C83.7671 193.472 84.0231 193.547 84.1618 193.696C84.3111 193.845 84.3858 194.027 84.3858 194.24V194.592C84.3858 194.805 84.3111 194.987 84.1618 195.136C84.0231 195.285 83.7671 195.36 83.3938 195.36ZM89.5475 200V198.832H92.7475V189.824H92.6355L89.8195 192.448L89.0355 191.6L91.9955 188.832H94.0915V198.832H97.0355V200H89.5475ZM99.1413 200V198.832H102.341V189.824H102.229L99.4133 192.448L98.6293 191.6L101.589 188.832H103.685V198.832H106.629V200H99.1413ZM119.449 195.808V194.464H124.089V195.808H119.449ZM137.516 200V198.832H140.716V189.824H140.604L137.788 192.448L137.004 191.6L139.964 188.832H142.06V198.832H145.004V200H137.516ZM147.11 200V198.832H150.31V189.824H150.198L147.382 192.448L146.598 191.6L149.558 188.832H151.654V198.832H154.598V200H147.11ZM156.704 200V198.832H159.904V189.824H159.792L156.976 192.448L156.192 191.6L159.152 188.832H161.248V198.832H164.192V200H156.704ZM166.298 200V198.832H169.498V189.824H169.386L166.57 192.448L165.786 191.6L168.746 188.832H170.842V198.832H173.786V200H166.298ZM186.605 195.808V194.464H191.245V195.808H186.605ZM204.673 200V198.832H207.873V189.824H207.761L204.945 192.448L204.161 191.6L207.121 188.832H209.217V198.832H212.161V200H204.673ZM214.266 200V198.832H217.466V189.824H217.354L214.538 192.448L213.754 191.6L216.714 188.832H218.81V198.832H221.754V200H214.266ZM223.86 200V198.832H227.06V189.824H226.948L224.132 192.448L223.348 191.6L226.308 188.832H228.404V198.832H231.348V200H223.86ZM233.454 200V198.832H236.654V189.824H236.542L233.726 192.448L232.942 191.6L235.902 188.832H237.998V198.832H240.942V200H233.454ZM253.761 195.808V194.464H258.401V195.808H253.761ZM271.829 200V198.832H275.029V189.824H274.917L272.101 192.448L271.317 191.6L274.277 188.832H276.373V198.832H279.317V200H271.829ZM281.423 200V198.832H284.623V189.824H284.511L281.695 192.448L280.911 191.6L283.871 188.832H285.967V198.832H288.911V200H281.423ZM291.016 200V198.832H294.216V189.824H294.104L291.288 192.448L290.504 191.6L293.464 188.832H295.56V198.832H298.504V200H291.016ZM302.018 200L306.386 189.984H301.49V192.064H300.29V188.832H307.746V190.016L303.458 200H302.018Z" fill="white"/>
<path d="M76.68 164.832V173.104C76.68 173.573 76.6 174 76.44 174.384C76.28 174.768 76.0507 175.093 75.752 175.36C75.464 175.627 75.1173 175.835 74.712 175.984C74.3067 176.123 73.864 176.192 73.384 176.192C72.5307 176.192 71.8267 175.973 71.272 175.536C70.7173 175.088 70.3547 174.464 70.184 173.664L71.464 173.392C71.5173 173.616 71.5867 173.829 71.672 174.032C71.768 174.224 71.8907 174.395 72.04 174.544C72.2 174.683 72.392 174.795 72.616 174.88C72.84 174.965 73.1067 175.008 73.416 175.008C74.024 175.008 74.4933 174.837 74.824 174.496C75.1653 174.144 75.336 173.6 75.336 172.864V166H71.304V164.832H76.68ZM89.5955 164.832H93.3875C94.3475 164.832 95.0995 165.093 95.6435 165.616C96.1875 166.139 96.4595 166.837 96.4595 167.712C96.4595 168.384 96.2942 168.912 95.9635 169.296C95.6435 169.68 95.2275 169.952 94.7155 170.112V170.16C95.3448 170.309 95.8622 170.592 96.2675 171.008C96.6728 171.413 96.8755 172.005 96.8755 172.784C96.8755 173.232 96.8008 173.653 96.6515 174.048C96.5022 174.443 96.2888 174.784 96.0115 175.072C95.7448 175.36 95.4248 175.589 95.0515 175.76C94.6888 175.92 94.2942 176 93.8675 176H89.5955V164.832ZM93.4675 174.832C94.0862 174.832 94.5715 174.693 94.9235 174.416C95.2755 174.139 95.4515 173.712 95.4515 173.136V172.48C95.4515 171.915 95.2755 171.493 94.9235 171.216C94.5715 170.928 94.0862 170.784 93.4675 170.784H90.9395V174.832H93.4675ZM93.2435 169.68C93.8088 169.68 94.2515 169.557 94.5715 169.312C94.8915 169.056 95.0515 168.672 95.0515 168.16V167.536C95.0515 167.024 94.8915 166.64 94.5715 166.384C94.2515 166.128 93.8088 166 93.2435 166H90.9395V169.68H93.2435ZM105.701 176C105.2 176 104.843 175.872 104.629 175.616C104.416 175.36 104.283 175.04 104.229 174.656H104.149C103.968 175.136 103.675 175.515 103.269 175.792C102.875 176.059 102.341 176.192 101.669 176.192C100.805 176.192 100.117 175.968 99.6053 175.52C99.0933 175.072 98.8372 174.459 98.8372 173.68C98.8372 172.912 99.1146 172.32 99.6693 171.904C100.235 171.488 101.141 171.28 102.389 171.28H104.149V170.464C104.149 169.856 103.979 169.403 103.637 169.104C103.296 168.795 102.811 168.64 102.181 168.64C101.627 168.64 101.173 168.752 100.821 168.976C100.469 169.189 100.187 169.483 99.9733 169.856L99.1093 169.216C99.2159 169.003 99.3599 168.795 99.5413 168.592C99.7226 168.389 99.9466 168.213 100.213 168.064C100.48 167.904 100.784 167.781 101.125 167.696C101.467 167.6 101.845 167.552 102.261 167.552C103.232 167.552 104 167.797 104.565 168.288C105.141 168.779 105.429 169.461 105.429 170.336V174.88H106.581V176H105.701ZM101.893 175.12C102.224 175.12 102.523 175.083 102.789 175.008C103.067 174.923 103.307 174.816 103.509 174.688C103.712 174.549 103.867 174.389 103.973 174.208C104.091 174.016 104.149 173.813 104.149 173.6V172.24H102.389C101.621 172.24 101.061 172.347 100.709 172.56C100.357 172.773 100.181 173.083 100.181 173.488V173.824C100.181 174.251 100.331 174.576 100.629 174.8C100.939 175.013 101.36 175.12 101.893 175.12ZM108.655 174.912H111.535V165.248H108.655V164.16H112.815V174.912H115.695V176H108.655V174.912ZM120.953 176L117.993 167.744H119.289L120.473 171.2L121.753 174.928H121.817L123.097 171.2L124.281 167.744H125.545L122.585 176H120.953ZM131.875 165.92C131.501 165.92 131.24 165.845 131.091 165.696C130.941 165.536 130.867 165.339 130.867 165.104V164.848C130.867 164.613 130.941 164.421 131.091 164.272C131.24 164.112 131.501 164.032 131.875 164.032C132.248 164.032 132.509 164.112 132.659 164.272C132.808 164.421 132.883 164.613 132.883 164.848V165.104C132.883 165.339 132.808 165.536 132.659 165.696C132.509 165.845 132.248 165.92 131.875 165.92ZM128.259 174.912H131.235V168.832H128.259V167.744H132.515V174.912H135.299V176H128.259V174.912ZM137.724 176V167.744H139.004V169.088H139.068C139.154 168.885 139.26 168.693 139.388 168.512C139.516 168.32 139.671 168.155 139.852 168.016C140.044 167.877 140.268 167.765 140.524 167.68C140.78 167.595 141.079 167.552 141.42 167.552C142.284 167.552 142.978 167.829 143.5 168.384C144.023 168.928 144.284 169.701 144.284 170.704V176H143.004V170.928C143.004 170.171 142.839 169.611 142.508 169.248C142.178 168.875 141.692 168.688 141.052 168.688C140.796 168.688 140.546 168.72 140.3 168.784C140.055 168.848 139.836 168.944 139.644 169.072C139.452 169.2 139.298 169.365 139.18 169.568C139.063 169.771 139.004 170.005 139.004 170.272V176H137.724Z" fill="white"/>
<path opacity="0.9" d="M75.144 91.24C74.3653 91.24 73.656 91.112 73.016 90.856C72.376 90.6 71.8267 90.2267 71.368 89.736C70.9093 89.2453 70.552 88.6427 70.296 87.928C70.0507 87.2027 69.928 86.376 69.928 85.448C69.928 84.52 70.0667 83.6987 70.344 82.984C70.632 82.2587 71.016 81.6507 71.496 81.16C71.976 80.6693 72.536 80.296 73.176 80.04C73.816 79.784 74.4987 79.656 75.224 79.656C75.6827 79.656 76.0933 79.688 76.456 79.752C76.8293 79.816 77.1493 79.8907 77.416 79.976C77.6933 80.0613 77.9173 80.1467 78.088 80.232C78.2587 80.3173 78.376 80.3813 78.44 80.424L77.992 81.704C77.896 81.64 77.7573 81.5707 77.576 81.496C77.3947 81.4213 77.1867 81.3467 76.952 81.272C76.728 81.1973 76.4773 81.1387 76.2 81.096C75.9333 81.0427 75.6613 81.016 75.384 81.016C74.7973 81.016 74.2693 81.1173 73.8 81.32C73.3307 81.5227 72.9307 81.816 72.6 82.2C72.2693 82.584 72.0133 83.0533 71.832 83.608C71.6613 84.152 71.576 84.7653 71.576 85.448C71.576 86.1093 71.6507 86.712 71.8 87.256C71.96 87.8 72.1947 88.2693 72.504 88.664C72.8133 89.048 73.1973 89.3467 73.656 89.56C74.1253 89.7733 74.6693 89.88 75.288 89.88C76.0027 89.88 76.5947 89.8053 77.064 89.656C77.5333 89.5067 77.8853 89.3733 78.12 89.256L78.52 90.536C78.4453 90.5893 78.312 90.6587 78.12 90.744C77.928 90.8187 77.688 90.8933 77.4 90.968C77.112 91.0427 76.776 91.1067 76.392 91.16C76.008 91.2133 75.592 91.24 75.144 91.24ZM83.2739 82.504C83.4019 82.504 83.5459 82.5147 83.7059 82.536C83.8765 82.5467 84.0419 82.568 84.2019 82.6C84.3619 82.6213 84.5059 82.648 84.6339 82.68C84.7725 82.7013 84.8739 82.7227 84.9379 82.744L84.6819 84.04C84.5645 83.9973 84.3672 83.9493 84.0899 83.896C83.8232 83.832 83.4765 83.8 83.0499 83.8C82.7725 83.8 82.4952 83.832 82.2179 83.896C81.9512 83.9493 81.7752 83.9867 81.6899 84.008V91H80.2019V83.032C80.5539 82.904 80.9912 82.7867 81.5139 82.68C82.0365 82.5627 82.6232 82.504 83.2739 82.504ZM85.9098 86.856C85.9098 86.12 86.0164 85.48 86.2298 84.936C86.4431 84.3813 86.7258 83.9227 87.0778 83.56C87.4298 83.1973 87.8351 82.9253 88.2938 82.744C88.7524 82.5627 89.2218 82.472 89.7018 82.472C90.8218 82.472 91.6804 82.824 92.2778 83.528C92.8751 84.2213 93.1737 85.2827 93.1737 86.712C93.1737 86.776 93.1737 86.8613 93.1737 86.968C93.1737 87.064 93.1684 87.1547 93.1578 87.24H87.4618C87.5258 88.104 87.7764 88.76 88.2138 89.208C88.6511 89.656 89.3338 89.88 90.2618 89.88C90.7844 89.88 91.2218 89.8373 91.5738 89.752C91.9364 89.656 92.2084 89.5653 92.3898 89.48L92.5978 90.728C92.4164 90.824 92.0964 90.9253 91.6378 91.032C91.1898 91.1387 90.6778 91.192 90.1018 91.192C89.3764 91.192 88.7471 91.0853 88.2138 90.872C87.6911 90.648 87.2591 90.344 86.9178 89.96C86.5764 89.576 86.3204 89.1227 86.1497 88.6C85.9898 88.0667 85.9098 87.4853 85.9098 86.856ZM91.6218 86.04C91.6324 85.368 91.4618 84.8187 91.1098 84.392C90.7684 83.9547 90.2938 83.736 89.6858 83.736C89.3444 83.736 89.0404 83.8053 88.7738 83.944C88.5178 84.072 88.2991 84.2427 88.1178 84.456C87.9364 84.6693 87.7924 84.9147 87.6858 85.192C87.5898 85.4693 87.5258 85.752 87.4938 86.04H91.6218ZM100.687 84.44C100.506 84.2907 100.245 84.1467 99.9033 84.008C99.5619 83.8693 99.1886 83.8 98.7833 83.8C98.3566 83.8 97.9886 83.88 97.6793 84.04C97.3806 84.1893 97.1353 84.4027 96.9433 84.68C96.7513 84.9467 96.6126 85.2667 96.5273 85.64C96.4419 86.0133 96.3993 86.4133 96.3993 86.84C96.3993 87.8107 96.6393 88.5627 97.1193 89.096C97.5993 89.6187 98.2393 89.88 99.0393 89.88C99.4446 89.88 99.7806 89.864 100.047 89.832C100.325 89.7893 100.538 89.7467 100.687 89.704V84.44ZM100.687 78.84L102.175 78.584V90.76C101.834 90.856 101.397 90.952 100.863 91.048C100.33 91.144 99.7166 91.192 99.0233 91.192C98.3833 91.192 97.8073 91.0907 97.2953 90.888C96.7833 90.6853 96.3459 90.3973 95.9833 90.024C95.6206 89.6507 95.3379 89.1973 95.1353 88.664C94.9433 88.12 94.8473 87.512 94.8473 86.84C94.8473 86.2 94.9273 85.6133 95.0872 85.08C95.2579 84.5467 95.5033 84.088 95.8233 83.704C96.1433 83.32 96.5326 83.0213 96.9913 82.808C97.4606 82.5947 97.9939 82.488 98.5913 82.488C99.0713 82.488 99.4926 82.552 99.8553 82.68C100.229 82.808 100.506 82.9307 100.687 83.048V78.84ZM106.221 91H104.733V82.68H106.221V91ZM105.469 81.176C105.202 81.176 104.973 81.0907 104.781 80.92C104.6 80.7387 104.509 80.4987 104.509 80.2C104.509 79.9013 104.6 79.6667 104.781 79.496C104.973 79.3147 105.202 79.224 105.469 79.224C105.736 79.224 105.96 79.3147 106.141 79.496C106.333 79.6667 106.429 79.9013 106.429 80.2C106.429 80.4987 106.333 80.7387 106.141 80.92C105.96 81.0907 105.736 81.176 105.469 81.176ZM110.172 82.68H113.324V83.928H110.172V87.768C110.172 88.184 110.204 88.5307 110.268 88.808C110.332 89.0747 110.428 89.288 110.556 89.448C110.684 89.5973 110.844 89.704 111.036 89.768C111.228 89.832 111.452 89.864 111.708 89.864C112.156 89.864 112.513 89.816 112.78 89.72C113.057 89.6133 113.249 89.5387 113.356 89.496L113.644 90.728C113.495 90.8027 113.233 90.8933 112.86 91C112.487 91.1173 112.06 91.176 111.58 91.176C111.015 91.176 110.545 91.1067 110.172 90.968C109.809 90.8187 109.516 90.6 109.292 90.312C109.068 90.024 108.908 89.672 108.812 89.256C108.727 88.8293 108.684 88.3387 108.684 87.784V80.36L110.172 80.104V82.68Z" fill="white"/>
<g clip-path="url(#clip0_283_9032)">
<path d="M331.272 83.4999C331.272 84.55 330.961 85.5765 330.378 86.4497C329.795 87.3229 328.966 88.0035 327.996 88.4056C327.025 88.8077 325.958 88.9131 324.928 88.7087C323.898 88.5042 322.952 87.9989 322.209 87.2568C321.466 86.5147 320.96 85.5689 320.754 84.5392C320.549 83.5094 320.653 82.4418 321.054 81.4714C321.456 80.501 322.135 79.6712 323.008 79.0871C323.881 78.5029 324.907 78.1906 325.957 78.1896H325.962C328.897 78.1896 331.272 80.5678 331.272 83.4999ZM317.622 78.2473C314.672 78.2473 312.307 80.5678 312.307 83.4711C312.307 86.4058 314.612 88.6791 317.575 88.6791C318.413 88.6791 319.132 88.5137 320.016 88.0989V85.8073C319.239 86.5869 318.549 86.8993 317.667 86.8993C315.706 86.8993 314.315 85.4766 314.315 83.4553C314.315 81.5391 315.751 80.0271 317.578 80.0271C318.507 80.0271 319.211 80.3578 320.019 81.1506V78.859C319.284 78.4569 318.46 78.2465 317.622 78.2473V78.2473ZM308.823 82.3029C307.655 81.8698 307.312 81.5863 307.312 81.0456C307.312 80.4182 307.923 79.9378 308.763 79.9378C309.346 79.9378 309.826 80.1767 310.333 80.7463L311.351 79.4128C310.545 78.6938 309.5 78.2991 308.419 78.3051C306.653 78.3051 305.306 79.5309 305.306 81.1637C305.306 82.5392 305.933 83.2427 307.763 83.9016C308.527 84.1719 308.913 84.3504 309.11 84.4712C309.288 84.578 309.436 84.7296 309.538 84.911C309.64 85.0924 309.694 85.2973 309.692 85.5054C309.692 86.3139 309.049 86.9124 308.18 86.9124C307.251 86.9124 306.503 86.4478 306.057 85.5816L304.799 86.7917C305.697 88.1094 306.773 88.6922 308.256 88.6922C310.28 88.6922 311.698 87.3456 311.698 85.4136C311.693 83.8307 311.036 83.1141 308.823 82.3029V82.3029ZM356 79.0374C356.001 79.2389 355.922 79.4324 355.78 79.5756C355.638 79.7188 355.445 79.7999 355.244 79.8013C355.144 79.8017 355.044 79.7822 354.951 79.7439C354.858 79.7056 354.774 79.6494 354.703 79.5784C354.632 79.5074 354.576 79.423 354.538 79.3302C354.499 79.2373 354.48 79.1379 354.48 79.0374V79.0296C354.475 78.926 354.49 78.8224 354.526 78.7251C354.562 78.6278 354.618 78.5389 354.689 78.4638C354.761 78.3887 354.847 78.3291 354.942 78.2885C355.038 78.2479 355.141 78.2272 355.244 78.2278C355.348 78.2283 355.45 78.25 355.545 78.2916C355.641 78.3332 355.726 78.3937 355.797 78.4696C355.868 78.5454 355.922 78.6349 355.957 78.7325C355.992 78.8302 356.007 78.9339 356 79.0374V79.0374ZM355.845 79.0401C355.847 78.9591 355.832 78.8786 355.802 78.8032C355.772 78.7278 355.728 78.659 355.672 78.6008C355.616 78.5425 355.548 78.4959 355.474 78.4637C355.4 78.4314 355.32 78.4141 355.239 78.4127C355.157 78.4134 355.077 78.4302 355.002 78.4622C354.927 78.4942 354.86 78.5407 354.803 78.5991C354.746 78.6575 354.702 78.7265 354.672 78.8022C354.642 78.8779 354.628 78.9588 354.63 79.0401C354.63 79.3866 354.903 79.6674 355.239 79.6674C355.32 79.6661 355.4 79.6488 355.474 79.6165C355.548 79.5842 355.616 79.5376 355.672 79.4794C355.728 79.4211 355.772 79.3523 355.802 79.277C355.832 79.2016 355.847 79.1211 355.845 79.0401V79.0401ZM302.114 88.4533H304.062V78.4704H302.114V88.4533V88.4533ZM335.457 85.1773L332.795 78.4731H330.669L334.905 88.7106H335.953L340.266 78.4731H338.155L335.457 85.1773V85.1773ZM341.143 88.4533H346.666V86.7628H343.09V84.0669H346.534V82.3764H343.09V80.1609H346.666V78.4704H341.143V88.4533ZM355.341 79.1162L355.63 79.4785H355.375L355.128 79.1372V79.4785H354.918V78.6017H355.199C355.412 78.6017 355.53 78.6962 355.53 78.8721C355.533 78.9928 355.465 79.0821 355.341 79.1162ZM355.325 78.8747C355.325 78.7986 355.27 78.7618 355.168 78.7618H355.131V78.9902H355.168C355.27 78.9902 355.325 78.9534 355.325 78.8747ZM352.102 84.2481L355.244 88.4533H352.85L350.154 84.4423H349.9V88.4533H347.954V78.4704H350.842C353.086 78.4704 354.375 79.5493 354.375 81.4183C354.375 82.9487 353.567 83.9514 352.102 84.2481V84.2481ZM352.372 81.5233C352.372 80.5521 351.713 80.0454 350.501 80.0454H349.902V83.0694H350.472C351.713 83.0668 352.372 82.5261 352.372 81.5233V81.5233ZM301.219 83.4711C301.215 84.2034 301.051 84.926 300.738 85.5882C300.425 86.2503 299.971 86.8358 299.408 87.3036C298.449 88.0989 297.357 88.4559 295.845 88.4559H293.003V78.4731H295.861C299.016 78.4731 301.219 80.5232 301.219 83.4711ZM299.213 83.4553C299.213 82.4998 298.809 81.5706 298.134 80.9694C297.491 80.3867 296.727 80.1609 295.47 80.1609H294.948V86.7628H295.47C296.727 86.7628 297.523 86.5213 298.134 85.9701C298.806 85.3716 299.213 84.4134 299.213 83.4553V83.4553Z" fill="white"/>
</g>
<rect width="335" height="185" rx="20" fill="url(#paint2_linear_283_9032)"/>
<g filter="url(#filter2_b_283_9032)">
<rect width="335" height="185" rx="20" fill="white" fill-opacity="0.03"/>
</g>
<path fill-rule="evenodd" clip-rule="evenodd" d="M133.862 57.8437C147.776 90.2916 161.144 121.467 222.558 119.792C278.911 118.255 314.654 123.935 335 133.758V165C335 176.046 326.046 185 315 185H20C8.95431 185 0 176.046 0 165V20C0 8.9543 8.95431 0 20 0H89.7935C114.777 13.3373 124.444 35.8821 133.862 57.8437Z" fill="white" fill-opacity="0.08"/>
<path fill-rule="evenodd" clip-rule="evenodd" d="M17.1863 0.196326C7.47288 1.56396 0 9.90926 0 20V165C0 176.046 8.95431 185 20 185H315C322.656 185 329.308 180.698 332.669 174.379C340.614 146.551 310.583 123.134 205.5 126C146.857 127.599 134.092 97.8309 120.806 66.847C106.437 33.3395 91.4595 -1.58956 17.1863 0.196326Z" fill="white" fill-opacity="0.08"/>
<path d="M30.048 155V152.808H24.544V151.624L29.376 143.832H31.328V151.704H32.992V152.808H31.328V155H30.048ZM25.744 151.704H30.048V144.872H29.984L25.744 151.704ZM34.9538 155V153.832H38.1538V144.824H38.0418L35.2258 147.448L34.4418 146.6L37.4018 143.832H39.4978V153.832H42.4418V155H34.9538ZM44.5475 155V153.832H47.7475V144.824H47.6355L44.8195 147.448L44.0355 146.6L46.9955 143.832H49.0915V153.832H52.0355V155H44.5475ZM54.1413 155V153.832H57.3413V144.824H57.2293L54.4133 147.448L53.6293 146.6L56.5893 143.832H58.6853V153.832H61.6293V155H54.1413ZM74.4488 150.808V149.464H79.0888V150.808H74.4488ZM92.5163 155V153.832H95.7163V144.824H95.6043L92.7883 147.448L92.0043 146.6L94.9643 143.832H97.0603V153.832H100.004V155H92.5163ZM102.11 155V153.832H105.31V144.824H105.198L102.382 147.448L101.598 146.6L104.558 143.832H106.654V153.832H109.598V155H102.11ZM111.704 155V153.832H114.904V144.824H114.792L111.976 147.448L111.192 146.6L114.152 143.832H116.248V153.832H119.192V155H111.704ZM121.298 155V153.832H124.498V144.824H124.386L121.57 147.448L120.786 146.6L123.746 143.832H125.842V153.832H128.786V155H121.298ZM141.605 150.808V149.464H146.245V150.808H141.605ZM159.673 155V153.832H162.873V144.824H162.761L159.945 147.448L159.161 146.6L162.121 143.832H164.217V153.832H167.161V155H159.673ZM169.266 155V153.832H172.466V144.824H172.354L169.538 147.448L168.754 146.6L171.714 143.832H173.81V153.832H176.754V155H169.266ZM178.86 155V153.832H182.06V144.824H181.948L179.132 147.448L178.348 146.6L181.308 143.832H183.404V153.832H186.348V155H178.86ZM188.454 155V153.832H191.654V144.824H191.542L188.726 147.448L187.942 146.6L190.902 143.832H192.998V153.832H195.942V155H188.454ZM208.761 150.808V149.464H213.401V150.808H208.761ZM226.829 155V153.832H230.029V144.824H229.917L227.101 147.448L226.317 146.6L229.277 143.832H231.373V153.832H234.317V155H226.829ZM236.423 155V153.832H239.623V144.824H239.511L236.695 147.448L235.911 146.6L238.871 143.832H240.967V153.832H243.911V155H236.423ZM246.016 155V153.832H249.216V144.824H249.104L246.288 147.448L245.504 146.6L248.464 143.832H250.56V153.832H253.504V155H246.016ZM255.61 155V153.832H258.81V144.824H258.698L255.882 147.448L255.098 146.6L258.058 143.832H260.154V153.832H263.098V155H255.61Z" fill="white"/>
<path d="M25.44 131V119.832H32.32V121H26.784V124.76H32.128V125.928H26.784V129.832H32.32V131H25.44ZM40.3938 129.656H40.3298C39.7964 130.68 38.9484 131.192 37.7858 131.192C36.7724 131.192 35.9778 130.813 35.4018 130.056C34.8364 129.299 34.5538 128.237 34.5538 126.872C34.5538 125.507 34.8364 124.445 35.4018 123.688C35.9778 122.931 36.7724 122.552 37.7858 122.552C38.9484 122.552 39.7964 123.064 40.3298 124.088H40.3938V119.16H41.6737V131H40.3938V129.656ZM38.2818 130.056C38.5698 130.056 38.8418 130.019 39.0978 129.944C39.3538 129.869 39.5778 129.763 39.7698 129.624C39.9618 129.475 40.1111 129.299 40.2178 129.096C40.3351 128.883 40.3938 128.637 40.3938 128.36V125.384C40.3938 125.107 40.3351 124.867 40.2178 124.664C40.1111 124.451 39.9618 124.275 39.7698 124.136C39.5778 123.987 39.3538 123.875 39.0978 123.8C38.8418 123.725 38.5698 123.688 38.2818 123.688C37.5351 123.688 36.9538 123.917 36.5378 124.376C36.1324 124.824 35.9298 125.421 35.9298 126.168V127.576C35.9298 128.323 36.1324 128.925 36.5378 129.384C36.9538 129.832 37.5351 130.056 38.2818 130.056ZM57.5493 131.192C56.5466 131.192 55.7253 131.011 55.0853 130.648C54.4453 130.275 53.9173 129.8 53.5013 129.224L54.4773 128.424C54.9146 128.968 55.3733 129.373 55.8533 129.64C56.3439 129.907 56.9253 130.04 57.5973 130.04C58.4079 130.04 59.0266 129.853 59.4533 129.48C59.8799 129.107 60.0933 128.584 60.0933 127.912C60.0933 127.368 59.9386 126.947 59.6293 126.648C59.3199 126.339 58.7813 126.12 58.0133 125.992L56.7653 125.784C56.2213 125.688 55.7626 125.544 55.3893 125.352C55.0266 125.16 54.7333 124.931 54.5093 124.664C54.2853 124.387 54.1253 124.088 54.0293 123.768C53.9333 123.437 53.8853 123.096 53.8853 122.744C53.8853 121.72 54.2213 120.947 54.8932 120.424C55.5653 119.901 56.4719 119.64 57.6133 119.64C58.5093 119.64 59.2613 119.789 59.8693 120.088C60.4879 120.387 60.9839 120.808 61.3573 121.352L60.4133 122.168C60.1039 121.763 59.7306 121.432 59.2933 121.176C58.8559 120.92 58.2906 120.792 57.5973 120.792C56.8399 120.792 56.2586 120.952 55.8533 121.272C55.4479 121.592 55.2453 122.072 55.2453 122.712C55.2453 123.213 55.3946 123.624 55.6933 123.944C56.0026 124.253 56.5519 124.477 57.3413 124.616L58.5413 124.824C59.0853 124.92 59.5439 125.064 59.9173 125.256C60.2906 125.448 60.5893 125.677 60.8133 125.944C61.0479 126.211 61.2133 126.509 61.3093 126.84C61.4053 127.171 61.4533 127.517 61.4533 127.88C61.4533 128.915 61.1119 129.725 60.4293 130.312C59.7573 130.899 58.7973 131.192 57.5493 131.192ZM63.943 119.16H65.223V124.088H65.287C65.3723 123.885 65.479 123.693 65.607 123.512C65.735 123.32 65.8897 123.155 66.071 123.016C66.263 122.877 66.487 122.765 66.743 122.68C66.999 122.595 67.2977 122.552 67.639 122.552C68.503 122.552 69.1963 122.829 69.719 123.384C70.2417 123.928 70.503 124.701 70.503 125.704V131H69.223V125.928C69.223 125.171 69.0577 124.611 68.727 124.248C68.3963 123.875 67.911 123.688 67.271 123.688C67.015 123.688 66.7643 123.72 66.519 123.784C66.2737 123.848 66.055 123.944 65.863 124.072C65.671 124.2 65.5163 124.365 65.399 124.568C65.2817 124.771 65.223 125.005 65.223 125.272V131H63.943V119.16ZM76.9128 131.192C76.3154 131.192 75.7768 131.091 75.2968 130.888C74.8274 130.685 74.4221 130.397 74.0807 130.024C73.7501 129.64 73.4941 129.187 73.3128 128.664C73.1314 128.131 73.0408 127.539 73.0408 126.888C73.0408 126.227 73.1314 125.629 73.3128 125.096C73.5048 124.563 73.7661 124.109 74.0968 123.736C74.4274 123.352 74.8221 123.059 75.2808 122.856C75.7501 122.653 76.2674 122.552 76.8328 122.552C77.3874 122.552 77.8888 122.653 78.3368 122.856C78.7954 123.059 79.1848 123.341 79.5048 123.704C79.8248 124.056 80.0701 124.477 80.2408 124.968C80.4114 125.459 80.4968 125.997 80.4968 126.584V127.192H74.3848V127.576C74.3848 127.939 74.4434 128.275 74.5608 128.584C74.6781 128.893 74.8434 129.16 75.0568 129.384C75.2808 129.608 75.5474 129.784 75.8568 129.912C76.1768 130.029 76.5288 130.088 76.9128 130.088C77.4674 130.088 77.9474 129.96 78.3528 129.704C78.7581 129.448 79.0674 129.096 79.2808 128.648L80.2248 129.288C79.9794 129.843 79.5688 130.301 78.9928 130.664C78.4274 131.016 77.7341 131.192 76.9128 131.192ZM76.8328 123.608C76.4808 123.608 76.1554 123.672 75.8568 123.8C75.5581 123.928 75.2968 124.104 75.0728 124.328C74.8594 124.552 74.6888 124.819 74.5608 125.128C74.4434 125.427 74.3848 125.757 74.3848 126.12V126.232H79.1208V126.056C79.1208 125.693 79.0621 125.363 78.9448 125.064C78.8381 124.765 78.6834 124.509 78.4808 124.296C78.2888 124.072 78.0488 123.901 77.7608 123.784C77.4834 123.667 77.1741 123.608 76.8328 123.608ZM86.5065 131.192C85.9092 131.192 85.3705 131.091 84.8905 130.888C84.4212 130.685 84.0158 130.397 83.6745 130.024C83.3438 129.64 83.0878 129.187 82.9065 128.664C82.7252 128.131 82.6345 127.539 82.6345 126.888C82.6345 126.227 82.7252 125.629 82.9065 125.096C83.0985 124.563 83.3598 124.109 83.6905 123.736C84.0212 123.352 84.4158 123.059 84.8745 122.856C85.3438 122.653 85.8612 122.552 86.4265 122.552C86.9812 122.552 87.4825 122.653 87.9305 122.856C88.3892 123.059 88.7785 123.341 89.0985 123.704C89.4185 124.056 89.6638 124.477 89.8345 124.968C90.0052 125.459 90.0905 125.997 90.0905 126.584V127.192H83.9785V127.576C83.9785 127.939 84.0372 128.275 84.1545 128.584C84.2718 128.893 84.4372 129.16 84.6505 129.384C84.8745 129.608 85.1412 129.784 85.4505 129.912C85.7705 130.029 86.1225 130.088 86.5065 130.088C87.0612 130.088 87.5412 129.96 87.9465 129.704C88.3518 129.448 88.6612 129.096 88.8745 128.648L89.8185 129.288C89.5732 129.843 89.1625 130.301 88.5865 130.664C88.0212 131.016 87.3278 131.192 86.5065 131.192ZM86.4265 123.608C86.0745 123.608 85.7492 123.672 85.4505 123.8C85.1518 123.928 84.8905 124.104 84.6665 124.328C84.4532 124.552 84.2825 124.819 84.1545 125.128C84.0372 125.427 83.9785 125.757 83.9785 126.12V126.232H88.7145V126.056C88.7145 125.693 88.6558 125.363 88.5385 125.064C88.4318 124.765 88.2772 124.509 88.0745 124.296C87.8825 124.072 87.6425 123.901 87.3545 123.784C87.0772 123.667 86.7678 123.608 86.4265 123.608ZM92.3883 129.912H94.8043V123.832H92.3883V122.744H96.0843V124.824H96.1643C96.3349 124.173 96.6549 123.667 97.1243 123.304C97.6043 122.931 98.2123 122.744 98.9483 122.744H100.1V124.024H98.5483C97.8123 124.024 97.2149 124.237 96.7563 124.664C96.3083 125.091 96.0843 125.651 96.0843 126.344V129.912H99.2843V131H92.3883V129.912ZM108.67 131C108.169 131 107.811 130.872 107.598 130.616C107.385 130.36 107.251 130.04 107.198 129.656H107.118C106.937 130.136 106.643 130.515 106.238 130.792C105.843 131.059 105.31 131.192 104.638 131.192C103.774 131.192 103.086 130.968 102.574 130.52C102.062 130.072 101.806 129.459 101.806 128.68C101.806 127.912 102.083 127.32 102.638 126.904C103.203 126.488 104.11 126.28 105.358 126.28H107.118V125.464C107.118 124.856 106.947 124.403 106.606 124.104C106.265 123.795 105.779 123.64 105.15 123.64C104.595 123.64 104.142 123.752 103.79 123.976C103.438 124.189 103.155 124.483 102.942 124.856L102.078 124.216C102.185 124.003 102.329 123.795 102.51 123.592C102.691 123.389 102.915 123.213 103.182 123.064C103.449 122.904 103.753 122.781 104.094 122.696C104.435 122.6 104.814 122.552 105.23 122.552C106.201 122.552 106.969 122.797 107.534 123.288C108.11 123.779 108.398 124.461 108.398 125.336V129.88H109.55V131H108.67ZM104.862 130.12C105.193 130.12 105.491 130.083 105.758 130.008C106.035 129.923 106.275 129.816 106.478 129.688C106.681 129.549 106.835 129.389 106.942 129.208C107.059 129.016 107.118 128.813 107.118 128.6V127.24H105.358C104.59 127.24 104.03 127.347 103.678 127.56C103.326 127.773 103.15 128.083 103.15 128.488V128.824C103.15 129.251 103.299 129.576 103.598 129.8C103.907 130.013 104.329 130.12 104.862 130.12ZM111.912 131V122.744H113.192V124.088H113.256C113.341 123.885 113.448 123.693 113.576 123.512C113.704 123.32 113.858 123.155 114.04 123.016C114.232 122.877 114.456 122.765 114.712 122.68C114.968 122.595 115.266 122.552 115.608 122.552C116.472 122.552 117.165 122.829 117.688 123.384C118.21 123.928 118.472 124.701 118.472 125.704V131H117.192V125.928C117.192 125.171 117.026 124.611 116.696 124.248C116.365 123.875 115.88 123.688 115.24 123.688C114.984 123.688 114.733 123.72 114.488 123.784C114.242 123.848 114.024 123.944 113.832 124.072C113.64 124.2 113.485 124.365 113.368 124.568C113.25 124.771 113.192 125.005 113.192 125.272V131H111.912Z" fill="white"/>
<path opacity="0.9" d="M30.144 46.24C29.3653 46.24 28.656 46.112 28.016 45.856C27.376 45.6 26.8267 45.2267 26.368 44.736C25.9093 44.2453 25.552 43.6427 25.296 42.928C25.0507 42.2027 24.928 41.376 24.928 40.448C24.928 39.52 25.0667 38.6987 25.344 37.984C25.632 37.2587 26.016 36.6507 26.496 36.16C26.976 35.6693 27.536 35.296 28.176 35.04C28.816 34.784 29.4987 34.656 30.224 34.656C30.6827 34.656 31.0933 34.688 31.456 34.752C31.8293 34.816 32.1493 34.8907 32.416 34.976C32.6933 35.0613 32.9173 35.1467 33.088 35.232C33.2587 35.3173 33.376 35.3813 33.44 35.424L32.992 36.704C32.896 36.64 32.7573 36.5707 32.576 36.496C32.3947 36.4213 32.1867 36.3467 31.952 36.272C31.728 36.1973 31.4773 36.1387 31.2 36.096C30.9333 36.0427 30.6613 36.016 30.384 36.016C29.7973 36.016 29.2693 36.1173 28.8 36.32C28.3307 36.5227 27.9307 36.816 27.6 37.2C27.2693 37.584 27.0133 38.0533 26.832 38.608C26.6613 39.152 26.576 39.7653 26.576 40.448C26.576 41.1093 26.6507 41.712 26.8 42.256C26.96 42.8 27.1947 43.2693 27.504 43.664C27.8133 44.048 28.1973 44.3467 28.656 44.56C29.1253 44.7733 29.6693 44.88 30.288 44.88C31.0027 44.88 31.5947 44.8053 32.064 44.656C32.5333 44.5067 32.8853 44.3733 33.12 44.256L33.52 45.536C33.4453 45.5893 33.312 45.6587 33.12 45.744C32.928 45.8187 32.688 45.8933 32.4 45.968C32.112 46.0427 31.776 46.1067 31.392 46.16C31.008 46.2133 30.592 46.24 30.144 46.24ZM38.2739 37.504C38.4019 37.504 38.5459 37.5147 38.7059 37.536C38.8765 37.5467 39.0419 37.568 39.2019 37.6C39.3619 37.6213 39.5059 37.648 39.6339 37.68C39.7725 37.7013 39.8739 37.7227 39.9379 37.744L39.6819 39.04C39.5645 38.9973 39.3672 38.9493 39.0899 38.896C38.8232 38.832 38.4765 38.8 38.0499 38.8C37.7725 38.8 37.4952 38.832 37.2179 38.896C36.9512 38.9493 36.7752 38.9867 36.6899 39.008V46H35.2019V38.032C35.5539 37.904 35.9912 37.7867 36.5139 37.68C37.0365 37.5627 37.6232 37.504 38.2739 37.504ZM40.9098 41.856C40.9098 41.12 41.0164 40.48 41.2298 39.936C41.4431 39.3813 41.7258 38.9227 42.0778 38.56C42.4298 38.1973 42.8351 37.9253 43.2938 37.744C43.7524 37.5627 44.2218 37.472 44.7018 37.472C45.8218 37.472 46.6804 37.824 47.2778 38.528C47.8751 39.2213 48.1737 40.2827 48.1737 41.712C48.1737 41.776 48.1737 41.8613 48.1737 41.968C48.1737 42.064 48.1684 42.1547 48.1578 42.24H42.4618C42.5258 43.104 42.7764 43.76 43.2138 44.208C43.6511 44.656 44.3338 44.88 45.2618 44.88C45.7844 44.88 46.2218 44.8373 46.5738 44.752C46.9364 44.656 47.2084 44.5653 47.3898 44.48L47.5978 45.728C47.4164 45.824 47.0964 45.9253 46.6378 46.032C46.1898 46.1387 45.6778 46.192 45.1018 46.192C44.3764 46.192 43.7471 46.0853 43.2138 45.872C42.6911 45.648 42.2591 45.344 41.9178 44.96C41.5764 44.576 41.3204 44.1227 41.1497 43.6C40.9898 43.0667 40.9098 42.4853 40.9098 41.856ZM46.6218 41.04C46.6324 40.368 46.4618 39.8187 46.1098 39.392C45.7684 38.9547 45.2938 38.736 44.6858 38.736C44.3444 38.736 44.0404 38.8053 43.7738 38.944C43.5178 39.072 43.2991 39.2427 43.1178 39.456C42.9364 39.6693 42.7924 39.9147 42.6858 40.192C42.5898 40.4693 42.5258 40.752 42.4938 41.04H46.6218ZM55.6873 39.44C55.5059 39.2907 55.2446 39.1467 54.9033 39.008C54.5619 38.8693 54.1886 38.8 53.7833 38.8C53.3566 38.8 52.9886 38.88 52.6793 39.04C52.3806 39.1893 52.1353 39.4027 51.9433 39.68C51.7513 39.9467 51.6126 40.2667 51.5273 40.64C51.4419 41.0133 51.3993 41.4133 51.3993 41.84C51.3993 42.8107 51.6393 43.5627 52.1193 44.096C52.5993 44.6187 53.2393 44.88 54.0393 44.88C54.4446 44.88 54.7806 44.864 55.0473 44.832C55.3246 44.7893 55.5379 44.7467 55.6873 44.704V39.44ZM55.6873 33.84L57.1753 33.584V45.76C56.8339 45.856 56.3966 45.952 55.8633 46.048C55.3299 46.144 54.7166 46.192 54.0233 46.192C53.3833 46.192 52.8073 46.0907 52.2953 45.888C51.7833 45.6853 51.3459 45.3973 50.9833 45.024C50.6206 44.6507 50.3379 44.1973 50.1353 43.664C49.9433 43.12 49.8473 42.512 49.8473 41.84C49.8473 41.2 49.9273 40.6133 50.0872 40.08C50.2579 39.5467 50.5033 39.088 50.8233 38.704C51.1433 38.32 51.5326 38.0213 51.9913 37.808C52.4606 37.5947 52.9939 37.488 53.5913 37.488C54.0713 37.488 54.4926 37.552 54.8553 37.68C55.2286 37.808 55.5059 37.9307 55.6873 38.048V33.84ZM61.2211 46H59.7331V37.68H61.2211V46ZM60.4691 36.176C60.2025 36.176 59.9731 36.0907 59.7811 35.92C59.5998 35.7387 59.5091 35.4987 59.5091 35.2C59.5091 34.9013 59.5998 34.6667 59.7811 34.496C59.9731 34.3147 60.2025 34.224 60.4691 34.224C60.7358 34.224 60.9598 34.3147 61.1411 34.496C61.3331 34.6667 61.4291 34.9013 61.4291 35.2C61.4291 35.4987 61.3331 35.7387 61.1411 35.92C60.9598 36.0907 60.7358 36.176 60.4691 36.176ZM65.172 37.68H68.324V38.928H65.172V42.768C65.172 43.184 65.204 43.5307 65.268 43.808C65.332 44.0747 65.428 44.288 65.556 44.448C65.684 44.5973 65.844 44.704 66.036 44.768C66.228 44.832 66.452 44.864 66.708 44.864C67.156 44.864 67.5133 44.816 67.78 44.72C68.0573 44.6133 68.2493 44.5387 68.356 44.496L68.644 45.728C68.4947 45.8027 68.2333 45.8933 67.86 46C67.4867 46.1173 67.06 46.176 66.58 46.176C66.0147 46.176 65.5453 46.1067 65.172 45.968C64.8093 45.8187 64.516 45.6 64.292 45.312C64.068 45.024 63.908 44.672 63.812 44.256C63.7267 43.8293 63.684 43.3387 63.684 42.784V35.36L65.172 35.104V37.68Z" fill="white"/>
<path d="M281.224 28.524L274.94 43.516H270.84L267.748 31.55C267.56 30.814 267.398 30.544 266.826 30.234C265.894 29.728 264.354 29.254 263 28.958L263.092 28.524H269.692C270.123 28.5236 270.541 28.6774 270.868 28.9576C271.196 29.2378 271.413 29.626 271.48 30.052L273.114 38.728L277.15 28.524H281.224ZM297.29 38.622C297.306 34.664 291.818 34.446 291.856 32.678C291.868 32.14 292.38 31.568 293.5 31.422C294.813 31.2974 296.134 31.5296 297.326 32.094L298.006 28.914C296.846 28.4779 295.617 28.2524 294.378 28.248C290.544 28.248 287.846 30.288 287.822 33.206C287.798 35.364 289.748 36.566 291.218 37.286C292.73 38.02 293.238 38.492 293.23 39.148C293.22 40.156 292.026 40.598 290.91 40.616C288.96 40.646 287.83 40.09 286.926 39.67L286.224 42.954C287.13 43.37 288.802 43.734 290.536 43.75C294.61 43.75 297.276 41.738 297.29 38.622ZM307.412 43.516H311L307.87 28.524H304.558C304.204 28.5208 303.857 28.6239 303.563 28.82C303.268 29.0162 303.039 29.2963 302.906 29.624L297.088 43.516H301.16L301.97 41.276H306.946L307.412 43.516ZM303.086 38.204L305.126 32.574L306.302 38.204H303.086ZM286.766 28.524L283.56 43.516H279.68L282.89 28.524H286.766Z" fill="white"/>
<defs>
<filter id="filter0_b_283_9032" x="10" y="10" width="495" height="345" filterUnits="userSpaceOnUse" color-interpolation-filters="sRGB">
<feFlood flood-opacity="0" result="BackgroundImageFix"/>
<feGaussianBlur in="BackgroundImageFix" stdDeviation="40"/>
<feComposite in2="SourceAlpha" operator="in" result="effect1_backgroundBlur_283_9032"/>
<feBlend mode="normal" in="SourceGraphic" in2="effect1_backgroundBlur_283_9032" result="shape"/>
</filter>
<filter id="filter1_b_283_9032" x="-35" y="-35" width="495" height="345" filterUnits="userSpaceOnUse" color-interpolation-filters="sRGB">
<feFlood flood-opacity="0" result="BackgroundImageFix"/>
<feGaussianBlur in="BackgroundImageFix" stdDeviation="40"/>
<feComposite in2="SourceAlpha" operator="in" result="effect1_backgroundBlur_283_9032"/>
<feBlend mode="normal" in="SourceGraphic" in2="effect1_backgroundBlur_283_9032" result="shape"/>
</filter>
<filter id="filter2_b_283_9032" x="-80" y="-80" width="495" height="345" filterUnits="userSpaceOnUse" color-interpolation-filters="sRGB">
<feFlood flood-opacity="0" result="BackgroundImageFix"/>
<feGaussianBlur in="BackgroundImageFix" stdDeviation="40"/>
<feComposite in2="SourceAlpha" operator="in" result="effect1_backgroundBlur_283_9032"/>
<feBlend mode="normal" in="SourceGraphic" in2="effect1_backgroundBlur_283_9032" result="shape"/>
</filter>
<linearGradient id="paint0_linear_283_9032" x1="42" y1="70" x2="472" y2="295.5" gradientUnits="userSpaceOnUse">
<stop offset="0.122247" stop-color="#064A7D"/>
<stop offset="0.878935" stop-color="#642401"/>
</linearGradient>
<linearGradient id="paint1_linear_283_9032" x1="-41.5" y1="8" x2="625.5" y2="359.5" gradientUnits="userSpaceOnUse">
<stop stop-color="#A5DB92"/>
<stop offset="1" stop-color="#007C05"/>
</linearGradient>
<linearGradient id="paint2_linear_283_9032" x1="-48" y1="-20" x2="382" y2="205.5" gradientUnits="userSpaceOnUse">
<stop offset="0.122247" stop-color="#52B6FE"/>
<stop offset="0.878935" stop-color="#6154FE"/>
</linearGradient>
<clipPath id="clip0_283_9032">
<rect width="63" height="63" fill="white" transform="translate(293 52)"/>
</clipPath>
</defs>
</svg>
