<svg width="25" height="24" viewBox="0 0 25 24" fill="none" xmlns="http://www.w3.org/2000/svg">
<path d="M12.5 2C6.99 2 2.5 6.49 2.5 12C2.5 17.51 6.99 22 12.5 22C18.01 22 22.5 17.51 22.5 12C22.5 6.49 18.01 2 12.5 2ZM15.86 14.3C16.15 14.59 16.15 15.07 15.86 15.36C15.71 15.51 15.52 15.58 15.33 15.58C15.14 15.58 14.95 15.51 14.8 15.36L12.5 13.06L10.2 15.36C10.05 15.51 9.86 15.58 9.67 15.58C9.48 15.58 9.29 15.51 9.14 15.36C8.85 15.07 8.85 14.59 9.14 14.3L11.44 12L9.14 9.7C8.85 9.41 8.85 8.93 9.14 8.64C9.43 8.35 9.91 8.35 10.2 8.64L12.5 10.94L14.8 8.64C15.09 8.35 15.57 8.35 15.86 8.64C16.15 8.93 16.15 9.41 15.86 9.7L13.56 12L15.86 14.3Z" fill="#FF4423"/>
</svg>
