<svg
                    width="486"
                    height="434"
                    viewBox="0 0 486 434"
                    fill="none"
                    xmlns="http://www.w3.org/2000/svg"
                  >
                    <rect width="486" height="434" rx="12" fill="#FAFAFA" />
                    <g opacity="0.4" clip-path="url(#clip0_205_3017)">
                      <path
                        d="M458 191H32"
                        stroke="#B2B6B8"
                        stroke-dasharray="10 10"
                      />
                      <path
                        d="M458 242H32"
                        stroke="#B2B6B8"
                        stroke-dasharray="10 10"
                      />
                      <path
                        d="M458 293H32"
                        stroke="#B2B6B8"
                        stroke-dasharray="10 10"
                      />
                      <path
                        d="M458 344H32"
                        stroke="#B2B6B8"
                        stroke-dasharray="10 10"
                      />
                      <path
                        d="M458 395H32"
                        stroke="#B2B6B8"
                        stroke-dasharray="10 10"
                      />
                    </g>
                    <path
                      d="M44.168 126.432C42.464 126.432 40.88 126.12 39.416 125.496C37.976 124.872 36.728 124.008 35.672 122.904C34.64 121.776 33.884 120.468 33.404 118.98L37.472 117.216C38.12 118.752 39.056 119.964 40.28 120.852C41.504 121.716 42.884 122.148 44.42 122.148C45.284 122.148 46.028 122.016 46.652 121.752C47.3 121.464 47.792 121.08 48.128 120.6C48.488 120.12 48.668 119.544 48.668 118.872C48.668 118.08 48.428 117.432 47.948 116.928C47.492 116.4 46.796 115.992 45.86 115.704L40.712 114.048C38.624 113.4 37.052 112.428 35.996 111.132C34.94 109.836 34.412 108.312 34.412 106.56C34.412 105.024 34.784 103.668 35.528 102.492C36.296 101.316 37.352 100.404 38.696 99.756C40.064 99.084 41.624 98.748 43.376 98.748C44.984 98.748 46.46 99.036 47.804 99.612C49.148 100.164 50.3 100.944 51.26 101.952C52.244 102.936 52.976 104.1 53.456 105.444L49.424 107.244C48.896 105.9 48.104 104.868 47.048 104.148C45.992 103.404 44.768 103.032 43.376 103.032C42.56 103.032 41.84 103.176 41.216 103.464C40.592 103.728 40.1 104.112 39.74 104.616C39.404 105.096 39.236 105.672 39.236 106.344C39.236 107.088 39.476 107.748 39.956 108.324C40.436 108.876 41.168 109.308 42.152 109.62L47.084 111.168C49.22 111.864 50.816 112.824 51.872 114.048C52.952 115.272 53.492 116.784 53.492 118.584C53.492 120.12 53.096 121.476 52.304 122.652C51.512 123.828 50.42 124.752 49.028 125.424C47.636 126.096 46.016 126.432 44.168 126.432ZM42.44 129.6V95.58H45.5V129.6H42.44ZM65.6046 126.432C63.6606 126.432 61.9686 126.072 60.5286 125.352C59.1126 124.608 58.0086 123.612 57.2166 122.364C56.4486 121.116 56.0646 119.748 56.0646 118.26C56.0646 116.508 56.5326 115.032 57.4686 113.832C58.4046 112.608 59.7606 111.708 61.5366 111.132L61.2486 112.32C59.9766 111.912 58.9686 111.12 58.2246 109.944C57.5046 108.768 57.1446 107.472 57.1446 106.056C57.1446 104.64 57.5046 103.38 58.2246 102.276C58.9446 101.172 59.9406 100.308 61.2126 99.684C62.4846 99.06 63.9486 98.748 65.6046 98.748C67.2366 98.748 68.6766 99.06 69.9246 99.684C71.1966 100.308 72.1926 101.172 72.9126 102.276C73.6566 103.38 74.0286 104.64 74.0286 106.056C74.0286 107.496 73.6566 108.804 72.9126 109.98C72.1926 111.132 71.1966 111.924 69.9246 112.356L69.6726 111.096C71.4486 111.72 72.8046 112.644 73.7406 113.868C74.6766 115.068 75.1446 116.544 75.1446 118.296C75.1446 119.784 74.7486 121.152 73.9566 122.4C73.1886 123.624 72.0846 124.608 70.6446 125.352C69.2286 126.072 67.5486 126.432 65.6046 126.432ZM65.6046 122.292C66.5406 122.292 67.3566 122.124 68.0526 121.788C68.7486 121.428 69.2886 120.936 69.6726 120.312C70.0566 119.664 70.2486 118.932 70.2486 118.116C70.2486 117.276 70.0566 116.556 69.6726 115.956C69.2886 115.332 68.7486 114.852 68.0526 114.516C67.3566 114.156 66.5406 113.976 65.6046 113.976C64.6686 113.976 63.8526 114.156 63.1566 114.516C62.4846 114.852 61.9566 115.332 61.5726 115.956C61.1886 116.556 60.9966 117.276 60.9966 118.116C60.9966 118.932 61.1886 119.664 61.5726 120.312C61.9566 120.936 62.4846 121.428 63.1566 121.788C63.8526 122.124 64.6686 122.292 65.6046 122.292ZM65.6046 109.836C66.3006 109.836 66.9126 109.68 67.4406 109.368C67.9686 109.056 68.3766 108.648 68.6646 108.144C68.9766 107.616 69.1326 107.016 69.1326 106.344C69.1326 105.672 68.9766 105.084 68.6646 104.58C68.3766 104.052 67.9686 103.644 67.4406 103.356C66.9126 103.044 66.3006 102.888 65.6046 102.888C64.9086 102.888 64.2846 103.044 63.7326 103.356C63.2046 103.644 62.7846 104.052 62.4726 104.58C62.1846 105.084 62.0406 105.672 62.0406 106.344C62.0406 107.016 62.1846 107.616 62.4726 108.144C62.7846 108.648 63.2046 109.056 63.7326 109.368C64.2846 109.68 64.9086 109.836 65.6046 109.836ZM86.5867 126.432C85.1707 126.432 83.8147 126.168 82.5187 125.64C81.2467 125.112 80.1427 124.368 79.2067 123.408C78.2947 122.424 77.6707 121.26 77.3347 119.916L81.5827 118.404C81.9907 119.628 82.6507 120.54 83.5627 121.14C84.4747 121.716 85.4827 122.004 86.5867 122.004C87.4987 122.004 88.3027 121.812 88.9987 121.428C89.7187 121.02 90.2707 120.468 90.6547 119.772C91.0387 119.052 91.2307 118.224 91.2307 117.288C91.2307 116.352 91.0267 115.536 90.6187 114.84C90.2347 114.144 89.6947 113.604 88.9987 113.22C88.3027 112.812 87.4987 112.608 86.5867 112.608C85.6507 112.608 84.7987 112.812 84.0307 113.22C83.2867 113.628 82.7467 114.216 82.4107 114.984L78.4147 114.084L80.5387 99.18H95.1547V103.32H82.4827L84.3187 101.196L82.8067 112.428L81.4027 111.276C82.0747 110.292 82.8907 109.572 83.8507 109.116C84.8347 108.66 86.0227 108.432 87.4147 108.432C89.1907 108.432 90.7267 108.816 92.0227 109.584C93.3427 110.352 94.3627 111.396 95.0827 112.716C95.8027 114.036 96.1627 115.56 96.1627 117.288C96.1627 119.016 95.7427 120.576 94.9027 121.968C94.0627 123.36 92.9227 124.452 91.4827 125.244C90.0427 126.036 88.4107 126.432 86.5867 126.432ZM100.671 131.616V129.276C101.463 129.084 102.099 128.712 102.579 128.16C103.083 127.632 103.395 126.912 103.515 126H101.391V120.96H106.143V124.056C106.143 126.168 105.675 127.86 104.739 129.132C103.827 130.404 102.471 131.232 100.671 131.616ZM110.406 126V122.292L117.678 114.696C119.118 113.184 120.222 111.984 120.99 111.096C121.782 110.184 122.334 109.404 122.646 108.756C122.958 108.108 123.114 107.448 123.114 106.776C123.114 105.648 122.754 104.76 122.034 104.112C121.338 103.464 120.438 103.14 119.334 103.14C118.182 103.14 117.186 103.476 116.346 104.148C115.506 104.796 114.894 105.756 114.51 107.028L110.226 105.696C110.514 104.28 111.102 103.056 111.99 102.024C112.878 100.968 113.958 100.164 115.23 99.612C116.526 99.036 117.894 98.748 119.334 98.748C121.062 98.748 122.574 99.06 123.87 99.684C125.19 100.308 126.21 101.184 126.93 102.312C127.674 103.44 128.046 104.76 128.046 106.272C128.046 107.232 127.866 108.18 127.506 109.116C127.146 110.052 126.606 111.012 125.886 111.996C125.166 112.956 124.23 114.036 123.078 115.236L116.778 121.86H128.406V126H110.406ZM135.379 126V103.356H130.195V99.18H140.275V126H135.379ZM148.818 126V103.356H143.634V99.18H153.714V126H148.818ZM160.458 126V120.96H165.21V126H160.458ZM181.299 126.432C179.163 126.432 177.291 125.856 175.683 124.704C174.075 123.552 172.815 121.932 171.903 119.844C171.015 117.756 170.571 115.332 170.571 112.572C170.571 109.788 171.015 107.364 171.903 105.3C172.791 103.236 174.039 101.628 175.647 100.476C177.255 99.324 179.127 98.748 181.263 98.748C183.447 98.748 185.331 99.324 186.915 100.476C188.523 101.628 189.783 103.248 190.695 105.336C191.607 107.4 192.063 109.812 192.063 112.572C192.063 115.332 191.607 117.756 190.695 119.844C189.807 121.908 188.559 123.528 186.951 124.704C185.343 125.856 183.459 126.432 181.299 126.432ZM181.335 121.968C182.559 121.968 183.603 121.596 184.467 120.852C185.331 120.084 185.991 119.004 186.447 117.612C186.927 116.196 187.167 114.516 187.167 112.572C187.167 110.628 186.927 108.96 186.447 107.568C185.991 106.152 185.319 105.072 184.431 104.328C183.567 103.584 182.511 103.212 181.263 103.212C180.063 103.212 179.031 103.584 178.167 104.328C177.303 105.072 176.631 106.152 176.151 107.568C175.695 108.96 175.467 110.628 175.467 112.572C175.467 114.492 175.695 116.16 176.151 117.576C176.631 118.968 177.303 120.048 178.167 120.816C179.055 121.584 180.111 121.968 181.335 121.968ZM205.708 126.432C203.572 126.432 201.7 125.856 200.092 124.704C198.484 123.552 197.224 121.932 196.312 119.844C195.424 117.756 194.98 115.332 194.98 112.572C194.98 109.788 195.424 107.364 196.312 105.3C197.2 103.236 198.448 101.628 200.056 100.476C201.664 99.324 203.536 98.748 205.672 98.748C207.856 98.748 209.74 99.324 211.324 100.476C212.932 101.628 214.192 103.248 215.104 105.336C216.016 107.4 216.472 109.812 216.472 112.572C216.472 115.332 216.016 117.756 215.104 119.844C214.216 121.908 212.968 123.528 211.36 124.704C209.752 125.856 207.868 126.432 205.708 126.432ZM205.744 121.968C206.968 121.968 208.012 121.596 208.876 120.852C209.74 120.084 210.4 119.004 210.856 117.612C211.336 116.196 211.576 114.516 211.576 112.572C211.576 110.628 211.336 108.96 210.856 107.568C210.4 106.152 209.728 105.072 208.84 104.328C207.976 103.584 206.92 103.212 205.672 103.212C204.472 103.212 203.44 103.584 202.576 104.328C201.712 105.072 201.04 106.152 200.56 107.568C200.104 108.96 199.876 110.628 199.876 112.572C199.876 114.492 200.104 116.16 200.56 117.576C201.04 118.968 201.712 120.048 202.576 120.816C203.464 121.584 204.52 121.968 205.744 121.968Z"
                      fill="#1A202C"
                    />
                    <path
                      d="M256.817 111.142L265.369 110.394L266.117 118.946"
                      stroke="#659711"
                      stroke-width="2.5"
                      stroke-miterlimit="10"
                      stroke-linecap="round"
                      stroke-linejoin="round"
                    />
                    <path
                      d="M254.442 123.417L265.26 110.524"
                      stroke="#659711"
                      stroke-width="2.5"
                      stroke-miterlimit="10"
                      stroke-linecap="round"
                      stroke-linejoin="round"
                    />
                    <path
                      d="M286.853 124.667C285.839 124.667 284.939 124.453 284.153 124.027C283.379 123.587 282.773 123 282.333 122.267C281.893 121.52 281.673 120.673 281.673 119.727C281.673 119.247 281.719 118.767 281.813 118.287C281.919 117.807 282.106 117.293 282.373 116.747C282.653 116.2 283.053 115.593 283.573 114.927L287.733 109.527H290.973L285.913 116.027L285.473 115.547C285.659 115.4 285.853 115.287 286.053 115.207C286.253 115.113 286.453 115.047 286.653 115.007C286.866 114.967 287.086 114.947 287.313 114.947C288.219 114.947 289.026 115.153 289.733 115.567C290.439 115.98 290.993 116.547 291.393 117.267C291.806 117.973 292.013 118.773 292.013 119.667C292.013 120.627 291.793 121.487 291.353 122.247C290.913 122.993 290.299 123.587 289.513 124.027C288.739 124.453 287.853 124.667 286.853 124.667ZM286.853 122.207C287.306 122.207 287.713 122.107 288.073 121.907C288.446 121.693 288.739 121.393 288.953 121.007C289.179 120.62 289.293 120.187 289.293 119.707C289.293 119.2 289.179 118.767 288.953 118.407C288.739 118.033 288.453 117.74 288.093 117.527C287.733 117.313 287.319 117.207 286.853 117.207C286.399 117.207 285.986 117.313 285.613 117.527C285.239 117.74 284.939 118.033 284.713 118.407C284.499 118.767 284.393 119.2 284.393 119.707C284.393 120.187 284.499 120.62 284.713 121.007C284.939 121.393 285.239 121.693 285.613 121.907C285.986 122.107 286.399 122.207 286.853 122.207ZM298.184 124.667C297.397 124.667 296.644 124.52 295.924 124.227C295.217 123.933 294.604 123.52 294.084 122.987C293.577 122.44 293.23 121.793 293.044 121.047L295.404 120.207C295.63 120.887 295.997 121.393 296.504 121.727C297.01 122.047 297.57 122.207 298.184 122.207C298.69 122.207 299.137 122.1 299.524 121.887C299.924 121.66 300.23 121.353 300.444 120.967C300.657 120.567 300.764 120.107 300.764 119.587C300.764 119.067 300.65 118.613 300.424 118.227C300.21 117.84 299.91 117.54 299.524 117.327C299.137 117.1 298.69 116.987 298.184 116.987C297.664 116.987 297.19 117.1 296.764 117.327C296.35 117.553 296.05 117.88 295.864 118.307L293.644 117.807L294.824 109.527H302.944V111.827H295.904L296.924 110.647L296.084 116.887L295.304 116.247C295.677 115.7 296.13 115.3 296.664 115.047C297.21 114.793 297.87 114.667 298.644 114.667C299.63 114.667 300.484 114.88 301.204 115.307C301.937 115.733 302.504 116.313 302.904 117.047C303.304 117.78 303.504 118.627 303.504 119.587C303.504 120.547 303.27 121.413 302.804 122.187C302.337 122.96 301.704 123.567 300.904 124.007C300.104 124.447 299.197 124.667 298.184 124.667ZM306.008 127.547V126.247C306.448 126.14 306.802 125.933 307.068 125.627C307.348 125.333 307.522 124.933 307.588 124.427H306.408V121.627H309.048V123.347C309.048 124.52 308.788 125.46 308.268 126.167C307.762 126.873 307.008 127.333 306.008 127.547ZM313.273 124.427V111.847H310.393V109.527H315.993V124.427H313.273ZM323.294 124.427L335.374 109.527H338.174L326.094 124.427H323.294ZM325.614 117.087C324.881 117.087 324.214 116.913 323.614 116.567C323.028 116.207 322.561 115.733 322.214 115.147C321.868 114.56 321.694 113.907 321.694 113.187C321.694 112.467 321.868 111.813 322.214 111.227C322.561 110.627 323.028 110.153 323.614 109.807C324.214 109.46 324.881 109.287 325.614 109.287C326.361 109.287 327.028 109.46 327.614 109.807C328.201 110.153 328.668 110.627 329.014 111.227C329.361 111.813 329.534 112.467 329.534 113.187C329.534 113.907 329.361 114.56 329.014 115.147C328.668 115.733 328.201 116.207 327.614 116.567C327.028 116.913 326.361 117.087 325.614 117.087ZM325.614 115.067C326.014 115.067 326.348 114.98 326.614 114.807C326.881 114.62 327.081 114.387 327.214 114.107C327.361 113.813 327.434 113.507 327.434 113.187C327.434 112.853 327.361 112.547 327.214 112.267C327.081 111.987 326.881 111.753 326.614 111.567C326.348 111.38 326.014 111.287 325.614 111.287C325.241 111.287 324.914 111.38 324.634 111.567C324.368 111.753 324.161 111.993 324.014 112.287C323.868 112.567 323.794 112.867 323.794 113.187C323.794 113.493 323.868 113.793 324.014 114.087C324.161 114.38 324.368 114.62 324.634 114.807C324.914 114.98 325.241 115.067 325.614 115.067ZM335.774 124.667C335.041 124.667 334.374 124.493 333.774 124.147C333.188 123.787 332.721 123.313 332.374 122.727C332.028 122.14 331.854 121.487 331.854 120.767C331.854 120.047 332.028 119.393 332.374 118.807C332.721 118.207 333.188 117.733 333.774 117.387C334.374 117.04 335.041 116.867 335.774 116.867C336.521 116.867 337.188 117.04 337.774 117.387C338.361 117.733 338.828 118.207 339.174 118.807C339.521 119.393 339.694 120.047 339.694 120.767C339.694 121.487 339.521 122.14 339.174 122.727C338.828 123.313 338.361 123.787 337.774 124.147C337.188 124.493 336.521 124.667 335.774 124.667ZM335.774 122.647C336.161 122.647 336.488 122.56 336.754 122.387C337.034 122.2 337.241 121.967 337.374 121.687C337.521 121.393 337.594 121.087 337.594 120.767C337.594 120.433 337.521 120.127 337.374 119.847C337.241 119.567 337.034 119.333 336.754 119.147C336.488 118.96 336.161 118.867 335.774 118.867C335.401 118.867 335.074 118.96 334.794 119.147C334.528 119.333 334.321 119.573 334.174 119.867C334.028 120.147 333.954 120.447 333.954 120.767C333.954 121.073 334.028 121.373 334.174 121.667C334.321 121.96 334.528 122.2 334.794 122.387C335.074 122.56 335.401 122.647 335.774 122.647Z"
                      fill="#659711"
                    />
                    <path
                      d="M435 45C433.9 45 433 45.9 433 47C433 48.1 433.9 49 435 49C436.1 49 437 48.1 437 47C437 45.9 436.1 45 435 45Z"
                      stroke="#90A3BF"
                      stroke-width="1.5"
                    />
                    <path
                      d="M449 45C447.9 45 447 45.9 447 47C447 48.1 447.9 49 449 49C450.1 49 451 48.1 451 47C451 45.9 450.1 45 449 45Z"
                      stroke="#90A3BF"
                      stroke-width="1.5"
                    />
                    <path
                      d="M442 45C440.9 45 440 45.9 440 47C440 48.1 440.9 49 442 49C443.1 49 444 48.1 444 47C444 45.9 443.1 45 442 45Z"
                      stroke="#90A3BF"
                      stroke-width="1.5"
                    />
                    <path
                      d="M33.54 55V40.1H39.82C40.7533 40.1 41.56 40.2667 42.24 40.6C42.92 40.92 43.44 41.3867 43.8 42C44.16 42.6 44.34 43.3133 44.34 44.14C44.34 44.86 44.1533 45.52 43.78 46.12C43.42 46.7067 42.8533 47.1733 42.08 47.52V46.52C42.76 46.7867 43.3133 47.1267 43.74 47.54C44.1667 47.94 44.4733 48.3933 44.66 48.9C44.86 49.4067 44.96 49.94 44.96 50.5C44.96 51.9 44.5 53 43.58 53.8C42.6733 54.6 41.4267 55 39.84 55H33.54ZM35.9 52.9H40.02C40.8067 52.9 41.4333 52.6867 41.9 52.26C42.3667 51.82 42.6 51.24 42.6 50.52C42.6 49.7867 42.3667 49.2067 41.9 48.78C41.4333 48.34 40.8067 48.12 40.02 48.12H35.9V52.9ZM35.9 46.04H39.88C40.52 46.04 41.0333 45.86 41.42 45.5C41.8067 45.1267 42 44.64 42 44.04C42 43.44 41.8067 42.9733 41.42 42.64C41.0333 42.3067 40.52 42.14 39.88 42.14H35.9V46.04ZM50.0077 55.24C49.2743 55.24 48.6277 55.1133 48.0677 54.86C47.521 54.5933 47.0943 54.2333 46.7877 53.78C46.481 53.3133 46.3277 52.7667 46.3277 52.14C46.3277 51.5533 46.4543 51.0267 46.7077 50.56C46.9743 50.0933 47.381 49.7 47.9277 49.38C48.4743 49.06 49.161 48.8333 49.9877 48.7L53.7477 48.08V49.86L50.4277 50.44C49.8277 50.5467 49.3877 50.74 49.1077 51.02C48.8277 51.2867 48.6877 51.6333 48.6877 52.06C48.6877 52.4733 48.841 52.8133 49.1477 53.08C49.4677 53.3333 49.8743 53.46 50.3677 53.46C50.981 53.46 51.5143 53.3267 51.9677 53.06C52.4343 52.7933 52.7943 52.44 53.0477 52C53.301 51.5467 53.4277 51.0467 53.4277 50.5V47.72C53.4277 47.1867 53.2277 46.7533 52.8277 46.42C52.441 46.0733 51.921 45.9 51.2677 45.9C50.6677 45.9 50.141 46.06 49.6877 46.38C49.2477 46.6867 48.921 47.0867 48.7077 47.58L46.8277 46.64C47.0277 46.1067 47.3543 45.64 47.8077 45.24C48.261 44.8267 48.7877 44.5067 49.3877 44.28C50.001 44.0533 50.6477 43.94 51.3277 43.94C52.181 43.94 52.9343 44.1 53.5877 44.42C54.2543 44.74 54.7677 45.1867 55.1277 45.76C55.501 46.32 55.6877 46.9733 55.6877 47.72V55H53.5277V53.04L53.9877 53.1C53.7343 53.54 53.4077 53.92 53.0077 54.24C52.621 54.56 52.1743 54.8067 51.6677 54.98C51.1743 55.1533 50.621 55.24 50.0077 55.24ZM57.9302 55V39.86H60.1902V55H57.9302ZM65.6725 55.24C64.9392 55.24 64.2925 55.1133 63.7325 54.86C63.1858 54.5933 62.7592 54.2333 62.4525 53.78C62.1458 53.3133 61.9925 52.7667 61.9925 52.14C61.9925 51.5533 62.1192 51.0267 62.3725 50.56C62.6392 50.0933 63.0458 49.7 63.5925 49.38C64.1392 49.06 64.8258 48.8333 65.6525 48.7L69.4125 48.08V49.86L66.0925 50.44C65.4925 50.5467 65.0525 50.74 64.7725 51.02C64.4925 51.2867 64.3525 51.6333 64.3525 52.06C64.3525 52.4733 64.5058 52.8133 64.8125 53.08C65.1325 53.3333 65.5392 53.46 66.0325 53.46C66.6458 53.46 67.1792 53.3267 67.6325 53.06C68.0992 52.7933 68.4592 52.44 68.7125 52C68.9658 51.5467 69.0925 51.0467 69.0925 50.5V47.72C69.0925 47.1867 68.8925 46.7533 68.4925 46.42C68.1058 46.0733 67.5858 45.9 66.9325 45.9C66.3325 45.9 65.8058 46.06 65.3525 46.38C64.9125 46.6867 64.5858 47.0867 64.3725 47.58L62.4925 46.64C62.6925 46.1067 63.0192 45.64 63.4725 45.24C63.9258 44.8267 64.4525 44.5067 65.0525 44.28C65.6658 44.0533 66.3125 43.94 66.9925 43.94C67.8458 43.94 68.5992 44.1 69.2525 44.42C69.9192 44.74 70.4325 45.1867 70.7925 45.76C71.1658 46.32 71.3525 46.9733 71.3525 47.72V55H69.1925V53.04L69.6525 53.1C69.3992 53.54 69.0725 53.92 68.6725 54.24C68.2858 54.56 67.8392 54.8067 67.3325 54.98C66.8392 55.1533 66.2858 55.24 65.6725 55.24ZM73.595 55V44.18H75.755V46.3L75.495 46.02C75.7617 45.34 76.1883 44.8267 76.775 44.48C77.3617 44.12 78.0417 43.94 78.815 43.94C79.615 43.94 80.3217 44.1133 80.935 44.46C81.5483 44.8067 82.0283 45.2867 82.375 45.9C82.7217 46.5133 82.895 47.22 82.895 48.02V55H80.655V48.62C80.655 48.0733 80.555 47.6133 80.355 47.24C80.155 46.8533 79.8683 46.56 79.495 46.36C79.135 46.1467 78.7217 46.04 78.255 46.04C77.7883 46.04 77.3683 46.1467 76.995 46.36C76.635 46.56 76.355 46.8533 76.155 47.24C75.955 47.6267 75.855 48.0867 75.855 48.62V55H73.595ZM90.0538 55.24C88.9738 55.24 88.0138 54.9933 87.1738 54.5C86.3471 53.9933 85.6871 53.3133 85.1938 52.46C84.7138 51.6067 84.4738 50.64 84.4738 49.56C84.4738 48.4933 84.7138 47.5333 85.1938 46.68C85.6738 45.8267 86.3338 45.16 87.1738 44.68C88.0138 44.1867 88.9738 43.94 90.0538 43.94C90.7871 43.94 91.4738 44.0733 92.1138 44.34C92.7538 44.5933 93.3071 44.9467 93.7738 45.4C94.2538 45.8533 94.6071 46.38 94.8338 46.98L92.8538 47.9C92.6271 47.34 92.2604 46.8933 91.7538 46.56C91.2604 46.2133 90.6938 46.04 90.0538 46.04C89.4404 46.04 88.8871 46.1933 88.3938 46.5C87.9138 46.7933 87.5338 47.2133 87.2538 47.76C86.9738 48.2933 86.8338 48.9 86.8338 49.58C86.8338 50.26 86.9738 50.8733 87.2538 51.42C87.5338 51.9533 87.9138 52.3733 88.3938 52.68C88.8871 52.9867 89.4404 53.14 90.0538 53.14C90.7071 53.14 91.2738 52.9733 91.7538 52.64C92.2471 52.2933 92.6138 51.8333 92.8538 51.26L94.8338 52.2C94.6204 52.7733 94.2738 53.2933 93.7938 53.76C93.3271 54.2133 92.7738 54.5733 92.1338 54.84C91.4938 55.1067 90.8004 55.24 90.0538 55.24ZM101.723 55.24C100.643 55.24 99.6827 54.9933 98.8427 54.5C98.016 53.9933 97.3693 53.3133 96.9027 52.46C96.436 51.5933 96.2027 50.6267 96.2027 49.56C96.2027 48.4667 96.436 47.5 96.9027 46.66C97.3827 45.82 98.0227 45.16 98.8227 44.68C99.6227 44.1867 100.529 43.94 101.543 43.94C102.356 43.94 103.083 44.08 103.723 44.36C104.363 44.64 104.903 45.0267 105.343 45.52C105.783 46 106.116 46.5533 106.343 47.18C106.583 47.8067 106.703 48.4733 106.703 49.18C106.703 49.3533 106.696 49.5333 106.683 49.72C106.669 49.9067 106.643 50.08 106.603 50.24H97.9827V48.44H105.323L104.243 49.26C104.376 48.6067 104.329 48.0267 104.103 47.52C103.889 47 103.556 46.5933 103.103 46.3C102.663 45.9933 102.143 45.84 101.543 45.84C100.943 45.84 100.409 45.9933 99.9427 46.3C99.476 46.5933 99.116 47.02 98.8627 47.58C98.6093 48.1267 98.5093 48.7933 98.5627 49.58C98.496 50.3133 98.596 50.9533 98.8627 51.5C99.1427 52.0467 99.5293 52.4733 100.023 52.78C100.529 53.0867 101.103 53.24 101.743 53.24C102.396 53.24 102.949 53.0933 103.403 52.8C103.869 52.5067 104.236 52.1267 104.503 51.66L106.343 52.56C106.129 53.0667 105.796 53.5267 105.343 53.94C104.903 54.34 104.369 54.66 103.743 54.9C103.129 55.1267 102.456 55.24 101.723 55.24ZM117.044 55.24C116.111 55.24 115.244 55.0667 114.444 54.72C113.644 54.36 112.964 53.8733 112.404 53.26C111.844 52.6467 111.431 51.94 111.164 51.14L113.164 50.3C113.524 51.22 114.051 51.9267 114.744 52.42C115.438 52.9133 116.238 53.16 117.144 53.16C117.678 53.16 118.144 53.08 118.544 52.92C118.944 52.7467 119.251 52.5067 119.464 52.2C119.691 51.8933 119.804 51.54 119.804 51.14C119.804 50.5933 119.651 50.16 119.344 49.84C119.038 49.52 118.584 49.2667 117.984 49.08L115.184 48.2C114.064 47.8533 113.211 47.3267 112.624 46.62C112.038 45.9 111.744 45.06 111.744 44.1C111.744 43.26 111.951 42.5267 112.364 41.9C112.778 41.26 113.344 40.76 114.064 40.4C114.798 40.04 115.631 39.86 116.564 39.86C117.458 39.86 118.271 40.02 119.004 40.34C119.738 40.6467 120.364 41.0733 120.884 41.62C121.418 42.1667 121.804 42.8 122.044 43.52L120.084 44.38C119.791 43.5933 119.331 42.9867 118.704 42.56C118.091 42.1333 117.378 41.92 116.564 41.92C116.071 41.92 115.638 42.0067 115.264 42.18C114.891 42.34 114.598 42.58 114.384 42.9C114.184 43.2067 114.084 43.5667 114.084 43.98C114.084 44.46 114.238 44.8867 114.544 45.26C114.851 45.6333 115.318 45.9133 115.944 46.1L118.544 46.92C119.731 47.28 120.624 47.8 121.224 48.48C121.824 49.1467 122.124 49.98 122.124 50.98C122.124 51.8067 121.904 52.54 121.464 53.18C121.038 53.82 120.444 54.3267 119.684 54.7C118.924 55.06 118.044 55.24 117.044 55.24ZM128.834 55.12C127.7 55.12 126.82 54.8 126.194 54.16C125.567 53.52 125.254 52.62 125.254 51.46V46.22H123.354V44.18H123.654C124.16 44.18 124.554 44.0333 124.834 43.74C125.114 43.4467 125.254 43.0467 125.254 42.54V41.7H127.514V44.18H129.974V46.22H127.514V51.36C127.514 51.7333 127.574 52.0533 127.694 52.32C127.814 52.5733 128.007 52.7733 128.274 52.92C128.54 53.0533 128.887 53.12 129.314 53.12C129.42 53.12 129.54 53.1133 129.674 53.1C129.807 53.0867 129.934 53.0733 130.054 53.06V55C129.867 55.0267 129.66 55.0533 129.434 55.08C129.207 55.1067 129.007 55.12 128.834 55.12ZM135.001 55.24C134.268 55.24 133.621 55.1133 133.061 54.86C132.515 54.5933 132.088 54.2333 131.781 53.78C131.475 53.3133 131.321 52.7667 131.321 52.14C131.321 51.5533 131.448 51.0267 131.701 50.56C131.968 50.0933 132.375 49.7 132.921 49.38C133.468 49.06 134.155 48.8333 134.981 48.7L138.741 48.08V49.86L135.421 50.44C134.821 50.5467 134.381 50.74 134.101 51.02C133.821 51.2867 133.681 51.6333 133.681 52.06C133.681 52.4733 133.835 52.8133 134.141 53.08C134.461 53.3333 134.868 53.46 135.361 53.46C135.975 53.46 136.508 53.3267 136.961 53.06C137.428 52.7933 137.788 52.44 138.041 52C138.295 51.5467 138.421 51.0467 138.421 50.5V47.72C138.421 47.1867 138.221 46.7533 137.821 46.42C137.435 46.0733 136.915 45.9 136.261 45.9C135.661 45.9 135.135 46.06 134.681 46.38C134.241 46.6867 133.915 47.0867 133.701 47.58L131.821 46.64C132.021 46.1067 132.348 45.64 132.801 45.24C133.255 44.8267 133.781 44.5067 134.381 44.28C134.995 44.0533 135.641 43.94 136.321 43.94C137.175 43.94 137.928 44.1 138.581 44.42C139.248 44.74 139.761 45.1867 140.121 45.76C140.495 46.32 140.681 46.9733 140.681 47.72V55H138.521V53.04L138.981 53.1C138.728 53.54 138.401 53.92 138.001 54.24C137.615 54.56 137.168 54.8067 136.661 54.98C136.168 55.1533 135.615 55.24 135.001 55.24ZM147.409 55.12C146.275 55.12 145.395 54.8 144.769 54.16C144.142 53.52 143.829 52.62 143.829 51.46V46.22H141.929V44.18H142.229C142.735 44.18 143.129 44.0333 143.409 43.74C143.689 43.4467 143.829 43.0467 143.829 42.54V41.7H146.089V44.18H148.549V46.22H146.089V51.36C146.089 51.7333 146.149 52.0533 146.269 52.32C146.389 52.5733 146.582 52.7733 146.849 52.92C147.115 53.0533 147.462 53.12 147.889 53.12C147.995 53.12 148.115 53.1133 148.249 53.1C148.382 53.0867 148.509 53.0733 148.629 53.06V55C148.442 55.0267 148.235 55.0533 148.009 55.08C147.782 55.1067 147.582 55.12 147.409 55.12ZM150.434 55V44.18H152.694V55H150.434ZM150.434 42.7V40.1H152.694V42.7H150.434ZM158.936 55.24C157.83 55.24 156.856 54.9667 156.016 54.42C155.19 53.8733 154.61 53.14 154.276 52.22L156.016 51.4C156.31 52.0133 156.71 52.5 157.216 52.86C157.736 53.22 158.31 53.4 158.936 53.4C159.47 53.4 159.903 53.28 160.236 53.04C160.57 52.8 160.736 52.4733 160.736 52.06C160.736 51.7933 160.663 51.58 160.516 51.42C160.37 51.2467 160.183 51.1067 159.956 51C159.743 50.8933 159.523 50.8133 159.296 50.76L157.596 50.28C156.663 50.0133 155.963 49.6133 155.496 49.08C155.043 48.5333 154.816 47.9 154.816 47.18C154.816 46.5267 154.983 45.96 155.316 45.48C155.65 44.9867 156.11 44.6067 156.696 44.34C157.283 44.0733 157.943 43.94 158.676 43.94C159.663 43.94 160.543 44.1867 161.316 44.68C162.09 45.16 162.636 45.8333 162.956 46.7L161.216 47.52C161.003 47 160.663 46.5867 160.196 46.28C159.743 45.9733 159.23 45.82 158.656 45.82C158.163 45.82 157.77 45.94 157.476 46.18C157.183 46.4067 157.036 46.7067 157.036 47.08C157.036 47.3333 157.103 47.5467 157.236 47.72C157.37 47.88 157.543 48.0133 157.756 48.12C157.97 48.2133 158.19 48.2933 158.416 48.36L160.176 48.88C161.07 49.1333 161.756 49.5333 162.236 50.08C162.716 50.6133 162.956 51.2533 162.956 52C162.956 52.64 162.783 53.2067 162.436 53.7C162.103 54.18 161.636 54.56 161.036 54.84C160.436 55.1067 159.736 55.24 158.936 55.24ZM169.451 55.12C168.317 55.12 167.437 54.8 166.811 54.16C166.184 53.52 165.871 52.62 165.871 51.46V46.22H163.971V44.18H164.271C164.777 44.18 165.171 44.0333 165.451 43.74C165.731 43.4467 165.871 43.0467 165.871 42.54V41.7H168.131V44.18H170.591V46.22H168.131V51.36C168.131 51.7333 168.191 52.0533 168.311 52.32C168.431 52.5733 168.624 52.7733 168.891 52.92C169.157 53.0533 169.504 53.12 169.931 53.12C170.037 53.12 170.157 53.1133 170.291 53.1C170.424 53.0867 170.551 53.0733 170.671 53.06V55C170.484 55.0267 170.277 55.0533 170.051 55.08C169.824 55.1067 169.624 55.12 169.451 55.12ZM172.476 55V44.18H174.736V55H172.476ZM172.476 42.7V40.1H174.736V42.7H172.476ZM182.119 55.24C181.039 55.24 180.079 54.9933 179.239 54.5C178.412 53.9933 177.752 53.3133 177.259 52.46C176.779 51.6067 176.539 50.64 176.539 49.56C176.539 48.4933 176.779 47.5333 177.259 46.68C177.739 45.8267 178.399 45.16 179.239 44.68C180.079 44.1867 181.039 43.94 182.119 43.94C182.852 43.94 183.539 44.0733 184.179 44.34C184.819 44.5933 185.372 44.9467 185.839 45.4C186.319 45.8533 186.672 46.38 186.899 46.98L184.919 47.9C184.692 47.34 184.325 46.8933 183.819 46.56C183.325 46.2133 182.759 46.04 182.119 46.04C181.505 46.04 180.952 46.1933 180.459 46.5C179.979 46.7933 179.599 47.2133 179.319 47.76C179.039 48.2933 178.899 48.9 178.899 49.58C178.899 50.26 179.039 50.8733 179.319 51.42C179.599 51.9533 179.979 52.3733 180.459 52.68C180.952 52.9867 181.505 53.14 182.119 53.14C182.772 53.14 183.339 52.9733 183.819 52.64C184.312 52.2933 184.679 51.8333 184.919 51.26L186.899 52.2C186.685 52.7733 186.339 53.2933 185.859 53.76C185.392 54.2133 184.839 54.5733 184.199 54.84C183.559 55.1067 182.865 55.24 182.119 55.24ZM192.707 55.24C191.601 55.24 190.627 54.9667 189.787 54.42C188.961 53.8733 188.381 53.14 188.047 52.22L189.787 51.4C190.081 52.0133 190.481 52.5 190.987 52.86C191.507 53.22 192.081 53.4 192.707 53.4C193.241 53.4 193.674 53.28 194.007 53.04C194.341 52.8 194.507 52.4733 194.507 52.06C194.507 51.7933 194.434 51.58 194.287 51.42C194.141 51.2467 193.954 51.1067 193.727 51C193.514 50.8933 193.294 50.8133 193.067 50.76L191.367 50.28C190.434 50.0133 189.734 49.6133 189.267 49.08C188.814 48.5333 188.587 47.9 188.587 47.18C188.587 46.5267 188.754 45.96 189.087 45.48C189.421 44.9867 189.881 44.6067 190.467 44.34C191.054 44.0733 191.714 43.94 192.447 43.94C193.434 43.94 194.314 44.1867 195.087 44.68C195.861 45.16 196.407 45.8333 196.727 46.7L194.987 47.52C194.774 47 194.434 46.5867 193.967 46.28C193.514 45.9733 193.001 45.82 192.427 45.82C191.934 45.82 191.541 45.94 191.247 46.18C190.954 46.4067 190.807 46.7067 190.807 47.08C190.807 47.3333 190.874 47.5467 191.007 47.72C191.141 47.88 191.314 48.0133 191.527 48.12C191.741 48.2133 191.961 48.2933 192.187 48.36L193.947 48.88C194.841 49.1333 195.527 49.5333 196.007 50.08C196.487 50.6133 196.727 51.2533 196.727 52C196.727 52.64 196.554 53.2067 196.207 53.7C195.874 54.18 195.407 54.56 194.807 54.84C194.207 55.1067 193.507 55.24 192.707 55.24Z"
                      fill="#90A3BF"
                    />
                    <g clip-path="url(#clip1_205_3017)">
                      <path
                        d="M36.5126 283.286L34.6979 284.092C33.0573 284.822 32 286.449 32 288.244V482.909C32 485.418 34.0339 487.452 36.5429 487.452H636.21C638.719 487.452 640.753 485.418 640.753 482.909V264.639C640.753 264.029 640.622 263.425 640.37 262.869C638.67 259.13 633.19 259.701 632.299 263.711L630.908 269.969C629.995 274.078 624.469 274.843 622.473 271.137L621.596 269.509C620.804 268.037 619.268 267.12 617.597 267.12H608.008C605.9 267.12 604.069 265.669 603.586 263.617L600.327 249.768C600.034 248.522 599.229 247.458 598.111 246.837L592.854 243.916C590.982 242.876 588.638 243.284 587.228 244.896L586.916 245.252C584.605 247.894 580.298 247.028 579.188 243.697L575.03 231.224C574.931 230.926 574.863 230.619 574.827 230.308L571.655 202.82C571.537 201.801 571.079 200.853 570.354 200.128L566.926 196.699C564.429 194.202 560.162 195.384 559.306 198.81L558.07 203.751C557.448 206.24 554.415 207.19 552.484 205.501C550.415 203.69 547.163 204.928 546.822 207.657L541.554 249.802C540.93 254.793 533.859 255.22 532.639 250.34L530.587 242.134C530.037 237.598 523.413 237.734 523.051 242.289L521.97 255.877C521.532 261.38 513.508 261.486 512.924 255.997L512.625 253.186C512.491 251.932 511.842 250.79 510.833 250.033L507.872 247.812L505.197 245.583C503.352 244.045 500.533 245.073 500.111 247.438C499.457 251.097 494.107 250.77 493.903 247.059L490.454 184.293C490.271 180.96 485.703 180.177 484.419 183.258C484.161 183.877 483.712 184.397 483.136 184.743L478.871 187.302C475.999 189.025 472.313 187.153 472.009 183.818L466.8 126.515C466.44 122.554 461.523 120.935 458.88 123.908L457.729 125.203C457.102 125.909 456.71 126.794 456.608 127.733L452.373 166.911C452.274 167.823 451.902 168.683 451.305 169.38L447.475 173.848C446.233 175.297 444.218 175.815 442.431 175.145L441.429 174.769C438.772 173.773 435.861 175.43 435.362 178.225L434.092 185.337C433.246 190.077 426.575 190.416 425.252 185.787L424.411 182.845C424.042 181.551 423.118 180.488 421.888 179.942L414.964 176.864C414.089 176.476 413.388 175.78 412.992 174.909C411.416 171.442 406.319 172.043 405.592 175.781L400.692 200.979C400.277 203.113 398.408 204.654 396.233 204.654H387.624C385.54 204.654 383.723 206.073 383.217 208.095L381.1 216.564C380.847 217.575 379.94 218.283 378.899 218.283C377.922 218.283 377.055 218.908 376.746 219.835L375.421 223.809C374.093 227.793 368.533 227.996 366.918 224.12L366.152 222.281C365.989 221.889 365.771 221.522 365.506 221.191L362.071 216.898C361.606 216.316 361.291 215.629 361.154 214.897L358.073 198.465C357.995 198.05 357.86 197.648 357.671 197.271L354.922 191.773C354.675 191.279 354.52 190.744 354.465 190.194L351.893 164.474C351.552 161.064 347.704 159.245 344.853 161.146L342.59 162.654C341.526 163.364 340.81 164.489 340.619 165.753L335.62 198.748C335.384 200.302 334.362 201.624 332.917 202.243L331.569 202.821C329.223 203.826 326.51 202.702 325.562 200.332L323.198 194.422C321.969 191.35 317.903 190.706 315.785 193.248C315.146 194.015 314.264 194.54 313.285 194.735L301.694 197.053C299.448 197.503 297.218 196.209 296.493 194.035L292.378 181.689C292.183 181.105 291.872 180.567 291.464 180.107L289.529 177.93C286.955 175.035 282.171 176.482 281.634 180.319L275.999 220.572C275.547 223.796 271.953 225.513 269.162 223.838L258.862 217.658C255.913 215.888 252.143 217.911 251.987 221.347L247.905 311.151C247.833 312.726 246.95 314.151 245.573 314.916L238.35 318.929C237.833 319.216 237.378 319.601 237.009 320.062L228.836 330.278C228.601 330.572 228.403 330.894 228.248 331.237L223.068 342.632C222.892 343.018 222.772 343.427 222.71 343.846L218.835 370.002C218.505 372.229 216.593 373.879 214.341 373.879H210.868C208.597 373.879 206.674 375.557 206.367 377.808L204.502 391.487C204.043 394.856 200.181 396.544 197.395 394.595L193.585 391.927C192.655 391.276 192.002 390.3 191.755 389.191L189.257 377.949C188.509 374.581 184.427 373.244 181.831 375.516L179.518 377.539C178.86 378.115 178.382 378.869 178.142 379.71L175.015 390.654C174.152 393.675 169.822 393.53 169.164 390.457C168.436 387.062 163.491 387.382 163.207 390.842L158.835 444.029C158.524 447.814 153.983 449.569 151.208 446.978L142.188 438.561C141.439 437.861 140.948 436.928 140.795 435.913L137.922 416.755C137.732 415.488 137.015 414.36 135.949 413.649L135.832 413.571C134.8 412.883 134.094 411.803 133.878 410.581L131.248 395.676C130.975 394.128 129.921 392.831 128.462 392.247L123.608 390.306C121.43 389.434 118.989 390.723 118.48 393.013C117.605 396.952 112.008 396.999 111.066 393.076L108.342 381.726C108.179 381.046 107.862 380.414 107.414 379.877L103.778 375.513C102.915 374.478 101.636 373.879 100.288 373.879H99.7543C98.5494 373.879 97.3939 373.4 96.542 372.548L94.7493 370.756C93.2535 369.26 90.9231 368.994 89.1292 370.115L84.6154 372.937C83.6463 373.542 82.941 374.491 82.6403 375.594L82.384 376.534C81.0726 381.342 74.0949 380.836 73.4916 375.888L70.9266 354.856C70.7333 353.27 69.7216 351.903 68.2622 351.254L62.5419 348.712C61.1944 348.113 60.2214 346.897 59.9322 345.451L58.6737 339.159C58.3529 337.554 56.9441 336.4 55.3079 336.4C53.649 336.4 52.2275 335.213 51.9308 333.581L50.465 325.519C50.2952 324.585 49.4818 323.906 48.5326 323.906C47.5276 323.906 46.6847 323.148 46.5794 322.148L42.8756 286.962C42.5527 283.894 39.3315 282.033 36.5126 283.286Z"
                        fill="url(#paint0_linear_205_3017)"
                      />
                      <path
                        d="M32 285.291L36.5126 283.286C39.3315 282.033 42.5527 283.894 42.8756 286.962L46.5794 322.148C46.6847 323.148 47.5276 323.906 48.5326 323.906V323.906C49.4818 323.906 50.2952 324.585 50.465 325.519L51.9308 333.581C52.2275 335.213 53.649 336.4 55.3079 336.4V336.4C56.9441 336.4 58.3529 337.554 58.6737 339.159L59.9322 345.451C60.2214 346.897 61.1944 348.113 62.5419 348.712L68.2622 351.254C69.7216 351.903 70.7333 353.27 70.9266 354.856L73.4916 375.888C74.0949 380.836 81.0726 381.342 82.384 376.534L82.6403 375.594C82.941 374.491 83.6463 373.542 84.6154 372.937L89.1293 370.115C90.9231 368.994 93.2535 369.26 94.7493 370.756L96.542 372.548C97.3939 373.4 98.5494 373.879 99.7543 373.879H100.288C101.636 373.879 102.915 374.478 103.778 375.513L107.414 379.877C107.862 380.414 108.179 381.046 108.342 381.726L111.066 393.076C112.008 396.999 117.605 396.952 118.48 393.013V393.013C118.989 390.723 121.43 389.434 123.608 390.306L128.462 392.247C129.921 392.831 130.975 394.128 131.248 395.676L133.878 410.581C134.094 411.803 134.8 412.883 135.832 413.571L135.949 413.649C137.015 414.36 137.732 415.488 137.922 416.755L140.795 435.913C140.948 436.928 141.439 437.861 142.188 438.561L151.208 446.978C153.983 449.569 158.524 447.814 158.835 444.03L163.207 390.842C163.491 387.382 168.436 387.062 169.164 390.457V390.457C169.822 393.53 174.152 393.675 175.015 390.654L178.142 379.71C178.382 378.869 178.86 378.115 179.518 377.539L181.831 375.516C184.427 373.244 188.509 374.581 189.257 377.949L191.755 389.191C192.002 390.3 192.655 391.276 193.585 391.927L197.395 394.595C200.181 396.544 204.043 394.856 204.502 391.487L206.367 377.808C206.674 375.557 208.597 373.879 210.868 373.879H214.341C216.593 373.879 218.505 372.229 218.835 370.002L222.71 343.846C222.772 343.427 222.892 343.018 223.068 342.632L228.248 331.237C228.403 330.894 228.601 330.572 228.836 330.278L237.009 320.062C237.378 319.601 237.834 319.216 238.35 318.929L245.573 314.916C246.95 314.151 247.833 312.726 247.905 311.151L251.987 221.347C252.143 217.911 255.913 215.888 258.862 217.658L269.162 223.838C271.953 225.513 275.547 223.796 275.999 220.572L281.634 180.319C282.171 176.482 286.955 175.035 289.529 177.93L291.464 180.107C291.872 180.567 292.183 181.105 292.378 181.689L296.493 194.035C297.218 196.209 299.448 197.503 301.694 197.053L313.285 194.735C314.264 194.54 315.146 194.015 315.785 193.248V193.248C317.903 190.706 321.969 191.35 323.198 194.422L325.562 200.332C326.51 202.702 329.223 203.826 331.569 202.821L332.917 202.243C334.362 201.624 335.384 200.302 335.62 198.748L340.619 165.753C340.81 164.489 341.526 163.364 342.59 162.654L344.853 161.146C347.704 159.245 351.552 161.064 351.893 164.474L354.465 190.194C354.52 190.744 354.675 191.279 354.922 191.773L357.671 197.271C357.86 197.648 357.995 198.05 358.073 198.465L361.154 214.897C361.291 215.629 361.606 216.316 362.071 216.898L365.506 221.191C365.771 221.522 365.989 221.889 366.152 222.281L366.918 224.12C368.533 227.996 374.093 227.793 375.421 223.809L376.746 219.835C377.055 218.908 377.922 218.283 378.899 218.283V218.283C379.94 218.283 380.847 217.575 381.1 216.564L383.217 208.095C383.723 206.073 385.54 204.654 387.624 204.654H396.233C398.408 204.654 400.277 203.113 400.692 200.979L405.592 175.781C406.319 172.043 411.416 171.442 412.992 174.909V174.909C413.388 175.78 414.089 176.476 414.964 176.864L421.888 179.942C423.118 180.488 424.042 181.551 424.411 182.845L425.252 185.787C426.575 190.416 433.246 190.077 434.092 185.337L435.362 178.225C435.861 175.43 438.772 173.773 441.429 174.769L442.431 175.145C444.218 175.815 446.233 175.297 447.475 173.848L451.305 169.38C451.902 168.683 452.274 167.823 452.373 166.911L456.608 127.733C456.71 126.794 457.102 125.909 457.729 125.203L458.88 123.908C461.523 120.935 466.44 122.554 466.8 126.515L472.009 183.818C472.313 187.153 475.999 189.025 478.871 187.302L483.136 184.743C483.712 184.397 484.161 183.877 484.419 183.258V183.258C485.703 180.177 490.271 180.96 490.454 184.293L493.903 247.059C494.107 250.77 499.457 251.097 500.111 247.438V247.438C500.533 245.073 503.352 244.045 505.197 245.583L507.872 247.812L510.833 250.033C511.842 250.79 512.491 251.932 512.625 253.186L512.924 255.997C513.508 261.486 521.532 261.379 521.97 255.876L523.05 242.289C523.413 237.734 530.037 237.598 530.587 242.134V242.134L532.639 250.34C533.859 255.22 540.93 254.793 541.554 249.802L546.822 207.657C547.163 204.928 550.415 203.69 552.484 205.501V205.501C554.415 207.19 557.448 206.24 558.071 203.751L559.306 198.81C560.162 195.384 564.429 194.202 566.926 196.699L570.354 200.128C571.079 200.853 571.537 201.801 571.655 202.82L574.827 230.308C574.863 230.619 574.931 230.926 575.03 231.224L579.188 243.697C580.298 247.028 584.605 247.894 586.916 245.252L587.228 244.896C588.638 243.284 590.982 242.876 592.854 243.916L598.111 246.837C599.229 247.458 600.034 248.522 600.327 249.768L603.586 263.617C604.069 265.669 605.9 267.12 608.008 267.12H617.597C619.268 267.12 620.804 268.037 621.597 269.509L622.473 271.137C624.469 274.843 629.995 274.077 630.908 269.969L632.127 264.484C633.073 260.226 638.948 259.742 640.753 263.713V263.713"
                        stroke="#659711"
                        stroke-width="3"
                      />
                    </g>
                    <defs>
                      <linearGradient
                        id="paint0_linear_205_3017"
                        x1="297"
                        y1="-1258"
                        x2="336.377"
                        y2="513.574"
                        gradientUnits="userSpaceOnUse"
                      >
                        <stop stop-color="#659711" />
                        <stop offset="1" stop-color="#659711" stop-opacity="0" />
                      </linearGradient>
                      <clipPath id="clip0_205_3017">
                        <rect
                          width="422"
                          height="204"
                          fill="white"
                          transform="translate(32 191)"
                        />
                      </clipPath>
                      <clipPath id="clip1_205_3017">
                        <rect
                          width="422"
                          height="286"
                          fill="white"
                          transform="translate(32 116)"
                        />
                      </clipPath>
                    </defs>
                  </svg>