 <svg
                    width="486"
                    height="434"
                    viewBox="0 0 486 434"
                    fill="none"
                    xmlns="http://www.w3.org/2000/svg"
                  >
                    <rect width="486" height="434" rx="12" fill="#FAFAFA" />
                    <g opacity="0.4" clip-path="url(#clip0_205_5126)">
                      <path
                        d="M458 191H32"
                        stroke="#B2B6B8"
                        stroke-dasharray="10 10"
                      />
                      <path
                        d="M458 242H32"
                        stroke="#B2B6B8"
                        stroke-dasharray="10 10"
                      />
                      <path
                        d="M458 293H32"
                        stroke="#B2B6B8"
                        stroke-dasharray="10 10"
                      />
                      <path
                        d="M458 344H32"
                        stroke="#B2B6B8"
                        stroke-dasharray="10 10"
                      />
                      <path
                        d="M458 395H32"
                        stroke="#B2B6B8"
                        stroke-dasharray="10 10"
                      />
                    </g>
                    <path
                      d="M44.168 126.432C42.464 126.432 40.88 126.12 39.416 125.496C37.976 124.872 36.728 124.008 35.672 122.904C34.64 121.776 33.884 120.468 33.404 118.98L37.472 117.216C38.12 118.752 39.056 119.964 40.28 120.852C41.504 121.716 42.884 122.148 44.42 122.148C45.284 122.148 46.028 122.016 46.652 121.752C47.3 121.464 47.792 121.08 48.128 120.6C48.488 120.12 48.668 119.544 48.668 118.872C48.668 118.08 48.428 117.432 47.948 116.928C47.492 116.4 46.796 115.992 45.86 115.704L40.712 114.048C38.624 113.4 37.052 112.428 35.996 111.132C34.94 109.836 34.412 108.312 34.412 106.56C34.412 105.024 34.784 103.668 35.528 102.492C36.296 101.316 37.352 100.404 38.696 99.756C40.064 99.084 41.624 98.748 43.376 98.748C44.984 98.748 46.46 99.036 47.804 99.612C49.148 100.164 50.3 100.944 51.26 101.952C52.244 102.936 52.976 104.1 53.456 105.444L49.424 107.244C48.896 105.9 48.104 104.868 47.048 104.148C45.992 103.404 44.768 103.032 43.376 103.032C42.56 103.032 41.84 103.176 41.216 103.464C40.592 103.728 40.1 104.112 39.74 104.616C39.404 105.096 39.236 105.672 39.236 106.344C39.236 107.088 39.476 107.748 39.956 108.324C40.436 108.876 41.168 109.308 42.152 109.62L47.084 111.168C49.22 111.864 50.816 112.824 51.872 114.048C52.952 115.272 53.492 116.784 53.492 118.584C53.492 120.12 53.096 121.476 52.304 122.652C51.512 123.828 50.42 124.752 49.028 125.424C47.636 126.096 46.016 126.432 44.168 126.432ZM42.44 129.6V95.58H45.5V129.6H42.44ZM55.8846 126V122.292L63.1566 114.696C64.5966 113.184 65.7006 111.984 66.4686 111.096C67.2606 110.184 67.8126 109.404 68.1246 108.756C68.4366 108.108 68.5926 107.448 68.5926 106.776C68.5926 105.648 68.2326 104.76 67.5126 104.112C66.8166 103.464 65.9166 103.14 64.8126 103.14C63.6606 103.14 62.6646 103.476 61.8246 104.148C60.9846 104.796 60.3726 105.756 59.9886 107.028L55.7046 105.696C55.9926 104.28 56.5806 103.056 57.4686 102.024C58.3566 100.968 59.4366 100.164 60.7086 99.612C62.0046 99.036 63.3726 98.748 64.8126 98.748C66.5406 98.748 68.0526 99.06 69.3486 99.684C70.6686 100.308 71.6886 101.184 72.4086 102.312C73.1526 103.44 73.5246 104.76 73.5246 106.272C73.5246 107.232 73.3446 108.18 72.9846 109.116C72.6246 110.052 72.0846 111.012 71.3646 111.996C70.6446 112.956 69.7086 114.036 68.5566 115.236L62.2566 121.86H73.8846V126H55.8846ZM85.3211 126.432C83.9051 126.432 82.5491 126.168 81.2531 125.64C79.9811 125.112 78.8771 124.368 77.9411 123.408C77.0291 122.424 76.4051 121.26 76.0691 119.916L80.3171 118.404C80.7251 119.628 81.3851 120.54 82.2971 121.14C83.2091 121.716 84.2171 122.004 85.3211 122.004C86.2331 122.004 87.0371 121.812 87.7331 121.428C88.4531 121.02 89.0051 120.468 89.3891 119.772C89.7731 119.052 89.9651 118.224 89.9651 117.288C89.9651 116.352 89.7611 115.536 89.3531 114.84C88.9691 114.144 88.4291 113.604 87.7331 113.22C87.0371 112.812 86.2331 112.608 85.3211 112.608C84.3851 112.608 83.5331 112.812 82.7651 113.22C82.0211 113.628 81.4811 114.216 81.1451 114.984L77.1491 114.084L79.2731 99.18H93.8891V103.32H81.2171L83.0531 101.196L81.5411 112.428L80.1371 111.276C80.8091 110.292 81.6251 109.572 82.5851 109.116C83.5691 108.66 84.7571 108.432 86.1491 108.432C87.9251 108.432 89.4611 108.816 90.7571 109.584C92.0771 110.352 93.0971 111.396 93.8171 112.716C94.5371 114.036 94.8971 115.56 94.8971 117.288C94.8971 119.016 94.4771 120.576 93.6371 121.968C92.7971 123.36 91.6571 124.452 90.2171 125.244C88.7771 126.036 87.1451 126.432 85.3211 126.432ZM99.4055 131.616V129.276C100.197 129.084 100.833 128.712 101.313 128.16C101.817 127.632 102.129 126.912 102.249 126H100.125V120.96H104.877V124.056C104.877 126.168 104.409 127.86 103.473 129.132C102.561 130.404 101.205 131.232 99.4055 131.616ZM110.077 126L121.237 103.32H108.601V99.18H126.385V103.32L115.477 126H110.077ZM137.89 126.432C135.946 126.432 134.254 126.072 132.814 125.352C131.398 124.608 130.294 123.612 129.502 122.364C128.734 121.116 128.35 119.748 128.35 118.26C128.35 116.508 128.818 115.032 129.754 113.832C130.69 112.608 132.046 111.708 133.822 111.132L133.534 112.32C132.262 111.912 131.254 111.12 130.51 109.944C129.79 108.768 129.43 107.472 129.43 106.056C129.43 104.64 129.79 103.38 130.51 102.276C131.23 101.172 132.226 100.308 133.498 99.684C134.77 99.06 136.234 98.748 137.89 98.748C139.522 98.748 140.962 99.06 142.21 99.684C143.482 100.308 144.478 101.172 145.198 102.276C145.942 103.38 146.314 104.64 146.314 106.056C146.314 107.496 145.942 108.804 145.198 109.98C144.478 111.132 143.482 111.924 142.21 112.356L141.958 111.096C143.734 111.72 145.09 112.644 146.026 113.868C146.962 115.068 147.43 116.544 147.43 118.296C147.43 119.784 147.034 121.152 146.242 122.4C145.474 123.624 144.37 124.608 142.93 125.352C141.514 126.072 139.834 126.432 137.89 126.432ZM137.89 122.292C138.826 122.292 139.642 122.124 140.338 121.788C141.034 121.428 141.574 120.936 141.958 120.312C142.342 119.664 142.534 118.932 142.534 118.116C142.534 117.276 142.342 116.556 141.958 115.956C141.574 115.332 141.034 114.852 140.338 114.516C139.642 114.156 138.826 113.976 137.89 113.976C136.954 113.976 136.138 114.156 135.442 114.516C134.77 114.852 134.242 115.332 133.858 115.956C133.474 116.556 133.282 117.276 133.282 118.116C133.282 118.932 133.474 119.664 133.858 120.312C134.242 120.936 134.77 121.428 135.442 121.788C136.138 122.124 136.954 122.292 137.89 122.292ZM137.89 109.836C138.586 109.836 139.198 109.68 139.726 109.368C140.254 109.056 140.662 108.648 140.95 108.144C141.262 107.616 141.418 107.016 141.418 106.344C141.418 105.672 141.262 105.084 140.95 104.58C140.662 104.052 140.254 103.644 139.726 103.356C139.198 103.044 138.586 102.888 137.89 102.888C137.194 102.888 136.57 103.044 136.018 103.356C135.49 103.644 135.07 104.052 134.758 104.58C134.47 105.084 134.326 105.672 134.326 106.344C134.326 107.016 134.47 107.616 134.758 108.144C135.07 108.648 135.49 109.056 136.018 109.368C136.57 109.68 137.194 109.836 137.89 109.836ZM160.924 126.432C158.788 126.432 156.916 125.856 155.308 124.704C153.7 123.552 152.44 121.932 151.528 119.844C150.64 117.756 150.196 115.332 150.196 112.572C150.196 109.788 150.64 107.364 151.528 105.3C152.416 103.236 153.664 101.628 155.272 100.476C156.88 99.324 158.752 98.748 160.888 98.748C163.072 98.748 164.956 99.324 166.54 100.476C168.148 101.628 169.408 103.248 170.32 105.336C171.232 107.4 171.688 109.812 171.688 112.572C171.688 115.332 171.232 117.756 170.32 119.844C169.432 121.908 168.184 123.528 166.576 124.704C164.968 125.856 163.084 126.432 160.924 126.432ZM160.96 121.968C162.184 121.968 163.228 121.596 164.092 120.852C164.956 120.084 165.616 119.004 166.072 117.612C166.552 116.196 166.792 114.516 166.792 112.572C166.792 110.628 166.552 108.96 166.072 107.568C165.616 106.152 164.944 105.072 164.056 104.328C163.192 103.584 162.136 103.212 160.888 103.212C159.688 103.212 158.656 103.584 157.792 104.328C156.928 105.072 156.256 106.152 155.776 107.568C155.32 108.96 155.092 110.628 155.092 112.572C155.092 114.492 155.32 116.16 155.776 117.576C156.256 118.968 156.928 120.048 157.792 120.816C158.68 121.584 159.736 121.968 160.96 121.968ZM177.016 126V120.96H181.768V126H177.016ZM197.858 126.432C195.722 126.432 193.85 125.856 192.242 124.704C190.634 123.552 189.374 121.932 188.462 119.844C187.574 117.756 187.13 115.332 187.13 112.572C187.13 109.788 187.574 107.364 188.462 105.3C189.35 103.236 190.598 101.628 192.206 100.476C193.814 99.324 195.686 98.748 197.822 98.748C200.006 98.748 201.89 99.324 203.474 100.476C205.082 101.628 206.342 103.248 207.254 105.336C208.166 107.4 208.622 109.812 208.622 112.572C208.622 115.332 208.166 117.756 207.254 119.844C206.366 121.908 205.118 123.528 203.51 124.704C201.902 125.856 200.018 126.432 197.858 126.432ZM197.894 121.968C199.118 121.968 200.162 121.596 201.026 120.852C201.89 120.084 202.55 119.004 203.006 117.612C203.486 116.196 203.726 114.516 203.726 112.572C203.726 110.628 203.486 108.96 203.006 107.568C202.55 106.152 201.878 105.072 200.99 104.328C200.126 103.584 199.07 103.212 197.822 103.212C196.622 103.212 195.59 103.584 194.726 104.328C193.862 105.072 193.19 106.152 192.71 107.568C192.254 108.96 192.026 110.628 192.026 112.572C192.026 114.492 192.254 116.16 192.71 117.576C193.19 118.968 193.862 120.048 194.726 120.816C195.614 121.584 196.67 121.968 197.894 121.968ZM222.266 126.432C220.13 126.432 218.258 125.856 216.65 124.704C215.042 123.552 213.782 121.932 212.87 119.844C211.982 117.756 211.538 115.332 211.538 112.572C211.538 109.788 211.982 107.364 212.87 105.3C213.758 103.236 215.006 101.628 216.614 100.476C218.222 99.324 220.094 98.748 222.23 98.748C224.414 98.748 226.298 99.324 227.882 100.476C229.49 101.628 230.75 103.248 231.662 105.336C232.574 107.4 233.03 109.812 233.03 112.572C233.03 115.332 232.574 117.756 231.662 119.844C230.774 121.908 229.526 123.528 227.918 124.704C226.31 125.856 224.426 126.432 222.266 126.432ZM222.302 121.968C223.526 121.968 224.57 121.596 225.434 120.852C226.298 120.084 226.958 119.004 227.414 117.612C227.894 116.196 228.134 114.516 228.134 112.572C228.134 110.628 227.894 108.96 227.414 107.568C226.958 106.152 226.286 105.072 225.398 104.328C224.534 103.584 223.478 103.212 222.23 103.212C221.03 103.212 219.998 103.584 219.134 104.328C218.27 105.072 217.598 106.152 217.118 107.568C216.662 108.96 216.434 110.628 216.434 112.572C216.434 114.492 216.662 116.16 217.118 117.576C217.598 118.968 218.27 120.048 219.134 120.816C220.022 121.584 221.078 121.968 222.302 121.968Z"
                      fill="#1A202C"
                    />
                    <path
                      d="M283.118 114.866L282.369 123.417L273.818 122.669"
                      stroke="#DB2719"
                      stroke-width="2.5"
                      stroke-miterlimit="10"
                      stroke-linecap="round"
                      stroke-linejoin="round"
                    />
                    <path
                      d="M271.442 110.395L282.26 123.287"
                      stroke="#DB2719"
                      stroke-width="2.5"
                      stroke-miterlimit="10"
                      stroke-linecap="round"
                      stroke-linejoin="round"
                    />
                    <path
                      d="M305.372 124.427V121.147H298.532V118.867L305.212 109.527H308.052V118.867H310.232V121.147H308.052V124.427H305.372ZM300.532 119.847L300.052 118.867H305.372V111.667L306.072 111.887L300.532 119.847ZM316.238 124.667C315.451 124.667 314.698 124.52 313.978 124.227C313.271 123.933 312.658 123.52 312.138 122.987C311.631 122.44 311.285 121.793 311.098 121.047L313.458 120.207C313.685 120.887 314.051 121.393 314.558 121.727C315.065 122.047 315.625 122.207 316.238 122.207C316.745 122.207 317.191 122.1 317.578 121.887C317.978 121.66 318.285 121.353 318.498 120.967C318.711 120.567 318.818 120.107 318.818 119.587C318.818 119.067 318.705 118.613 318.478 118.227C318.265 117.84 317.965 117.54 317.578 117.327C317.191 117.1 316.745 116.987 316.238 116.987C315.718 116.987 315.245 117.1 314.818 117.327C314.405 117.553 314.105 117.88 313.918 118.307L311.698 117.807L312.878 109.527H320.998V111.827H313.958L314.978 110.647L314.138 116.887L313.358 116.247C313.731 115.7 314.185 115.3 314.718 115.047C315.265 114.793 315.925 114.667 316.698 114.667C317.685 114.667 318.538 114.88 319.258 115.307C319.991 115.733 320.558 116.313 320.958 117.047C321.358 117.78 321.558 118.627 321.558 119.587C321.558 120.547 321.325 121.413 320.858 122.187C320.391 122.96 319.758 123.567 318.958 124.007C318.158 124.447 317.251 124.667 316.238 124.667ZM324.063 127.547V126.247C324.503 126.14 324.856 125.933 325.123 125.627C325.403 125.333 325.576 124.933 325.643 124.427H324.463V121.627H327.103V123.347C327.103 124.52 326.843 125.46 326.323 126.167C325.816 126.873 325.063 127.333 324.063 127.547ZM334.591 124.667C333.578 124.667 332.678 124.453 331.891 124.027C331.118 123.587 330.511 123 330.071 122.267C329.631 121.52 329.411 120.673 329.411 119.727C329.411 119.247 329.458 118.767 329.551 118.287C329.658 117.807 329.844 117.293 330.111 116.747C330.391 116.2 330.791 115.593 331.311 114.927L335.471 109.527H338.711L333.651 116.027L333.211 115.547C333.398 115.4 333.591 115.287 333.791 115.207C333.991 115.113 334.191 115.047 334.391 115.007C334.604 114.967 334.824 114.947 335.051 114.947C335.958 114.947 336.764 115.153 337.471 115.567C338.178 115.98 338.731 116.547 339.131 117.267C339.544 117.973 339.751 118.773 339.751 119.667C339.751 120.627 339.531 121.487 339.091 122.247C338.651 122.993 338.038 123.587 337.251 124.027C336.478 124.453 335.591 124.667 334.591 124.667ZM334.591 122.207C335.044 122.207 335.451 122.107 335.811 121.907C336.184 121.693 336.478 121.393 336.691 121.007C336.918 120.62 337.031 120.187 337.031 119.707C337.031 119.2 336.918 118.767 336.691 118.407C336.478 118.033 336.191 117.74 335.831 117.527C335.471 117.313 335.058 117.207 334.591 117.207C334.138 117.207 333.724 117.313 333.351 117.527C332.978 117.74 332.678 118.033 332.451 118.407C332.238 118.767 332.131 119.2 332.131 119.707C332.131 120.187 332.238 120.62 332.451 121.007C332.678 121.393 332.978 121.693 333.351 121.907C333.724 122.107 334.138 122.207 334.591 122.207ZM345.997 124.427L358.077 109.527H360.877L348.797 124.427H345.997ZM348.317 117.087C347.584 117.087 346.917 116.913 346.317 116.567C345.73 116.207 345.264 115.733 344.917 115.147C344.57 114.56 344.397 113.907 344.397 113.187C344.397 112.467 344.57 111.813 344.917 111.227C345.264 110.627 345.73 110.153 346.317 109.807C346.917 109.46 347.584 109.287 348.317 109.287C349.064 109.287 349.73 109.46 350.317 109.807C350.904 110.153 351.37 110.627 351.717 111.227C352.064 111.813 352.237 112.467 352.237 113.187C352.237 113.907 352.064 114.56 351.717 115.147C351.37 115.733 350.904 116.207 350.317 116.567C349.73 116.913 349.064 117.087 348.317 117.087ZM348.317 115.067C348.717 115.067 349.05 114.98 349.317 114.807C349.584 114.62 349.784 114.387 349.917 114.107C350.064 113.813 350.137 113.507 350.137 113.187C350.137 112.853 350.064 112.547 349.917 112.267C349.784 111.987 349.584 111.753 349.317 111.567C349.05 111.38 348.717 111.287 348.317 111.287C347.944 111.287 347.617 111.38 347.337 111.567C347.07 111.753 346.864 111.993 346.717 112.287C346.57 112.567 346.497 112.867 346.497 113.187C346.497 113.493 346.57 113.793 346.717 114.087C346.864 114.38 347.07 114.62 347.337 114.807C347.617 114.98 347.944 115.067 348.317 115.067ZM358.477 124.667C357.744 124.667 357.077 124.493 356.477 124.147C355.89 123.787 355.424 123.313 355.077 122.727C354.73 122.14 354.557 121.487 354.557 120.767C354.557 120.047 354.73 119.393 355.077 118.807C355.424 118.207 355.89 117.733 356.477 117.387C357.077 117.04 357.744 116.867 358.477 116.867C359.224 116.867 359.89 117.04 360.477 117.387C361.064 117.733 361.53 118.207 361.877 118.807C362.224 119.393 362.397 120.047 362.397 120.767C362.397 121.487 362.224 122.14 361.877 122.727C361.53 123.313 361.064 123.787 360.477 124.147C359.89 124.493 359.224 124.667 358.477 124.667ZM358.477 122.647C358.864 122.647 359.19 122.56 359.457 122.387C359.737 122.2 359.944 121.967 360.077 121.687C360.224 121.393 360.297 121.087 360.297 120.767C360.297 120.433 360.224 120.127 360.077 119.847C359.944 119.567 359.737 119.333 359.457 119.147C359.19 118.96 358.864 118.867 358.477 118.867C358.104 118.867 357.777 118.96 357.497 119.147C357.23 119.333 357.024 119.573 356.877 119.867C356.73 120.147 356.657 120.447 356.657 120.767C356.657 121.073 356.73 121.373 356.877 121.667C357.024 121.96 357.23 122.2 357.497 122.387C357.777 122.56 358.104 122.647 358.477 122.647Z"
                      fill="#DB2719"
                    />
                    <path
                      d="M435 45C433.9 45 433 45.9 433 47C433 48.1 433.9 49 435 49C436.1 49 437 48.1 437 47C437 45.9 436.1 45 435 45Z"
                      stroke="#90A3BF"
                      stroke-width="1.5"
                    />
                    <path
                      d="M449 45C447.9 45 447 45.9 447 47C447 48.1 447.9 49 449 49C450.1 49 451 48.1 451 47C451 45.9 450.1 45 449 45Z"
                      stroke="#90A3BF"
                      stroke-width="1.5"
                    />
                    <path
                      d="M442 45C440.9 45 440 45.9 440 47C440 48.1 440.9 49 442 49C443.1 49 444 48.1 444 47C444 45.9 443.1 45 442 45Z"
                      stroke="#90A3BF"
                      stroke-width="1.5"
                    />
                    <path
                      d="M33.54 55V40.1H39.82C40.7533 40.1 41.56 40.2667 42.24 40.6C42.92 40.92 43.44 41.3867 43.8 42C44.16 42.6 44.34 43.3133 44.34 44.14C44.34 44.86 44.1533 45.52 43.78 46.12C43.42 46.7067 42.8533 47.1733 42.08 47.52V46.52C42.76 46.7867 43.3133 47.1267 43.74 47.54C44.1667 47.94 44.4733 48.3933 44.66 48.9C44.86 49.4067 44.96 49.94 44.96 50.5C44.96 51.9 44.5 53 43.58 53.8C42.6733 54.6 41.4267 55 39.84 55H33.54ZM35.9 52.9H40.02C40.8067 52.9 41.4333 52.6867 41.9 52.26C42.3667 51.82 42.6 51.24 42.6 50.52C42.6 49.7867 42.3667 49.2067 41.9 48.78C41.4333 48.34 40.8067 48.12 40.02 48.12H35.9V52.9ZM35.9 46.04H39.88C40.52 46.04 41.0333 45.86 41.42 45.5C41.8067 45.1267 42 44.64 42 44.04C42 43.44 41.8067 42.9733 41.42 42.64C41.0333 42.3067 40.52 42.14 39.88 42.14H35.9V46.04ZM50.0077 55.24C49.2743 55.24 48.6277 55.1133 48.0677 54.86C47.521 54.5933 47.0943 54.2333 46.7877 53.78C46.481 53.3133 46.3277 52.7667 46.3277 52.14C46.3277 51.5533 46.4543 51.0267 46.7077 50.56C46.9743 50.0933 47.381 49.7 47.9277 49.38C48.4743 49.06 49.161 48.8333 49.9877 48.7L53.7477 48.08V49.86L50.4277 50.44C49.8277 50.5467 49.3877 50.74 49.1077 51.02C48.8277 51.2867 48.6877 51.6333 48.6877 52.06C48.6877 52.4733 48.841 52.8133 49.1477 53.08C49.4677 53.3333 49.8743 53.46 50.3677 53.46C50.981 53.46 51.5143 53.3267 51.9677 53.06C52.4343 52.7933 52.7943 52.44 53.0477 52C53.301 51.5467 53.4277 51.0467 53.4277 50.5V47.72C53.4277 47.1867 53.2277 46.7533 52.8277 46.42C52.441 46.0733 51.921 45.9 51.2677 45.9C50.6677 45.9 50.141 46.06 49.6877 46.38C49.2477 46.6867 48.921 47.0867 48.7077 47.58L46.8277 46.64C47.0277 46.1067 47.3543 45.64 47.8077 45.24C48.261 44.8267 48.7877 44.5067 49.3877 44.28C50.001 44.0533 50.6477 43.94 51.3277 43.94C52.181 43.94 52.9343 44.1 53.5877 44.42C54.2543 44.74 54.7677 45.1867 55.1277 45.76C55.501 46.32 55.6877 46.9733 55.6877 47.72V55H53.5277V53.04L53.9877 53.1C53.7343 53.54 53.4077 53.92 53.0077 54.24C52.621 54.56 52.1743 54.8067 51.6677 54.98C51.1743 55.1533 50.621 55.24 50.0077 55.24ZM57.9302 55V39.86H60.1902V55H57.9302ZM65.6725 55.24C64.9392 55.24 64.2925 55.1133 63.7325 54.86C63.1858 54.5933 62.7592 54.2333 62.4525 53.78C62.1458 53.3133 61.9925 52.7667 61.9925 52.14C61.9925 51.5533 62.1192 51.0267 62.3725 50.56C62.6392 50.0933 63.0458 49.7 63.5925 49.38C64.1392 49.06 64.8258 48.8333 65.6525 48.7L69.4125 48.08V49.86L66.0925 50.44C65.4925 50.5467 65.0525 50.74 64.7725 51.02C64.4925 51.2867 64.3525 51.6333 64.3525 52.06C64.3525 52.4733 64.5058 52.8133 64.8125 53.08C65.1325 53.3333 65.5392 53.46 66.0325 53.46C66.6458 53.46 67.1792 53.3267 67.6325 53.06C68.0992 52.7933 68.4592 52.44 68.7125 52C68.9658 51.5467 69.0925 51.0467 69.0925 50.5V47.72C69.0925 47.1867 68.8925 46.7533 68.4925 46.42C68.1058 46.0733 67.5858 45.9 66.9325 45.9C66.3325 45.9 65.8058 46.06 65.3525 46.38C64.9125 46.6867 64.5858 47.0867 64.3725 47.58L62.4925 46.64C62.6925 46.1067 63.0192 45.64 63.4725 45.24C63.9258 44.8267 64.4525 44.5067 65.0525 44.28C65.6658 44.0533 66.3125 43.94 66.9925 43.94C67.8458 43.94 68.5992 44.1 69.2525 44.42C69.9192 44.74 70.4325 45.1867 70.7925 45.76C71.1658 46.32 71.3525 46.9733 71.3525 47.72V55H69.1925V53.04L69.6525 53.1C69.3992 53.54 69.0725 53.92 68.6725 54.24C68.2858 54.56 67.8392 54.8067 67.3325 54.98C66.8392 55.1533 66.2858 55.24 65.6725 55.24ZM73.595 55V44.18H75.755V46.3L75.495 46.02C75.7617 45.34 76.1883 44.8267 76.775 44.48C77.3617 44.12 78.0417 43.94 78.815 43.94C79.615 43.94 80.3217 44.1133 80.935 44.46C81.5483 44.8067 82.0283 45.2867 82.375 45.9C82.7217 46.5133 82.895 47.22 82.895 48.02V55H80.655V48.62C80.655 48.0733 80.555 47.6133 80.355 47.24C80.155 46.8533 79.8683 46.56 79.495 46.36C79.135 46.1467 78.7217 46.04 78.255 46.04C77.7883 46.04 77.3683 46.1467 76.995 46.36C76.635 46.56 76.355 46.8533 76.155 47.24C75.955 47.6267 75.855 48.0867 75.855 48.62V55H73.595ZM90.0538 55.24C88.9738 55.24 88.0138 54.9933 87.1738 54.5C86.3471 53.9933 85.6871 53.3133 85.1938 52.46C84.7138 51.6067 84.4738 50.64 84.4738 49.56C84.4738 48.4933 84.7138 47.5333 85.1938 46.68C85.6738 45.8267 86.3338 45.16 87.1738 44.68C88.0138 44.1867 88.9738 43.94 90.0538 43.94C90.7871 43.94 91.4738 44.0733 92.1138 44.34C92.7538 44.5933 93.3071 44.9467 93.7738 45.4C94.2538 45.8533 94.6071 46.38 94.8338 46.98L92.8538 47.9C92.6271 47.34 92.2604 46.8933 91.7538 46.56C91.2604 46.2133 90.6938 46.04 90.0538 46.04C89.4404 46.04 88.8871 46.1933 88.3938 46.5C87.9138 46.7933 87.5338 47.2133 87.2538 47.76C86.9738 48.2933 86.8338 48.9 86.8338 49.58C86.8338 50.26 86.9738 50.8733 87.2538 51.42C87.5338 51.9533 87.9138 52.3733 88.3938 52.68C88.8871 52.9867 89.4404 53.14 90.0538 53.14C90.7071 53.14 91.2738 52.9733 91.7538 52.64C92.2471 52.2933 92.6138 51.8333 92.8538 51.26L94.8338 52.2C94.6204 52.7733 94.2738 53.2933 93.7938 53.76C93.3271 54.2133 92.7738 54.5733 92.1338 54.84C91.4938 55.1067 90.8004 55.24 90.0538 55.24ZM101.723 55.24C100.643 55.24 99.6827 54.9933 98.8427 54.5C98.016 53.9933 97.3693 53.3133 96.9027 52.46C96.436 51.5933 96.2027 50.6267 96.2027 49.56C96.2027 48.4667 96.436 47.5 96.9027 46.66C97.3827 45.82 98.0227 45.16 98.8227 44.68C99.6227 44.1867 100.529 43.94 101.543 43.94C102.356 43.94 103.083 44.08 103.723 44.36C104.363 44.64 104.903 45.0267 105.343 45.52C105.783 46 106.116 46.5533 106.343 47.18C106.583 47.8067 106.703 48.4733 106.703 49.18C106.703 49.3533 106.696 49.5333 106.683 49.72C106.669 49.9067 106.643 50.08 106.603 50.24H97.9827V48.44H105.323L104.243 49.26C104.376 48.6067 104.329 48.0267 104.103 47.52C103.889 47 103.556 46.5933 103.103 46.3C102.663 45.9933 102.143 45.84 101.543 45.84C100.943 45.84 100.409 45.9933 99.9427 46.3C99.476 46.5933 99.116 47.02 98.8627 47.58C98.6093 48.1267 98.5093 48.7933 98.5627 49.58C98.496 50.3133 98.596 50.9533 98.8627 51.5C99.1427 52.0467 99.5293 52.4733 100.023 52.78C100.529 53.0867 101.103 53.24 101.743 53.24C102.396 53.24 102.949 53.0933 103.403 52.8C103.869 52.5067 104.236 52.1267 104.503 51.66L106.343 52.56C106.129 53.0667 105.796 53.5267 105.343 53.94C104.903 54.34 104.369 54.66 103.743 54.9C103.129 55.1267 102.456 55.24 101.723 55.24ZM117.044 55.24C116.111 55.24 115.244 55.0667 114.444 54.72C113.644 54.36 112.964 53.8733 112.404 53.26C111.844 52.6467 111.431 51.94 111.164 51.14L113.164 50.3C113.524 51.22 114.051 51.9267 114.744 52.42C115.438 52.9133 116.238 53.16 117.144 53.16C117.678 53.16 118.144 53.08 118.544 52.92C118.944 52.7467 119.251 52.5067 119.464 52.2C119.691 51.8933 119.804 51.54 119.804 51.14C119.804 50.5933 119.651 50.16 119.344 49.84C119.038 49.52 118.584 49.2667 117.984 49.08L115.184 48.2C114.064 47.8533 113.211 47.3267 112.624 46.62C112.038 45.9 111.744 45.06 111.744 44.1C111.744 43.26 111.951 42.5267 112.364 41.9C112.778 41.26 113.344 40.76 114.064 40.4C114.798 40.04 115.631 39.86 116.564 39.86C117.458 39.86 118.271 40.02 119.004 40.34C119.738 40.6467 120.364 41.0733 120.884 41.62C121.418 42.1667 121.804 42.8 122.044 43.52L120.084 44.38C119.791 43.5933 119.331 42.9867 118.704 42.56C118.091 42.1333 117.378 41.92 116.564 41.92C116.071 41.92 115.638 42.0067 115.264 42.18C114.891 42.34 114.598 42.58 114.384 42.9C114.184 43.2067 114.084 43.5667 114.084 43.98C114.084 44.46 114.238 44.8867 114.544 45.26C114.851 45.6333 115.318 45.9133 115.944 46.1L118.544 46.92C119.731 47.28 120.624 47.8 121.224 48.48C121.824 49.1467 122.124 49.98 122.124 50.98C122.124 51.8067 121.904 52.54 121.464 53.18C121.038 53.82 120.444 54.3267 119.684 54.7C118.924 55.06 118.044 55.24 117.044 55.24ZM128.834 55.12C127.7 55.12 126.82 54.8 126.194 54.16C125.567 53.52 125.254 52.62 125.254 51.46V46.22H123.354V44.18H123.654C124.16 44.18 124.554 44.0333 124.834 43.74C125.114 43.4467 125.254 43.0467 125.254 42.54V41.7H127.514V44.18H129.974V46.22H127.514V51.36C127.514 51.7333 127.574 52.0533 127.694 52.32C127.814 52.5733 128.007 52.7733 128.274 52.92C128.54 53.0533 128.887 53.12 129.314 53.12C129.42 53.12 129.54 53.1133 129.674 53.1C129.807 53.0867 129.934 53.0733 130.054 53.06V55C129.867 55.0267 129.66 55.0533 129.434 55.08C129.207 55.1067 129.007 55.12 128.834 55.12ZM135.001 55.24C134.268 55.24 133.621 55.1133 133.061 54.86C132.515 54.5933 132.088 54.2333 131.781 53.78C131.475 53.3133 131.321 52.7667 131.321 52.14C131.321 51.5533 131.448 51.0267 131.701 50.56C131.968 50.0933 132.375 49.7 132.921 49.38C133.468 49.06 134.155 48.8333 134.981 48.7L138.741 48.08V49.86L135.421 50.44C134.821 50.5467 134.381 50.74 134.101 51.02C133.821 51.2867 133.681 51.6333 133.681 52.06C133.681 52.4733 133.835 52.8133 134.141 53.08C134.461 53.3333 134.868 53.46 135.361 53.46C135.975 53.46 136.508 53.3267 136.961 53.06C137.428 52.7933 137.788 52.44 138.041 52C138.295 51.5467 138.421 51.0467 138.421 50.5V47.72C138.421 47.1867 138.221 46.7533 137.821 46.42C137.435 46.0733 136.915 45.9 136.261 45.9C135.661 45.9 135.135 46.06 134.681 46.38C134.241 46.6867 133.915 47.0867 133.701 47.58L131.821 46.64C132.021 46.1067 132.348 45.64 132.801 45.24C133.255 44.8267 133.781 44.5067 134.381 44.28C134.995 44.0533 135.641 43.94 136.321 43.94C137.175 43.94 137.928 44.1 138.581 44.42C139.248 44.74 139.761 45.1867 140.121 45.76C140.495 46.32 140.681 46.9733 140.681 47.72V55H138.521V53.04L138.981 53.1C138.728 53.54 138.401 53.92 138.001 54.24C137.615 54.56 137.168 54.8067 136.661 54.98C136.168 55.1533 135.615 55.24 135.001 55.24ZM147.409 55.12C146.275 55.12 145.395 54.8 144.769 54.16C144.142 53.52 143.829 52.62 143.829 51.46V46.22H141.929V44.18H142.229C142.735 44.18 143.129 44.0333 143.409 43.74C143.689 43.4467 143.829 43.0467 143.829 42.54V41.7H146.089V44.18H148.549V46.22H146.089V51.36C146.089 51.7333 146.149 52.0533 146.269 52.32C146.389 52.5733 146.582 52.7733 146.849 52.92C147.115 53.0533 147.462 53.12 147.889 53.12C147.995 53.12 148.115 53.1133 148.249 53.1C148.382 53.0867 148.509 53.0733 148.629 53.06V55C148.442 55.0267 148.235 55.0533 148.009 55.08C147.782 55.1067 147.582 55.12 147.409 55.12ZM150.434 55V44.18H152.694V55H150.434ZM150.434 42.7V40.1H152.694V42.7H150.434ZM158.936 55.24C157.83 55.24 156.856 54.9667 156.016 54.42C155.19 53.8733 154.61 53.14 154.276 52.22L156.016 51.4C156.31 52.0133 156.71 52.5 157.216 52.86C157.736 53.22 158.31 53.4 158.936 53.4C159.47 53.4 159.903 53.28 160.236 53.04C160.57 52.8 160.736 52.4733 160.736 52.06C160.736 51.7933 160.663 51.58 160.516 51.42C160.37 51.2467 160.183 51.1067 159.956 51C159.743 50.8933 159.523 50.8133 159.296 50.76L157.596 50.28C156.663 50.0133 155.963 49.6133 155.496 49.08C155.043 48.5333 154.816 47.9 154.816 47.18C154.816 46.5267 154.983 45.96 155.316 45.48C155.65 44.9867 156.11 44.6067 156.696 44.34C157.283 44.0733 157.943 43.94 158.676 43.94C159.663 43.94 160.543 44.1867 161.316 44.68C162.09 45.16 162.636 45.8333 162.956 46.7L161.216 47.52C161.003 47 160.663 46.5867 160.196 46.28C159.743 45.9733 159.23 45.82 158.656 45.82C158.163 45.82 157.77 45.94 157.476 46.18C157.183 46.4067 157.036 46.7067 157.036 47.08C157.036 47.3333 157.103 47.5467 157.236 47.72C157.37 47.88 157.543 48.0133 157.756 48.12C157.97 48.2133 158.19 48.2933 158.416 48.36L160.176 48.88C161.07 49.1333 161.756 49.5333 162.236 50.08C162.716 50.6133 162.956 51.2533 162.956 52C162.956 52.64 162.783 53.2067 162.436 53.7C162.103 54.18 161.636 54.56 161.036 54.84C160.436 55.1067 159.736 55.24 158.936 55.24ZM169.451 55.12C168.317 55.12 167.437 54.8 166.811 54.16C166.184 53.52 165.871 52.62 165.871 51.46V46.22H163.971V44.18H164.271C164.777 44.18 165.171 44.0333 165.451 43.74C165.731 43.4467 165.871 43.0467 165.871 42.54V41.7H168.131V44.18H170.591V46.22H168.131V51.36C168.131 51.7333 168.191 52.0533 168.311 52.32C168.431 52.5733 168.624 52.7733 168.891 52.92C169.157 53.0533 169.504 53.12 169.931 53.12C170.037 53.12 170.157 53.1133 170.291 53.1C170.424 53.0867 170.551 53.0733 170.671 53.06V55C170.484 55.0267 170.277 55.0533 170.051 55.08C169.824 55.1067 169.624 55.12 169.451 55.12ZM172.476 55V44.18H174.736V55H172.476ZM172.476 42.7V40.1H174.736V42.7H172.476ZM182.119 55.24C181.039 55.24 180.079 54.9933 179.239 54.5C178.412 53.9933 177.752 53.3133 177.259 52.46C176.779 51.6067 176.539 50.64 176.539 49.56C176.539 48.4933 176.779 47.5333 177.259 46.68C177.739 45.8267 178.399 45.16 179.239 44.68C180.079 44.1867 181.039 43.94 182.119 43.94C182.852 43.94 183.539 44.0733 184.179 44.34C184.819 44.5933 185.372 44.9467 185.839 45.4C186.319 45.8533 186.672 46.38 186.899 46.98L184.919 47.9C184.692 47.34 184.325 46.8933 183.819 46.56C183.325 46.2133 182.759 46.04 182.119 46.04C181.505 46.04 180.952 46.1933 180.459 46.5C179.979 46.7933 179.599 47.2133 179.319 47.76C179.039 48.2933 178.899 48.9 178.899 49.58C178.899 50.26 179.039 50.8733 179.319 51.42C179.599 51.9533 179.979 52.3733 180.459 52.68C180.952 52.9867 181.505 53.14 182.119 53.14C182.772 53.14 183.339 52.9733 183.819 52.64C184.312 52.2933 184.679 51.8333 184.919 51.26L186.899 52.2C186.685 52.7733 186.339 53.2933 185.859 53.76C185.392 54.2133 184.839 54.5733 184.199 54.84C183.559 55.1067 182.865 55.24 182.119 55.24ZM192.707 55.24C191.601 55.24 190.627 54.9667 189.787 54.42C188.961 53.8733 188.381 53.14 188.047 52.22L189.787 51.4C190.081 52.0133 190.481 52.5 190.987 52.86C191.507 53.22 192.081 53.4 192.707 53.4C193.241 53.4 193.674 53.28 194.007 53.04C194.341 52.8 194.507 52.4733 194.507 52.06C194.507 51.7933 194.434 51.58 194.287 51.42C194.141 51.2467 193.954 51.1067 193.727 51C193.514 50.8933 193.294 50.8133 193.067 50.76L191.367 50.28C190.434 50.0133 189.734 49.6133 189.267 49.08C188.814 48.5333 188.587 47.9 188.587 47.18C188.587 46.5267 188.754 45.96 189.087 45.48C189.421 44.9867 189.881 44.6067 190.467 44.34C191.054 44.0733 191.714 43.94 192.447 43.94C193.434 43.94 194.314 44.1867 195.087 44.68C195.861 45.16 196.407 45.8333 196.727 46.7L194.987 47.52C194.774 47 194.434 46.5867 193.967 46.28C193.514 45.9733 193.001 45.82 192.427 45.82C191.934 45.82 191.541 45.94 191.247 46.18C190.954 46.4067 190.807 46.7067 190.807 47.08C190.807 47.3333 190.874 47.5467 191.007 47.72C191.141 47.88 191.314 48.0133 191.527 48.12C191.741 48.2133 191.961 48.2933 192.187 48.36L193.947 48.88C194.841 49.1333 195.527 49.5333 196.007 50.08C196.487 50.6133 196.727 51.2533 196.727 52C196.727 52.64 196.554 53.2067 196.207 53.7C195.874 54.18 195.407 54.56 194.807 54.84C194.207 55.1067 193.507 55.24 192.707 55.24Z"
                      fill="#90A3BF"
                    />
                    <g clip-path="url(#clip1_205_5126)">
                      <path
                        d="M632.487 343.286L634.302 344.093C635.943 344.822 637 346.449 637 348.244V542.909C637 545.418 634.966 547.452 632.457 547.452H32.7896C30.2806 547.452 28.2467 545.418 28.2467 542.909V324.639C28.2467 324.029 28.3775 323.425 28.6302 322.869C30.3299 319.13 35.8103 319.702 36.7014 323.711L38.092 329.969C39.0049 334.078 44.5312 334.843 46.5266 331.138L47.4035 329.509C48.1958 328.038 49.7321 327.12 51.4034 327.12H60.9921C63.1003 327.12 64.9315 325.67 65.4143 323.618L68.6731 309.768C68.9661 308.522 69.7706 307.458 70.889 306.837L76.1464 303.916C78.0181 302.876 80.3616 303.285 81.7715 304.896L82.0836 305.252C84.3953 307.894 88.7021 307.028 89.8123 303.698L93.9702 291.224C94.0693 290.926 94.1374 290.62 94.1733 290.308L97.345 262.82C97.4625 261.802 97.9209 260.853 98.6457 260.128L102.074 256.699C104.571 254.202 108.838 255.384 109.694 258.81L110.93 263.751C111.552 266.24 114.585 267.19 116.516 265.501C118.585 263.69 121.837 264.928 122.178 267.657L127.446 309.802C128.07 314.793 135.141 315.22 136.361 310.34L138.413 302.134C138.963 297.598 145.587 297.734 145.949 302.289L147.03 315.877C147.468 321.38 155.492 321.487 156.076 315.997L156.375 313.187C156.509 311.932 157.158 310.79 158.167 310.033L161.128 307.813L163.803 305.583C165.648 304.045 168.467 305.073 168.889 307.438C169.543 311.097 174.893 310.771 175.097 307.059L178.546 244.293C178.729 240.961 183.297 240.177 184.581 243.258C184.839 243.877 185.288 244.398 185.864 244.743L190.129 247.302C193.001 249.025 196.687 247.154 196.991 243.818L202.2 186.515C202.56 182.554 207.477 180.935 210.12 183.909L211.271 185.203C211.898 185.909 212.29 186.794 212.392 187.733L216.627 226.912C216.726 227.823 217.098 228.684 217.695 229.38L221.525 233.848C222.767 235.297 224.782 235.815 226.569 235.145L227.571 234.77C230.228 233.773 233.139 235.431 233.638 238.225L234.908 245.337C235.754 250.077 242.425 250.417 243.748 245.787L244.589 242.845C244.958 241.552 245.882 240.488 247.112 239.942L254.036 236.865C254.911 236.476 255.612 235.78 256.008 234.909C257.584 231.442 262.681 232.043 263.408 235.781L268.308 260.979C268.723 263.113 270.592 264.655 272.767 264.655H281.376C283.46 264.655 285.277 266.073 285.783 268.096L287.9 276.565C288.153 277.575 289.06 278.283 290.101 278.283C291.078 278.283 291.945 278.908 292.254 279.835L293.579 283.809C294.907 287.794 300.467 287.997 302.082 284.12L302.848 282.281C303.011 281.89 303.229 281.522 303.494 281.191L306.929 276.898C307.394 276.316 307.709 275.629 307.846 274.897L310.927 258.466C311.005 258.051 311.14 257.649 311.329 257.271L314.078 251.774C314.325 251.279 314.48 250.744 314.535 250.194L317.107 224.474C317.448 221.065 321.296 219.245 324.147 221.146L326.41 222.654C327.474 223.364 328.19 224.489 328.381 225.754L333.38 258.748C333.616 260.302 334.638 261.624 336.083 262.243L337.431 262.821C339.777 263.826 342.49 262.702 343.438 260.332L345.802 254.423C347.031 251.35 351.097 250.706 353.215 253.248C353.854 254.015 354.736 254.54 355.715 254.735L367.306 257.054C369.552 257.503 371.782 256.209 372.507 254.036L376.622 241.689C376.817 241.105 377.128 240.567 377.536 240.107L379.471 237.93C382.045 235.035 386.829 236.483 387.366 240.319L393.001 280.573C393.453 283.796 397.047 285.513 399.838 283.838L410.138 277.658C413.087 275.889 416.857 277.912 417.013 281.348L421.095 371.152C421.167 372.726 422.05 374.151 423.427 374.917L430.65 378.929C431.167 379.216 431.622 379.601 431.991 380.062L440.164 390.279C440.399 390.572 440.597 390.894 440.752 391.237L445.932 402.632C446.108 403.018 446.228 403.427 446.29 403.846L450.165 430.002C450.495 432.229 452.407 433.879 454.659 433.879H458.132C460.403 433.879 462.326 435.557 462.633 437.808L464.498 451.487C464.957 454.856 468.819 456.545 471.605 454.595L475.415 451.928C476.345 451.276 476.998 450.3 477.245 449.191L479.743 437.949C480.491 434.581 484.573 433.244 487.169 435.516L489.482 437.539C490.14 438.116 490.618 438.869 490.858 439.71L493.985 450.654C494.848 453.675 499.178 453.53 499.836 450.458C500.564 447.062 505.509 447.382 505.793 450.843L510.165 504.03C510.476 507.814 515.017 509.569 517.792 506.979L526.812 498.561C527.561 497.861 528.052 496.928 528.205 495.914L531.078 476.755C531.268 475.488 531.985 474.36 533.051 473.649L533.168 473.571C534.2 472.883 534.906 471.803 535.122 470.581L537.752 455.676C538.025 454.128 539.079 452.831 540.538 452.248L545.392 450.306C547.57 449.435 550.011 450.723 550.52 453.014C551.395 456.952 556.992 456.999 557.934 453.076L560.658 441.726C560.821 441.047 561.138 440.414 561.586 439.878L565.222 435.514C566.085 434.478 567.364 433.879 568.712 433.879H569.246C570.451 433.879 571.606 433.4 572.458 432.548L574.251 430.756C575.747 429.26 578.077 428.995 579.871 430.116L584.385 432.937C585.354 433.543 586.059 434.491 586.36 435.594L586.616 436.534C587.927 441.342 594.905 440.836 595.508 435.888L598.073 414.856C598.267 413.27 599.278 411.903 600.738 411.254L606.458 408.712C607.806 408.113 608.779 406.897 609.068 405.452L610.326 399.159C610.647 397.555 612.056 396.4 613.692 396.4C615.351 396.4 616.772 395.213 617.069 393.581L618.535 385.519C618.705 384.585 619.518 383.907 620.467 383.907C621.472 383.907 622.315 383.148 622.421 382.148L626.124 346.962C626.447 343.894 629.669 342.033 632.487 343.286Z"
                        fill="url(#paint0_linear_205_5126)"
                      />
                      <path
                        d="M637 345.292L632.487 343.286C629.669 342.033 626.447 343.894 626.124 346.962L622.421 382.148C622.315 383.148 621.472 383.907 620.467 383.907V383.907C619.518 383.907 618.705 384.585 618.535 385.519L617.069 393.581C616.772 395.213 615.351 396.4 613.692 396.4V396.4C612.056 396.4 610.647 397.555 610.326 399.159L609.068 405.452C608.779 406.897 607.806 408.113 606.458 408.712L600.738 411.254C599.278 411.903 598.267 413.27 598.073 414.856L595.508 435.888C594.905 440.836 587.927 441.342 586.616 436.534L586.36 435.594C586.059 434.491 585.354 433.543 584.385 432.937L579.871 430.116C578.077 428.995 575.747 429.26 574.251 430.756L572.458 432.548C571.606 433.4 570.451 433.879 569.246 433.879H568.712C567.364 433.879 566.085 434.478 565.222 435.514L561.586 439.878C561.138 440.414 560.821 441.047 560.658 441.726L557.934 453.076C556.992 456.999 551.395 456.952 550.52 453.014V453.014C550.011 450.723 547.57 449.435 545.392 450.306L540.538 452.248C539.079 452.831 538.025 454.128 537.752 455.676L535.122 470.581C534.906 471.803 534.2 472.883 533.168 473.571L533.051 473.649C531.985 474.36 531.268 475.488 531.078 476.755L528.205 495.914C528.052 496.928 527.561 497.861 526.812 498.561L517.792 506.979C515.017 509.569 510.476 507.814 510.165 504.03L505.793 450.843C505.509 447.382 500.564 447.062 499.836 450.458V450.458C499.178 453.53 494.848 453.675 493.985 450.654L490.858 439.71C490.618 438.869 490.14 438.116 489.482 437.539L487.169 435.516C484.573 433.244 480.491 434.581 479.743 437.949L477.245 449.191C476.998 450.3 476.345 451.276 475.415 451.928L471.605 454.595C468.819 456.545 464.957 454.856 464.498 451.487L462.633 437.808C462.326 435.557 460.403 433.879 458.132 433.879H454.659C452.407 433.879 450.495 432.229 450.165 430.002L446.29 403.846C446.228 403.427 446.108 403.018 445.932 402.632L440.752 391.237C440.597 390.894 440.399 390.572 440.164 390.279L431.991 380.062C431.622 379.601 431.166 379.216 430.65 378.929L423.427 374.917C422.05 374.151 421.167 372.726 421.095 371.152L417.013 281.348C416.857 277.912 413.087 275.889 410.138 277.658L399.838 283.838C397.047 285.513 393.453 283.796 393.001 280.573L387.366 240.319C386.829 236.483 382.045 235.035 379.471 237.93L377.536 240.107C377.128 240.567 376.817 241.105 376.622 241.689L372.507 254.036C371.782 256.209 369.552 257.503 367.306 257.054L355.715 254.735C354.736 254.54 353.854 254.015 353.215 253.248V253.248C351.097 250.706 347.031 251.35 345.802 254.423L343.438 260.332C342.49 262.702 339.777 263.826 337.431 262.821L336.083 262.243C334.638 261.624 333.616 260.302 333.38 258.748L328.381 225.754C328.19 224.489 327.474 223.364 326.41 222.654L324.147 221.146C321.296 219.245 317.448 221.065 317.107 224.474L314.535 250.194C314.48 250.744 314.325 251.279 314.078 251.774L311.329 257.271C311.14 257.649 311.005 258.051 310.927 258.466L307.846 274.897C307.709 275.629 307.394 276.316 306.929 276.898L303.494 281.191C303.229 281.522 303.011 281.89 302.848 282.281L302.082 284.12C300.467 287.997 294.907 287.794 293.579 283.809L292.254 279.835C291.945 278.908 291.078 278.283 290.101 278.283V278.283C289.06 278.283 288.153 277.575 287.9 276.565L285.783 268.096C285.277 266.073 283.46 264.655 281.376 264.655H272.767C270.592 264.655 268.723 263.113 268.308 260.979L263.408 235.781C262.681 232.043 257.584 231.442 256.008 234.909V234.909C255.612 235.78 254.911 236.476 254.036 236.865L247.112 239.942C245.882 240.488 244.958 241.552 244.589 242.845L243.748 245.787C242.425 250.417 235.754 250.077 234.908 245.337L233.638 238.225C233.139 235.431 230.228 233.773 227.571 234.77L226.569 235.145C224.782 235.815 222.767 235.297 221.525 233.848L217.695 229.38C217.098 228.684 216.726 227.823 216.627 226.912L212.392 187.733C212.29 186.794 211.898 185.909 211.271 185.203L210.12 183.909C207.477 180.935 202.56 182.554 202.2 186.515L196.991 243.818C196.687 247.154 193.001 249.025 190.129 247.302L185.864 244.743C185.288 244.398 184.839 243.877 184.581 243.258V243.258C183.297 240.177 178.729 240.961 178.546 244.293L175.097 307.059C174.893 310.771 169.543 311.097 168.889 307.438V307.438C168.467 305.073 165.648 304.045 163.803 305.583L161.128 307.813L158.167 310.033C157.158 310.79 156.509 311.932 156.375 313.187L156.076 315.997C155.492 321.486 147.468 321.38 147.03 315.877L145.95 302.289C145.587 297.734 138.963 297.598 138.413 302.134V302.134L136.361 310.34C135.141 315.22 128.07 314.793 127.446 309.802L122.178 267.657C121.837 264.928 118.585 263.69 116.516 265.501V265.501C114.585 267.19 111.552 266.24 110.929 263.751L109.694 258.81C108.838 255.384 104.571 254.202 102.074 256.699L98.6457 260.128C97.9209 260.853 97.4625 261.802 97.3451 262.82L94.1733 290.308C94.1374 290.62 94.0693 290.926 93.9701 291.224L89.8123 303.698C88.7021 307.028 84.3952 307.894 82.0835 305.252L81.7716 304.896C80.3617 303.285 78.0181 302.876 76.1464 303.916L70.889 306.837C69.7706 307.458 68.9661 308.522 68.6731 309.768L65.4143 323.618C64.9315 325.67 63.1003 327.12 60.9921 327.12H51.4034C49.7321 327.12 48.1958 328.038 47.4035 329.509L46.5266 331.138C44.5313 334.843 39.005 334.078 38.092 329.969L36.8731 324.484C35.9269 320.226 30.0516 319.742 28.2467 323.713V323.713"
                        stroke="#FF4423"
                        stroke-width="3"
                      />
                    </g>
                    <defs>
                      <linearGradient
                        id="paint0_linear_205_5126"
                        x1="372"
                        y1="-1198"
                        x2="332.623"
                        y2="573.574"
                        gradientUnits="userSpaceOnUse"
                      >
                        <stop stop-color="#FF4423" stop-opacity="0.6" />
                        <stop offset="1" stop-color="#FF4423" stop-opacity="0" />
                      </linearGradient>
                      <clipPath id="clip0_205_5126">
                        <rect
                          width="422"
                          height="204"
                          fill="white"
                          transform="translate(32 191)"
                        />
                      </clipPath>
                      <clipPath id="clip1_205_5126">
                        <rect
                          width="422"
                          height="286"
                          fill="white"
                          transform="matrix(-1 0 0 1 454 116)"
                        />
                      </clipPath>
                    </defs>
                  </svg>