<svg width="32" height="32" viewBox="0 0 32 32" fill="none" xmlns="http://www.w3.org/2000/svg">
<path d="M25.0669 13.2134C23.5602 13.2134 22.2136 13.9467 21.3736 15.0667C20.5336 13.9467 19.1869 13.2134 17.6802 13.2134C15.1336 13.2134 13.0669 15.2934 13.0669 17.8534C13.0669 18.84 13.2269 19.76 13.4936 20.6C14.8002 24.7467 18.8536 27.24 20.8536 27.92C21.1336 28.0134 21.6002 28.0134 21.8802 27.92C23.8802 27.24 27.9336 24.76 29.2402 20.6C29.5202 19.7467 29.6669 18.84 29.6669 17.8534C29.6802 15.2934 27.6136 13.2134 25.0669 13.2134Z" fill="#7C5CFC"/>
<path d="M27.6665 11.12C27.6665 11.4266 27.3598 11.6266 27.0665 11.5466C25.2665 11.08 23.2932 11.4666 21.7998 12.5333C21.5065 12.7466 21.1065 12.7466 20.8265 12.5333C19.7732 11.76 18.4932 11.3333 17.1465 11.3333C13.7065 11.3333 10.9065 14.1466 10.9065 17.6133C10.9065 21.3733 12.7065 24.1866 14.5198 26.0666C14.6132 26.16 14.5332 26.32 14.4132 26.2666C10.7732 25.0266 2.6665 19.88 2.6665 11.12C2.6665 7.2533 5.77317 4.1333 9.61317 4.1333C11.8932 4.1333 13.9065 5.22663 15.1732 6.91997C16.4532 5.22663 18.4665 4.1333 20.7332 4.1333C24.5598 4.1333 27.6665 7.2533 27.6665 11.12Z" fill="#7C5CFC"/>
</svg>
